G04 PROTEUS RS274X GERBER FILE*
%FSLAX45Y45*%
%MOMM*%
G01*
%ADD27C,2.286000*%
%AMPPAD025*
4,1,8,
-0.509800,1.397000,
0.509800,1.397000,
0.889000,1.017800,
0.889000,-1.017800,
0.509800,-1.397000,
-0.509800,-1.397000,
-0.889000,-1.017800,
-0.889000,1.017800,
-0.509800,1.397000,
0*%
%ADD31PPAD025*%
%AMPPAD033*
4,1,36,
0.762000,0.635000,
0.762000,-0.635000,
0.759470,-0.660970,
0.752200,-0.684980,
0.740650,-0.706580,
0.725290,-0.725290,
0.706570,-0.740650,
0.684980,-0.752200,
0.660970,-0.759470,
0.635000,-0.762000,
-0.635000,-0.762000,
-0.660970,-0.759470,
-0.684980,-0.752200,
-0.706570,-0.740650,
-0.725290,-0.725290,
-0.740650,-0.706580,
-0.752200,-0.684980,
-0.759470,-0.660970,
-0.762000,-0.635000,
-0.762000,0.635000,
-0.759470,0.660970,
-0.752200,0.684980,
-0.740650,0.706580,
-0.725290,0.725290,
-0.706570,0.740650,
-0.684980,0.752200,
-0.660970,0.759470,
-0.635000,0.762000,
0.635000,0.762000,
0.660970,0.759470,
0.684980,0.752200,
0.706570,0.740650,
0.725290,0.725290,
0.740650,0.706580,
0.752200,0.684980,
0.759470,0.660970,
0.762000,0.635000,
0*%
%ADD39PPAD033*%
%ADD40C,1.524000*%
%AMPPAD037*
4,1,36,
-1.016000,1.143000,
1.016000,1.143000,
1.041970,1.140470,
1.065980,1.133200,
1.087580,1.121650,
1.106290,1.106290,
1.121650,1.087570,
1.133200,1.065980,
1.140470,1.041970,
1.143000,1.016000,
1.143000,-1.016000,
1.140470,-1.041970,
1.133200,-1.065980,
1.121650,-1.087570,
1.106290,-1.106290,
1.087580,-1.121650,
1.065980,-1.133200,
1.041970,-1.140470,
1.016000,-1.143000,
-1.016000,-1.143000,
-1.041970,-1.140470,
-1.065980,-1.133200,
-1.087580,-1.121650,
-1.106290,-1.106290,
-1.121650,-1.087570,
-1.133200,-1.065980,
-1.140470,-1.041970,
-1.143000,-1.016000,
-1.143000,1.016000,
-1.140470,1.041970,
-1.133200,1.065980,
-1.121650,1.087570,
-1.106290,1.106290,
-1.087580,1.121650,
-1.065980,1.133200,
-1.041970,1.140470,
-1.016000,1.143000,
0*%
%ADD43PPAD037*%
%ADD44C,2.794000*%
%AMPPAD039*
4,1,36,
-1.270000,-1.143000,
-1.270000,1.143000,
-1.267470,1.168970,
-1.260200,1.192980,
-1.248650,1.214580,
-1.233290,1.233290,
-1.214570,1.248650,
-1.192980,1.260200,
-1.168970,1.267470,
-1.143000,1.270000,
1.143000,1.270000,
1.168970,1.267470,
1.192980,1.260200,
1.214570,1.248650,
1.233290,1.233290,
1.248650,1.214580,
1.260200,1.192980,
1.267470,1.168970,
1.270000,1.143000,
1.270000,-1.143000,
1.267470,-1.168970,
1.260200,-1.192980,
1.248650,-1.214580,
1.233290,-1.233290,
1.214570,-1.248650,
1.192980,-1.260200,
1.168970,-1.267470,
1.143000,-1.270000,
-1.143000,-1.270000,
-1.168970,-1.267470,
-1.192980,-1.260200,
-1.214570,-1.248650,
-1.233290,-1.233290,
-1.248650,-1.214580,
-1.260200,-1.192980,
-1.267470,-1.168970,
-1.270000,-1.143000,
0*%
%ADD45PPAD039*%
%ADD25C,2.540000*%
%ADD46C,4.508000*%
%AMPPAD041*
4,1,36,
1.143000,-1.270000,
-1.143000,-1.270000,
-1.168970,-1.267470,
-1.192980,-1.260200,
-1.214580,-1.248650,
-1.233290,-1.233290,
-1.248650,-1.214570,
-1.260200,-1.192980,
-1.267470,-1.168970,
-1.270000,-1.143000,
-1.270000,1.143000,
-1.267470,1.168970,
-1.260200,1.192980,
-1.248650,1.214570,
-1.233290,1.233290,
-1.214580,1.248650,
-1.192980,1.260200,
-1.168970,1.267470,
-1.143000,1.270000,
1.143000,1.270000,
1.168970,1.267470,
1.192980,1.260200,
1.214580,1.248650,
1.233290,1.233290,
1.248650,1.214570,
1.260200,1.192980,
1.267470,1.168970,
1.270000,1.143000,
1.270000,-1.143000,
1.267470,-1.168970,
1.260200,-1.192980,
1.248650,-1.214570,
1.233290,-1.233290,
1.214580,-1.248650,
1.192980,-1.260200,
1.168970,-1.267470,
1.143000,-1.270000,
0*%
%ADD47PPAD041*%
%ADD29C,0.203200*%
%TD.AperFunction*%
D27*
X+4532500Y+2708500D03*
X+3770500Y+3724500D03*
X+7961500Y+3407000D03*
X+3897500Y+5947000D03*
X+7961500Y+3915000D03*
X+4913500Y+3724500D03*
X+3262500Y+2899000D03*
X+3389500Y+4423000D03*
X+4151500Y+5185000D03*
X+3199000Y+5185000D03*
X+6945500Y+4486500D03*
X+7072500Y+3153000D03*
X+7072500Y+3597500D03*
X+6310500Y+4105500D03*
X+2945000Y+4486500D03*
X+4659500Y+6391500D03*
X+2945000Y+5756500D03*
D31*
X+8390000Y+6790000D03*
X+8136000Y+6790000D03*
X+7882000Y+6790000D03*
X+7628000Y+6790000D03*
X+5596000Y+1964000D03*
X+7374000Y+6790000D03*
X+7120000Y+6790000D03*
X+5850000Y+1964000D03*
X+6866000Y+6790000D03*
X+6612000Y+6790000D03*
X+6231000Y+6790000D03*
X+5977000Y+6790000D03*
X+5723000Y+6790000D03*
X+5469000Y+6790000D03*
X+5215000Y+6790000D03*
X+4961000Y+6790000D03*
X+4834000Y+1964000D03*
X+7120000Y+1964000D03*
X+7374000Y+1964000D03*
X+7628000Y+1964000D03*
X+7882000Y+1964000D03*
X+8136000Y+1964000D03*
X+8390000Y+1964000D03*
X+4453000Y+6790000D03*
X+6104000Y+1964000D03*
X+6358000Y+1964000D03*
X+4707000Y+6790000D03*
X+5088000Y+1964000D03*
X+5342000Y+1964000D03*
X+3945000Y+6790000D03*
X+4199000Y+6790000D03*
X+6612000Y+1964000D03*
D39*
X+7648000Y+6144000D03*
D40*
X+7648000Y+5890000D03*
X+7648000Y+5636000D03*
X+7648000Y+5382000D03*
X+7648000Y+5128000D03*
X+7648000Y+4874000D03*
X+7648000Y+4620000D03*
X+8410000Y+4620000D03*
X+8410000Y+4874000D03*
X+8410000Y+5128000D03*
X+8410000Y+5382000D03*
X+8410000Y+5636000D03*
X+8410000Y+5890000D03*
X+8410000Y+6144000D03*
D39*
X+6940000Y+4700000D03*
D40*
X+6940000Y+4954000D03*
X+6940000Y+5208000D03*
X+6940000Y+5462000D03*
X+6940000Y+5716000D03*
X+6940000Y+5970000D03*
X+6940000Y+6224000D03*
X+6178000Y+6224000D03*
X+6178000Y+5970000D03*
X+6178000Y+5716000D03*
X+6178000Y+5462000D03*
X+6178000Y+5208000D03*
X+6178000Y+4954000D03*
X+6178000Y+4700000D03*
D43*
X+6620000Y+2350000D03*
D44*
X+9430000Y+6280000D03*
X+9430000Y+5080000D03*
X+9230000Y+5680000D03*
X+10650000Y+6280000D03*
X+10650000Y+5080000D03*
X+9430000Y+4540000D03*
X+9430000Y+3340000D03*
X+9230000Y+3940000D03*
X+10650000Y+4540000D03*
X+10650000Y+3340000D03*
D45*
X+10212000Y+2050000D03*
D25*
X+9450000Y+2050000D03*
D45*
X+10250000Y+7580000D03*
D25*
X+9488000Y+7580000D03*
X+5900000Y+7600000D03*
X+6250000Y+7600000D03*
X+6600000Y+7600000D03*
X+6950000Y+7600000D03*
X+7300000Y+7600000D03*
D46*
X+10990000Y+1980000D03*
X+10980000Y+7750000D03*
X+2320000Y+7710000D03*
X+2390000Y+2070000D03*
D47*
X+3550000Y+7604459D03*
D25*
X+3200000Y+7604459D03*
D29*
X+1980000Y+1690000D02*
X+11300000Y+1690000D01*
X+11300000Y+8020000D01*
X+1980000Y+8020000D01*
X+1980000Y+1690000D01*
M02*
