M48
METRIC,TZ
T01C0.7620
T02C1.0000
T03C1.0160
T04C1.5240
T05C1.2700
T06C3.5000
%
T01
X+45325Y+27085
X+37705Y+37245
X+79615Y+34070
X+38975Y+59470
X+79615Y+39150
X+49135Y+37245
X+32625Y+28990
X+33895Y+44230
X+41515Y+51850
X+31990Y+51850
X+69455Y+44865
X+70725Y+31530
X+70725Y+35975
X+63105Y+41055
X+29450Y+44865
X+46595Y+63915
X+29450Y+57565
X+76480Y+61440
X+76480Y+58900
X+76480Y+56360
X+76480Y+53820
X+76480Y+51280
X+76480Y+48740
X+76480Y+46200
X+84100Y+46200
X+84100Y+48740
X+84100Y+51280
X+84100Y+53820
X+84100Y+56360
X+84100Y+58900
X+84100Y+61440
X+69400Y+47000
X+69400Y+49540
X+69400Y+52080
X+69400Y+54620
X+69400Y+57160
X+69400Y+59700
X+69400Y+62240
X+61780Y+62240
X+61780Y+59700
X+61780Y+57160
X+61780Y+54620
X+61780Y+52080
X+61780Y+49540
X+61780Y+47000
T02
X+83900Y+67900
X+81360Y+67900
X+78820Y+67900
X+76280Y+67900
X+55960Y+19640
X+73740Y+67900
X+71200Y+67900
X+58500Y+19640
X+68660Y+67900
X+66120Y+67900
X+62310Y+67900
X+59770Y+67900
X+57230Y+67900
X+54690Y+67900
X+52150Y+67900
X+49610Y+67900
X+48340Y+19640
X+71200Y+19640
X+73740Y+19640
X+76280Y+19640
X+78820Y+19640
X+81360Y+19640
X+83900Y+19640
X+44530Y+67900
X+61040Y+19640
X+63580Y+19640
X+47070Y+67900
X+50880Y+19640
X+53420Y+19640
X+39450Y+67900
X+41990Y+67900
X+66120Y+19640
T03
X+66200Y+23500
T04
X+94300Y+62800
X+94300Y+50800
X+92300Y+56800
X+106500Y+62800
X+106500Y+50800
X+94300Y+45400
X+94300Y+33400
X+92300Y+39400
X+106500Y+45400
X+106500Y+33400
T05
X+102120Y+20500
X+94500Y+20500
X+102500Y+75800
X+94880Y+75800
X+59000Y+76000
X+62500Y+76000
X+66000Y+76000
X+69500Y+76000
X+73000Y+76000
X+35500Y+76045
X+32000Y+76045
T06
X+109900Y+19800
X+109800Y+77500
X+23200Y+77100
X+23900Y+20700
M30
