G04 PROTEUS RS274X GERBER FILE*
%FSLAX45Y45*%
%MOMM*%
G01*
%ADD29C,0.203200*%
%ADD72C,0.000010*%
%ADD73C,0.250000*%
%ADD30C,0.200000*%
%TD.AperFunction*%
D29*
X+8644000Y+1710000D02*
X+2040000Y+1710000D01*
X+8390000Y+7044000D02*
X+2040000Y+7044000D01*
X+8644000Y+1710000D02*
X+8644000Y+1964000D01*
X+8898000Y+2218000D02*
X+8644000Y+1964000D01*
X+8898000Y+2218000D02*
X+8898000Y+5520000D01*
X+8644000Y+5774000D01*
X+8644000Y+6790000D01*
X+8390000Y+7044000D02*
X+8644000Y+6790000D01*
X+2040000Y+1710000D02*
X+2040000Y+7044000D01*
X+6993000Y+1837000D02*
X+8517000Y+1837000D01*
X+8517000Y+2091000D01*
X+6993000Y+2091000D01*
X+6993000Y+1837000D01*
X+4707000Y+1837000D02*
X+6739000Y+1837000D01*
X+6739000Y+2091000D01*
X+4707000Y+2091000D01*
X+4707000Y+1837000D01*
X+6485000Y+6663000D02*
X+8517000Y+6663000D01*
X+8517000Y+6917000D01*
X+6485000Y+6917000D01*
X+6485000Y+6663000D01*
X+3818000Y+6663000D02*
X+6358000Y+6663000D01*
X+6358000Y+6917000D01*
X+3818000Y+6917000D01*
X+3818000Y+6663000D01*
D72*
X+2710560Y+2091000D02*
X+2527680Y+2091000D01*
X+2436240Y+2148150D01*
X+2436240Y+2205300D01*
X+2527680Y+2262450D01*
X+2710560Y+2262450D01*
X+2619120Y+2091000D02*
X+2619120Y+2262450D01*
X+2710560Y+2319600D02*
X+2436240Y+2319600D01*
X+2436240Y+2462475D01*
X+2481960Y+2491050D01*
X+2527680Y+2491050D01*
X+2573400Y+2462475D01*
X+2573400Y+2319600D01*
X+2573400Y+2462475D02*
X+2619120Y+2491050D01*
X+2710560Y+2491050D01*
X+2710560Y+2548200D02*
X+2436240Y+2548200D01*
X+2436240Y+2662500D01*
X+2527680Y+2719650D01*
X+2619120Y+2719650D01*
X+2710560Y+2662500D01*
X+2710560Y+2548200D01*
X+2436240Y+2776800D02*
X+2664840Y+2776800D01*
X+2710560Y+2805375D01*
X+2710560Y+2919675D01*
X+2664840Y+2948250D01*
X+2436240Y+2948250D01*
X+2436240Y+3033975D02*
X+2436240Y+3148275D01*
X+2436240Y+3091125D02*
X+2710560Y+3091125D01*
X+2710560Y+3033975D02*
X+2710560Y+3148275D01*
X+2710560Y+3234000D02*
X+2436240Y+3234000D01*
X+2710560Y+3405450D01*
X+2436240Y+3405450D01*
X+2527680Y+3462600D02*
X+2436240Y+3519750D01*
X+2436240Y+3576900D01*
X+2527680Y+3634050D01*
X+2619120Y+3634050D01*
X+2710560Y+3576900D01*
X+2710560Y+3519750D01*
X+2619120Y+3462600D01*
X+2527680Y+3462600D01*
X+2436240Y+3919800D02*
X+2664840Y+3919800D01*
X+2710560Y+3948375D01*
X+2710560Y+4062675D01*
X+2664840Y+4091250D01*
X+2436240Y+4091250D01*
X+2710560Y+4148400D02*
X+2436240Y+4148400D01*
X+2710560Y+4319850D01*
X+2436240Y+4319850D01*
X+2527680Y+4377000D02*
X+2436240Y+4434150D01*
X+2436240Y+4491300D01*
X+2527680Y+4548450D01*
X+2619120Y+4548450D01*
X+2710560Y+4491300D01*
X+2710560Y+4434150D01*
X+2619120Y+4377000D01*
X+2527680Y+4377000D01*
X+2710560Y+4834200D02*
X+2436240Y+4834200D01*
X+2436240Y+4977075D01*
X+2481960Y+5005650D01*
X+2527680Y+5005650D01*
X+2573400Y+4977075D01*
X+2573400Y+4834200D01*
X+2573400Y+4977075D02*
X+2619120Y+5005650D01*
X+2710560Y+5005650D01*
X+2481960Y+5091375D02*
X+2436240Y+5119950D01*
X+2436240Y+5205675D01*
X+2481960Y+5234250D01*
X+2527680Y+5234250D01*
X+2573400Y+5205675D01*
X+2619120Y+5234250D01*
X+2664840Y+5234250D01*
X+2710560Y+5205675D01*
X+2710560Y+5119950D01*
X+2664840Y+5091375D01*
X+2573400Y+5148525D02*
X+2573400Y+5205675D01*
X+2664840Y+5520000D02*
X+2710560Y+5548575D01*
X+2710560Y+5662875D01*
X+2664840Y+5691450D01*
X+2619120Y+5691450D01*
X+2573400Y+5662875D01*
X+2573400Y+5548575D01*
X+2527680Y+5520000D01*
X+2481960Y+5520000D01*
X+2436240Y+5548575D01*
X+2436240Y+5662875D01*
X+2481960Y+5691450D01*
X+2710560Y+5748600D02*
X+2436240Y+5748600D01*
X+2436240Y+5920050D02*
X+2710560Y+5920050D01*
X+2573400Y+5748600D02*
X+2573400Y+5920050D01*
X+2436240Y+6005775D02*
X+2436240Y+6120075D01*
X+2436240Y+6062925D02*
X+2710560Y+6062925D01*
X+2710560Y+6005775D02*
X+2710560Y+6120075D01*
X+2710560Y+6377250D02*
X+2710560Y+6205800D01*
X+2436240Y+6205800D01*
X+2436240Y+6377250D01*
X+2573400Y+6205800D02*
X+2573400Y+6320100D01*
X+2436240Y+6434400D02*
X+2710560Y+6434400D01*
X+2710560Y+6605850D01*
X+2710560Y+6663000D02*
X+2436240Y+6663000D01*
X+2436240Y+6777300D01*
X+2527680Y+6834450D01*
X+2619120Y+6834450D01*
X+2710560Y+6777300D01*
X+2710560Y+6663000D01*
D29*
X+4275120Y+5332840D02*
X+3635040Y+5332840D01*
X+3635040Y+4984860D01*
X+4275120Y+4984860D01*
X+4275120Y+5330300D01*
X+4140500Y+4984860D02*
X+4140500Y+4964540D01*
X+3762040Y+4964540D01*
X+3762040Y+4982320D01*
X+4315760Y+4617040D02*
X+4407200Y+4617040D01*
X+4407200Y+4712290D01*
X+4407200Y+4744040D02*
X+4315760Y+4744040D01*
X+4361480Y+4791665D01*
X+4315760Y+4839290D01*
X+4407200Y+4839290D01*
X+4331000Y+4886915D02*
X+4315760Y+4902790D01*
X+4315760Y+4950415D01*
X+4331000Y+4966290D01*
X+4346240Y+4966290D01*
X+4361480Y+4950415D01*
X+4376720Y+4966290D01*
X+4391960Y+4966290D01*
X+4407200Y+4950415D01*
X+4407200Y+4902790D01*
X+4391960Y+4886915D01*
X+4361480Y+4918665D02*
X+4361480Y+4950415D01*
X+4346240Y+5029790D02*
X+4315760Y+5061540D01*
X+4407200Y+5061540D01*
X+4315760Y+5140915D02*
X+4315760Y+5220290D01*
X+4331000Y+5220290D01*
X+4407200Y+5140915D01*
X+4422440Y+5252040D02*
X+4422440Y+5347290D01*
X+4315760Y+5394915D02*
X+4315760Y+5474290D01*
X+4331000Y+5474290D01*
X+4407200Y+5394915D01*
X+4315760Y+5506040D02*
X+4361480Y+5506040D01*
X+4407200Y+5553665D01*
X+4361480Y+5601290D01*
X+4315760Y+5601290D01*
X+4275120Y+3902840D02*
X+3635040Y+3902840D01*
X+3635040Y+3554860D01*
X+4275120Y+3554860D01*
X+4275120Y+3900300D01*
X+4140500Y+3554860D02*
X+4140500Y+3534540D01*
X+3762040Y+3534540D01*
X+3762040Y+3552320D01*
X+4315760Y+3217040D02*
X+4407200Y+3217040D01*
X+4407200Y+3312290D01*
X+4407200Y+3344040D02*
X+4315760Y+3344040D01*
X+4361480Y+3391665D01*
X+4315760Y+3439290D01*
X+4407200Y+3439290D01*
X+4331000Y+3486915D02*
X+4315760Y+3502790D01*
X+4315760Y+3550415D01*
X+4331000Y+3566290D01*
X+4346240Y+3566290D01*
X+4361480Y+3550415D01*
X+4376720Y+3566290D01*
X+4391960Y+3566290D01*
X+4407200Y+3550415D01*
X+4407200Y+3502790D01*
X+4391960Y+3486915D01*
X+4361480Y+3518665D02*
X+4361480Y+3550415D01*
X+4346240Y+3629790D02*
X+4315760Y+3661540D01*
X+4407200Y+3661540D01*
X+4315760Y+3740915D02*
X+4315760Y+3820290D01*
X+4331000Y+3820290D01*
X+4407200Y+3740915D01*
X+4422440Y+3852040D02*
X+4422440Y+3947290D01*
X+4315760Y+4074290D02*
X+4315760Y+3994915D01*
X+4346240Y+3994915D01*
X+4346240Y+4058415D01*
X+4361480Y+4074290D01*
X+4391960Y+4074290D01*
X+4407200Y+4058415D01*
X+4407200Y+4010790D01*
X+4391960Y+3994915D01*
X+4315760Y+4106040D02*
X+4361480Y+4106040D01*
X+4407200Y+4153665D01*
X+4361480Y+4201290D01*
X+4315760Y+4201290D01*
D73*
X+4802500Y+4080000D02*
X+4802457Y+4081039D01*
X+4802105Y+4083118D01*
X+4801368Y+4085197D01*
X+4800164Y+4087276D01*
X+4798323Y+4089326D01*
X+4796244Y+4090829D01*
X+4794165Y+4091786D01*
X+4792086Y+4092325D01*
X+4790007Y+4092500D01*
X+4790000Y+4092500D01*
X+4777500Y+4080000D02*
X+4777543Y+4081039D01*
X+4777895Y+4083118D01*
X+4778632Y+4085197D01*
X+4779836Y+4087276D01*
X+4781677Y+4089326D01*
X+4783756Y+4090829D01*
X+4785835Y+4091786D01*
X+4787914Y+4092325D01*
X+4789993Y+4092500D01*
X+4790000Y+4092500D01*
X+4777500Y+4080000D02*
X+4777543Y+4078961D01*
X+4777895Y+4076882D01*
X+4778632Y+4074803D01*
X+4779836Y+4072724D01*
X+4781677Y+4070674D01*
X+4783756Y+4069171D01*
X+4785835Y+4068214D01*
X+4787914Y+4067675D01*
X+4789993Y+4067500D01*
X+4790000Y+4067500D01*
X+4802500Y+4080000D02*
X+4802457Y+4078961D01*
X+4802105Y+4076882D01*
X+4801368Y+4074803D01*
X+4800164Y+4072724D01*
X+4798323Y+4070674D01*
X+4796244Y+4069171D01*
X+4794165Y+4068214D01*
X+4792086Y+4067675D01*
X+4790007Y+4067500D01*
X+4790000Y+4067500D01*
D30*
X+4775000Y+4015000D02*
X+4820000Y+4015000D01*
X+4820000Y+3455000D01*
X+4775000Y+3455000D01*
X+4485000Y+4015000D02*
X+4440000Y+4015000D01*
X+4440000Y+3455000D01*
X+4485000Y+3455000D01*
D29*
X+4951920Y+3614250D02*
X+4860480Y+3614250D01*
X+4860480Y+3677750D01*
X+4890960Y+3709500D01*
X+4921440Y+3709500D01*
X+4951920Y+3677750D01*
X+4951920Y+3614250D01*
X+4890960Y+3773000D02*
X+4860480Y+3804750D01*
X+4951920Y+3804750D01*
D73*
X+5062500Y+5510000D02*
X+5062457Y+5511039D01*
X+5062105Y+5513118D01*
X+5061368Y+5515197D01*
X+5060164Y+5517276D01*
X+5058323Y+5519326D01*
X+5056244Y+5520829D01*
X+5054165Y+5521786D01*
X+5052086Y+5522325D01*
X+5050007Y+5522500D01*
X+5050000Y+5522500D01*
X+5037500Y+5510000D02*
X+5037543Y+5511039D01*
X+5037895Y+5513118D01*
X+5038632Y+5515197D01*
X+5039836Y+5517276D01*
X+5041677Y+5519326D01*
X+5043756Y+5520829D01*
X+5045835Y+5521786D01*
X+5047914Y+5522325D01*
X+5049993Y+5522500D01*
X+5050000Y+5522500D01*
X+5037500Y+5510000D02*
X+5037543Y+5508961D01*
X+5037895Y+5506882D01*
X+5038632Y+5504803D01*
X+5039836Y+5502724D01*
X+5041677Y+5500674D01*
X+5043756Y+5499171D01*
X+5045835Y+5498214D01*
X+5047914Y+5497675D01*
X+5049993Y+5497500D01*
X+5050000Y+5497500D01*
X+5062500Y+5510000D02*
X+5062457Y+5508961D01*
X+5062105Y+5506882D01*
X+5061368Y+5504803D01*
X+5060164Y+5502724D01*
X+5058323Y+5500674D01*
X+5056244Y+5499171D01*
X+5054165Y+5498214D01*
X+5052086Y+5497675D01*
X+5050007Y+5497500D01*
X+5050000Y+5497500D01*
D30*
X+5035000Y+5445000D02*
X+5080000Y+5445000D01*
X+5080000Y+4885000D01*
X+5035000Y+4885000D01*
X+4745000Y+5445000D02*
X+4700000Y+5445000D01*
X+4700000Y+4885000D01*
X+4745000Y+4885000D01*
D29*
X+5211920Y+5044250D02*
X+5120480Y+5044250D01*
X+5120480Y+5107750D01*
X+5150960Y+5139500D01*
X+5181440Y+5139500D01*
X+5211920Y+5107750D01*
X+5211920Y+5044250D01*
X+5135720Y+5187125D02*
X+5120480Y+5203000D01*
X+5120480Y+5250625D01*
X+5135720Y+5266500D01*
X+5150960Y+5266500D01*
X+5166200Y+5250625D01*
X+5166200Y+5203000D01*
X+5181440Y+5187125D01*
X+5211920Y+5187125D01*
X+5211920Y+5266500D01*
D73*
X+4147500Y+6280000D02*
X+4147457Y+6281039D01*
X+4147105Y+6283118D01*
X+4146368Y+6285197D01*
X+4145164Y+6287276D01*
X+4143323Y+6289326D01*
X+4141244Y+6290829D01*
X+4139165Y+6291786D01*
X+4137086Y+6292325D01*
X+4135007Y+6292500D01*
X+4135000Y+6292500D01*
X+4122500Y+6280000D02*
X+4122543Y+6281039D01*
X+4122895Y+6283118D01*
X+4123632Y+6285197D01*
X+4124836Y+6287276D01*
X+4126677Y+6289326D01*
X+4128756Y+6290829D01*
X+4130835Y+6291786D01*
X+4132914Y+6292325D01*
X+4134993Y+6292500D01*
X+4135000Y+6292500D01*
X+4122500Y+6280000D02*
X+4122543Y+6278961D01*
X+4122895Y+6276882D01*
X+4123632Y+6274803D01*
X+4124836Y+6272724D01*
X+4126677Y+6270674D01*
X+4128756Y+6269171D01*
X+4130835Y+6268214D01*
X+4132914Y+6267675D01*
X+4134993Y+6267500D01*
X+4135000Y+6267500D01*
X+4147500Y+6280000D02*
X+4147457Y+6278961D01*
X+4147105Y+6276882D01*
X+4146368Y+6274803D01*
X+4145164Y+6272724D01*
X+4143323Y+6270674D01*
X+4141244Y+6269171D01*
X+4139165Y+6268214D01*
X+4137086Y+6267675D01*
X+4135007Y+6267500D01*
X+4135000Y+6267500D01*
D30*
X+4200000Y+6262500D02*
X+4200000Y+6330000D01*
X+4960000Y+6330000D01*
X+4960000Y+6262500D01*
X+4200000Y+5937500D02*
X+4200000Y+5870000D01*
X+4960000Y+5870000D01*
X+4960000Y+5937500D01*
D29*
X+4542000Y+6385720D02*
X+4526125Y+6370480D01*
X+4478500Y+6370480D01*
X+4446750Y+6400960D01*
X+4446750Y+6431440D01*
X+4478500Y+6461920D01*
X+4526125Y+6461920D01*
X+4542000Y+6446680D01*
X+4605500Y+6431440D02*
X+4637250Y+6461920D01*
X+4637250Y+6370480D01*
D73*
X+2677500Y+6280000D02*
X+2677457Y+6281039D01*
X+2677105Y+6283118D01*
X+2676368Y+6285197D01*
X+2675164Y+6287276D01*
X+2673323Y+6289326D01*
X+2671244Y+6290829D01*
X+2669165Y+6291786D01*
X+2667086Y+6292325D01*
X+2665007Y+6292500D01*
X+2665000Y+6292500D01*
X+2652500Y+6280000D02*
X+2652543Y+6281039D01*
X+2652895Y+6283118D01*
X+2653632Y+6285197D01*
X+2654836Y+6287276D01*
X+2656677Y+6289326D01*
X+2658756Y+6290829D01*
X+2660835Y+6291786D01*
X+2662914Y+6292325D01*
X+2664993Y+6292500D01*
X+2665000Y+6292500D01*
X+2652500Y+6280000D02*
X+2652543Y+6278961D01*
X+2652895Y+6276882D01*
X+2653632Y+6274803D01*
X+2654836Y+6272724D01*
X+2656677Y+6270674D01*
X+2658756Y+6269171D01*
X+2660835Y+6268214D01*
X+2662914Y+6267675D01*
X+2664993Y+6267500D01*
X+2665000Y+6267500D01*
X+2677500Y+6280000D02*
X+2677457Y+6278961D01*
X+2677105Y+6276882D01*
X+2676368Y+6274803D01*
X+2675164Y+6272724D01*
X+2673323Y+6270674D01*
X+2671244Y+6269171D01*
X+2669165Y+6268214D01*
X+2667086Y+6267675D01*
X+2665007Y+6267500D01*
X+2665000Y+6267500D01*
D30*
X+2730000Y+6262500D02*
X+2730000Y+6330000D01*
X+3490000Y+6330000D01*
X+3490000Y+6262500D01*
X+2730000Y+5937500D02*
X+2730000Y+5870000D01*
X+3490000Y+5870000D01*
X+3490000Y+5937500D01*
D29*
X+3072000Y+6385720D02*
X+3056125Y+6370480D01*
X+3008500Y+6370480D01*
X+2976750Y+6400960D01*
X+2976750Y+6431440D01*
X+3008500Y+6461920D01*
X+3056125Y+6461920D01*
X+3072000Y+6446680D01*
X+3119625Y+6446680D02*
X+3135500Y+6461920D01*
X+3183125Y+6461920D01*
X+3199000Y+6446680D01*
X+3199000Y+6431440D01*
X+3183125Y+6416200D01*
X+3135500Y+6416200D01*
X+3119625Y+6400960D01*
X+3119625Y+6370480D01*
X+3199000Y+6370480D01*
D73*
X+4127500Y+2830000D02*
X+4127457Y+2831039D01*
X+4127105Y+2833118D01*
X+4126368Y+2835197D01*
X+4125164Y+2837276D01*
X+4123323Y+2839326D01*
X+4121244Y+2840829D01*
X+4119165Y+2841786D01*
X+4117086Y+2842325D01*
X+4115007Y+2842500D01*
X+4115000Y+2842500D01*
X+4102500Y+2830000D02*
X+4102543Y+2831039D01*
X+4102895Y+2833118D01*
X+4103632Y+2835197D01*
X+4104836Y+2837276D01*
X+4106677Y+2839326D01*
X+4108756Y+2840829D01*
X+4110835Y+2841786D01*
X+4112914Y+2842325D01*
X+4114993Y+2842500D01*
X+4115000Y+2842500D01*
X+4102500Y+2830000D02*
X+4102543Y+2828961D01*
X+4102895Y+2826882D01*
X+4103632Y+2824803D01*
X+4104836Y+2822724D01*
X+4106677Y+2820674D01*
X+4108756Y+2819171D01*
X+4110835Y+2818214D01*
X+4112914Y+2817675D01*
X+4114993Y+2817500D01*
X+4115000Y+2817500D01*
X+4127500Y+2830000D02*
X+4127457Y+2828961D01*
X+4127105Y+2826882D01*
X+4126368Y+2824803D01*
X+4125164Y+2822724D01*
X+4123323Y+2820674D01*
X+4121244Y+2819171D01*
X+4119165Y+2818214D01*
X+4117086Y+2817675D01*
X+4115007Y+2817500D01*
X+4115000Y+2817500D01*
D30*
X+4180000Y+2812500D02*
X+4180000Y+2880000D01*
X+4940000Y+2880000D01*
X+4940000Y+2812500D01*
X+4180000Y+2487500D02*
X+4180000Y+2420000D01*
X+4940000Y+2420000D01*
X+4940000Y+2487500D01*
D29*
X+4522000Y+2935720D02*
X+4506125Y+2920480D01*
X+4458500Y+2920480D01*
X+4426750Y+2950960D01*
X+4426750Y+2981440D01*
X+4458500Y+3011920D01*
X+4506125Y+3011920D01*
X+4522000Y+2996680D01*
X+4569625Y+2996680D02*
X+4585500Y+3011920D01*
X+4633125Y+3011920D01*
X+4649000Y+2996680D01*
X+4649000Y+2981440D01*
X+4633125Y+2966200D01*
X+4649000Y+2950960D01*
X+4649000Y+2935720D01*
X+4633125Y+2920480D01*
X+4585500Y+2920480D01*
X+4569625Y+2935720D01*
X+4601375Y+2966200D02*
X+4633125Y+2966200D01*
D73*
X+2797500Y+2820000D02*
X+2797457Y+2821039D01*
X+2797105Y+2823118D01*
X+2796368Y+2825197D01*
X+2795164Y+2827276D01*
X+2793323Y+2829326D01*
X+2791244Y+2830829D01*
X+2789165Y+2831786D01*
X+2787086Y+2832325D01*
X+2785007Y+2832500D01*
X+2785000Y+2832500D01*
X+2772500Y+2820000D02*
X+2772543Y+2821039D01*
X+2772895Y+2823118D01*
X+2773632Y+2825197D01*
X+2774836Y+2827276D01*
X+2776677Y+2829326D01*
X+2778756Y+2830829D01*
X+2780835Y+2831786D01*
X+2782914Y+2832325D01*
X+2784993Y+2832500D01*
X+2785000Y+2832500D01*
X+2772500Y+2820000D02*
X+2772543Y+2818961D01*
X+2772895Y+2816882D01*
X+2773632Y+2814803D01*
X+2774836Y+2812724D01*
X+2776677Y+2810674D01*
X+2778756Y+2809171D01*
X+2780835Y+2808214D01*
X+2782914Y+2807675D01*
X+2784993Y+2807500D01*
X+2785000Y+2807500D01*
X+2797500Y+2820000D02*
X+2797457Y+2818961D01*
X+2797105Y+2816882D01*
X+2796368Y+2814803D01*
X+2795164Y+2812724D01*
X+2793323Y+2810674D01*
X+2791244Y+2809171D01*
X+2789165Y+2808214D01*
X+2787086Y+2807675D01*
X+2785007Y+2807500D01*
X+2785000Y+2807500D01*
D30*
X+2850000Y+2802500D02*
X+2850000Y+2870000D01*
X+3610000Y+2870000D01*
X+3610000Y+2802500D01*
X+2850000Y+2477500D02*
X+2850000Y+2410000D01*
X+3610000Y+2410000D01*
X+3610000Y+2477500D01*
D29*
X+3192000Y+2925720D02*
X+3176125Y+2910480D01*
X+3128500Y+2910480D01*
X+3096750Y+2940960D01*
X+3096750Y+2971440D01*
X+3128500Y+3001920D01*
X+3176125Y+3001920D01*
X+3192000Y+2986680D01*
X+3319000Y+2940960D02*
X+3223750Y+2940960D01*
X+3287250Y+3001920D01*
X+3287250Y+2910480D01*
D30*
X+3080000Y+3370000D02*
X+3160000Y+3370000D01*
D29*
X+3039520Y+3243000D02*
X+2948080Y+3243000D01*
X+2948080Y+3322375D01*
X+2963320Y+3338250D01*
X+2978560Y+3338250D01*
X+2993800Y+3322375D01*
X+2993800Y+3243000D01*
X+2993800Y+3322375D02*
X+3009040Y+3338250D01*
X+3039520Y+3338250D01*
X+2978560Y+3401750D02*
X+2948080Y+3433500D01*
X+3039520Y+3433500D01*
D30*
X+3100000Y+4730000D02*
X+3180000Y+4730000D01*
D29*
X+3059520Y+4603000D02*
X+2968080Y+4603000D01*
X+2968080Y+4682375D01*
X+2983320Y+4698250D01*
X+2998560Y+4698250D01*
X+3013800Y+4682375D01*
X+3013800Y+4603000D01*
X+3013800Y+4682375D02*
X+3029040Y+4698250D01*
X+3059520Y+4698250D01*
X+2983320Y+4745875D02*
X+2968080Y+4761750D01*
X+2968080Y+4809375D01*
X+2983320Y+4825250D01*
X+2998560Y+4825250D01*
X+3013800Y+4809375D01*
X+3013800Y+4761750D01*
X+3029040Y+4745875D01*
X+3059520Y+4745875D01*
X+3059520Y+4825250D01*
X+2899520Y+5089500D02*
X+2808080Y+5089500D01*
X+2808080Y+5168875D01*
X+2823320Y+5184750D01*
X+2838560Y+5184750D01*
X+2853800Y+5168875D01*
X+2853800Y+5089500D01*
X+2853800Y+5168875D02*
X+2869040Y+5184750D01*
X+2899520Y+5184750D01*
X+2808080Y+5216500D02*
X+2853800Y+5216500D01*
X+2899520Y+5264125D01*
X+2853800Y+5311750D01*
X+2808080Y+5311750D01*
X+2823320Y+5359375D02*
X+2808080Y+5375250D01*
X+2808080Y+5422875D01*
X+2823320Y+5438750D01*
X+2838560Y+5438750D01*
X+2853800Y+5422875D01*
X+2853800Y+5375250D01*
X+2869040Y+5359375D01*
X+2899520Y+5359375D01*
X+2899520Y+5438750D01*
X+8156000Y+6271000D02*
X+8283000Y+6271000D01*
X+7775000Y+6271000D02*
X+7902000Y+6271000D01*
X+8029000Y+6144000D02*
X+8054876Y+6146436D01*
X+8078848Y+6153485D01*
X+8100438Y+6164762D01*
X+8119170Y+6179878D01*
X+8134569Y+6198446D01*
X+8146158Y+6220081D01*
X+8153460Y+6244394D01*
X+8156000Y+6271000D01*
X+8029000Y+6144000D02*
X+8002394Y+6146436D01*
X+7978081Y+6153485D01*
X+7956446Y+6164762D01*
X+7937878Y+6179878D01*
X+7922762Y+6198446D01*
X+7911485Y+6220081D01*
X+7904436Y+6244394D01*
X+7902000Y+6271000D01*
X+7775000Y+6271000D02*
X+7775000Y+4493000D01*
X+8283000Y+4493000D01*
X+8283000Y+6271000D01*
X+7902000Y+6403080D02*
X+7902000Y+6326880D01*
X+7917875Y+6311640D01*
X+7981375Y+6311640D01*
X+7997250Y+6326880D01*
X+7997250Y+6403080D01*
X+8044875Y+6387840D02*
X+8060750Y+6403080D01*
X+8108375Y+6403080D01*
X+8124250Y+6387840D01*
X+8124250Y+6372600D01*
X+8108375Y+6357360D01*
X+8124250Y+6342120D01*
X+8124250Y+6326880D01*
X+8108375Y+6311640D01*
X+8060750Y+6311640D01*
X+8044875Y+6326880D01*
X+8076625Y+6357360D02*
X+8108375Y+6357360D01*
X+6432000Y+4573000D02*
X+6305000Y+4573000D01*
X+6813000Y+4573000D02*
X+6686000Y+4573000D01*
X+6559000Y+4700000D02*
X+6533124Y+4697564D01*
X+6509152Y+4690515D01*
X+6487562Y+4679238D01*
X+6468830Y+4664122D01*
X+6453431Y+4645554D01*
X+6441842Y+4623919D01*
X+6434540Y+4599606D01*
X+6432000Y+4573000D01*
X+6559000Y+4700000D02*
X+6585606Y+4697564D01*
X+6609919Y+4690515D01*
X+6631554Y+4679238D01*
X+6650122Y+4664122D01*
X+6665238Y+4645554D01*
X+6676515Y+4623919D01*
X+6683564Y+4599606D01*
X+6686000Y+4573000D01*
X+6813000Y+4573000D02*
X+6813000Y+6351000D01*
X+6305000Y+6351000D01*
X+6305000Y+4573000D01*
X+6432000Y+4532360D02*
X+6432000Y+4456160D01*
X+6447875Y+4440920D01*
X+6511375Y+4440920D01*
X+6527250Y+4456160D01*
X+6527250Y+4532360D01*
X+6654250Y+4471400D02*
X+6559000Y+4471400D01*
X+6622500Y+4532360D01*
X+6622500Y+4440920D01*
D30*
X+6650000Y+3870000D02*
X+6650000Y+3950000D01*
D29*
X+6523000Y+3738080D02*
X+6523000Y+3829520D01*
X+6602375Y+3829520D01*
X+6618250Y+3814280D01*
X+6618250Y+3799040D01*
X+6602375Y+3783800D01*
X+6523000Y+3783800D01*
X+6602375Y+3783800D02*
X+6618250Y+3768560D01*
X+6618250Y+3738080D01*
X+6665875Y+3814280D02*
X+6681750Y+3829520D01*
X+6729375Y+3829520D01*
X+6745250Y+3814280D01*
X+6745250Y+3799040D01*
X+6729375Y+3783800D01*
X+6745250Y+3768560D01*
X+6745250Y+3753320D01*
X+6729375Y+3738080D01*
X+6681750Y+3738080D01*
X+6665875Y+3753320D01*
X+6697625Y+3783800D02*
X+6729375Y+3783800D01*
D30*
X+7200000Y+3860000D02*
X+7200000Y+3940000D01*
D29*
X+7073000Y+3728080D02*
X+7073000Y+3819520D01*
X+7152375Y+3819520D01*
X+7168250Y+3804280D01*
X+7168250Y+3789040D01*
X+7152375Y+3773800D01*
X+7073000Y+3773800D01*
X+7152375Y+3773800D02*
X+7168250Y+3758560D01*
X+7168250Y+3728080D01*
X+7295250Y+3758560D02*
X+7200000Y+3758560D01*
X+7263500Y+3819520D01*
X+7263500Y+3728080D01*
D73*
X+6432500Y+3105000D02*
X+6432457Y+3106039D01*
X+6432105Y+3108118D01*
X+6431368Y+3110197D01*
X+6430164Y+3112276D01*
X+6428323Y+3114326D01*
X+6426244Y+3115829D01*
X+6424165Y+3116786D01*
X+6422086Y+3117325D01*
X+6420007Y+3117500D01*
X+6420000Y+3117500D01*
X+6407500Y+3105000D02*
X+6407543Y+3106039D01*
X+6407895Y+3108118D01*
X+6408632Y+3110197D01*
X+6409836Y+3112276D01*
X+6411677Y+3114326D01*
X+6413756Y+3115829D01*
X+6415835Y+3116786D01*
X+6417914Y+3117325D01*
X+6419993Y+3117500D01*
X+6420000Y+3117500D01*
X+6407500Y+3105000D02*
X+6407543Y+3103961D01*
X+6407895Y+3101882D01*
X+6408632Y+3099803D01*
X+6409836Y+3097724D01*
X+6411677Y+3095674D01*
X+6413756Y+3094171D01*
X+6415835Y+3093214D01*
X+6417914Y+3092675D01*
X+6419993Y+3092500D01*
X+6420000Y+3092500D01*
X+6432500Y+3105000D02*
X+6432457Y+3103961D01*
X+6432105Y+3101882D01*
X+6431368Y+3099803D01*
X+6430164Y+3097724D01*
X+6428323Y+3095674D01*
X+6426244Y+3094171D01*
X+6424165Y+3093214D01*
X+6422086Y+3092675D01*
X+6420007Y+3092500D01*
X+6420000Y+3092500D01*
D30*
X+6755000Y+3215000D02*
X+6755000Y+3275000D01*
X+6445000Y+3275000D01*
X+6445000Y+3215000D01*
X+6755000Y+3215000D01*
D29*
X+6303560Y+3118000D02*
X+6273080Y+3149750D01*
X+6273080Y+3181500D01*
X+6303560Y+3213250D01*
X+6334040Y+3213250D01*
X+6364520Y+3181500D01*
X+6364520Y+3149750D01*
X+6334040Y+3118000D01*
X+6303560Y+3118000D01*
X+6334040Y+3181500D02*
X+6364520Y+3213250D01*
X+6303560Y+3276750D02*
X+6273080Y+3308500D01*
X+6364520Y+3308500D01*
D73*
X+7222500Y+3065000D02*
X+7222457Y+3066039D01*
X+7222105Y+3068118D01*
X+7221368Y+3070197D01*
X+7220164Y+3072276D01*
X+7218323Y+3074326D01*
X+7216244Y+3075829D01*
X+7214165Y+3076786D01*
X+7212086Y+3077325D01*
X+7210007Y+3077500D01*
X+7210000Y+3077500D01*
X+7197500Y+3065000D02*
X+7197543Y+3066039D01*
X+7197895Y+3068118D01*
X+7198632Y+3070197D01*
X+7199836Y+3072276D01*
X+7201677Y+3074326D01*
X+7203756Y+3075829D01*
X+7205835Y+3076786D01*
X+7207914Y+3077325D01*
X+7209993Y+3077500D01*
X+7210000Y+3077500D01*
X+7197500Y+3065000D02*
X+7197543Y+3063961D01*
X+7197895Y+3061882D01*
X+7198632Y+3059803D01*
X+7199836Y+3057724D01*
X+7201677Y+3055674D01*
X+7203756Y+3054171D01*
X+7205835Y+3053214D01*
X+7207914Y+3052675D01*
X+7209993Y+3052500D01*
X+7210000Y+3052500D01*
X+7222500Y+3065000D02*
X+7222457Y+3063961D01*
X+7222105Y+3061882D01*
X+7221368Y+3059803D01*
X+7220164Y+3057724D01*
X+7218323Y+3055674D01*
X+7216244Y+3054171D01*
X+7214165Y+3053214D01*
X+7212086Y+3052675D01*
X+7210007Y+3052500D01*
X+7210000Y+3052500D01*
D30*
X+7545000Y+3175000D02*
X+7545000Y+3235000D01*
X+7235000Y+3235000D01*
X+7235000Y+3175000D01*
X+7545000Y+3175000D01*
D29*
X+7093560Y+3078000D02*
X+7063080Y+3109750D01*
X+7063080Y+3141500D01*
X+7093560Y+3173250D01*
X+7124040Y+3173250D01*
X+7154520Y+3141500D01*
X+7154520Y+3109750D01*
X+7124040Y+3078000D01*
X+7093560Y+3078000D01*
X+7124040Y+3141500D02*
X+7154520Y+3173250D01*
X+7078320Y+3220875D02*
X+7063080Y+3236750D01*
X+7063080Y+3284375D01*
X+7078320Y+3300250D01*
X+7093560Y+3300250D01*
X+7108800Y+3284375D01*
X+7108800Y+3236750D01*
X+7124040Y+3220875D01*
X+7154520Y+3220875D01*
X+7154520Y+3300250D01*
X+6493000Y+2223000D02*
X+6747000Y+2223000D01*
X+6747000Y+2477000D01*
X+6493000Y+2477000D01*
X+6493000Y+2223000D01*
X+6493000Y+2548120D02*
X+6493000Y+2532880D01*
X+6508875Y+2517640D01*
X+6572375Y+2517640D01*
X+6588250Y+2532880D01*
X+6588250Y+2609080D01*
X+6651750Y+2578600D02*
X+6683500Y+2609080D01*
X+6683500Y+2517640D01*
D73*
X+8362500Y+4270000D02*
X+8362457Y+4271039D01*
X+8362105Y+4273118D01*
X+8361368Y+4275197D01*
X+8360164Y+4277276D01*
X+8358323Y+4279326D01*
X+8356244Y+4280829D01*
X+8354165Y+4281786D01*
X+8352086Y+4282325D01*
X+8350007Y+4282500D01*
X+8350000Y+4282500D01*
X+8337500Y+4270000D02*
X+8337543Y+4271039D01*
X+8337895Y+4273118D01*
X+8338632Y+4275197D01*
X+8339836Y+4277276D01*
X+8341677Y+4279326D01*
X+8343756Y+4280829D01*
X+8345835Y+4281786D01*
X+8347914Y+4282325D01*
X+8349993Y+4282500D01*
X+8350000Y+4282500D01*
X+8337500Y+4270000D02*
X+8337543Y+4268961D01*
X+8337895Y+4266882D01*
X+8338632Y+4264803D01*
X+8339836Y+4262724D01*
X+8341677Y+4260674D01*
X+8343756Y+4259171D01*
X+8345835Y+4258214D01*
X+8347914Y+4257675D01*
X+8349993Y+4257500D01*
X+8350000Y+4257500D01*
X+8362500Y+4270000D02*
X+8362457Y+4268961D01*
X+8362105Y+4266882D01*
X+8361368Y+4264803D01*
X+8360164Y+4262724D01*
X+8358323Y+4260674D01*
X+8356244Y+4259171D01*
X+8354165Y+4258214D01*
X+8352086Y+4257675D01*
X+8350007Y+4257500D01*
X+8350000Y+4257500D01*
D30*
X+8335000Y+4205000D02*
X+8380000Y+4205000D01*
X+8380000Y+3645000D01*
X+8335000Y+3645000D01*
X+8045000Y+4205000D02*
X+8000000Y+4205000D01*
X+8000000Y+3645000D01*
X+8045000Y+3645000D01*
D29*
X+8511920Y+3804250D02*
X+8420480Y+3804250D01*
X+8420480Y+3867750D01*
X+8450960Y+3899500D01*
X+8481440Y+3899500D01*
X+8511920Y+3867750D01*
X+8511920Y+3804250D01*
X+8435720Y+3947125D02*
X+8420480Y+3963000D01*
X+8420480Y+4010625D01*
X+8435720Y+4026500D01*
X+8450960Y+4026500D01*
X+8466200Y+4010625D01*
X+8481440Y+4026500D01*
X+8496680Y+4026500D01*
X+8511920Y+4010625D01*
X+8511920Y+3963000D01*
X+8496680Y+3947125D01*
X+8466200Y+3978875D02*
X+8466200Y+4010625D01*
D73*
X+8372500Y+3270000D02*
X+8372457Y+3271039D01*
X+8372105Y+3273118D01*
X+8371368Y+3275197D01*
X+8370164Y+3277276D01*
X+8368323Y+3279326D01*
X+8366244Y+3280829D01*
X+8364165Y+3281786D01*
X+8362086Y+3282325D01*
X+8360007Y+3282500D01*
X+8360000Y+3282500D01*
X+8347500Y+3270000D02*
X+8347543Y+3271039D01*
X+8347895Y+3273118D01*
X+8348632Y+3275197D01*
X+8349836Y+3277276D01*
X+8351677Y+3279326D01*
X+8353756Y+3280829D01*
X+8355835Y+3281786D01*
X+8357914Y+3282325D01*
X+8359993Y+3282500D01*
X+8360000Y+3282500D01*
X+8347500Y+3270000D02*
X+8347543Y+3268961D01*
X+8347895Y+3266882D01*
X+8348632Y+3264803D01*
X+8349836Y+3262724D01*
X+8351677Y+3260674D01*
X+8353756Y+3259171D01*
X+8355835Y+3258214D01*
X+8357914Y+3257675D01*
X+8359993Y+3257500D01*
X+8360000Y+3257500D01*
X+8372500Y+3270000D02*
X+8372457Y+3268961D01*
X+8372105Y+3266882D01*
X+8371368Y+3264803D01*
X+8370164Y+3262724D01*
X+8368323Y+3260674D01*
X+8366244Y+3259171D01*
X+8364165Y+3258214D01*
X+8362086Y+3257675D01*
X+8360007Y+3257500D01*
X+8360000Y+3257500D01*
D30*
X+8345000Y+3205000D02*
X+8390000Y+3205000D01*
X+8390000Y+2645000D01*
X+8345000Y+2645000D01*
X+8055000Y+3205000D02*
X+8010000Y+3205000D01*
X+8010000Y+2645000D01*
X+8055000Y+2645000D01*
D29*
X+8521920Y+2804250D02*
X+8430480Y+2804250D01*
X+8430480Y+2867750D01*
X+8460960Y+2899500D01*
X+8491440Y+2899500D01*
X+8521920Y+2867750D01*
X+8521920Y+2804250D01*
X+8491440Y+3026500D02*
X+8491440Y+2931250D01*
X+8430480Y+2994750D01*
X+8521920Y+2994750D01*
X+8980000Y+4871000D02*
X+11230000Y+4871000D01*
X+11230000Y+6511000D01*
X+8980000Y+6511000D01*
X+8980000Y+4871000D01*
X+9914500Y+6551640D02*
X+9914500Y+6643080D01*
X+9993875Y+6643080D01*
X+10009750Y+6627840D01*
X+10009750Y+6612600D01*
X+9993875Y+6597360D01*
X+9914500Y+6597360D01*
X+9993875Y+6597360D02*
X+10009750Y+6582120D01*
X+10009750Y+6551640D01*
X+10041500Y+6643080D02*
X+10041500Y+6551640D01*
X+10136750Y+6551640D01*
X+10200250Y+6612600D02*
X+10232000Y+6643080D01*
X+10232000Y+6551640D01*
X+8980000Y+3131000D02*
X+11230000Y+3131000D01*
X+11230000Y+4771000D01*
X+8980000Y+4771000D01*
X+8980000Y+3131000D01*
X+9724500Y+2971640D02*
X+9724500Y+3063080D01*
X+9803875Y+3063080D01*
X+9819750Y+3047840D01*
X+9819750Y+3032600D01*
X+9803875Y+3017360D01*
X+9724500Y+3017360D01*
X+9803875Y+3017360D02*
X+9819750Y+3002120D01*
X+9819750Y+2971640D01*
X+9851500Y+3063080D02*
X+9851500Y+2971640D01*
X+9946750Y+2971640D01*
X+9994375Y+3047840D02*
X+10010250Y+3063080D01*
X+10057875Y+3063080D01*
X+10073750Y+3047840D01*
X+10073750Y+3032600D01*
X+10057875Y+3017360D01*
X+10010250Y+3017360D01*
X+9994375Y+3002120D01*
X+9994375Y+2971640D01*
X+10073750Y+2971640D01*
X+9196000Y+1796000D02*
X+10466000Y+1796000D01*
X+10466000Y+2304000D01*
X+9196000Y+2304000D01*
X+9196000Y+1796000D01*
X+10690120Y+2100750D02*
X+10705360Y+2084875D01*
X+10705360Y+2037250D01*
X+10674880Y+2005500D01*
X+10644400Y+2005500D01*
X+10613920Y+2037250D01*
X+10613920Y+2084875D01*
X+10629160Y+2100750D01*
X+10613920Y+2132500D02*
X+10613920Y+2227750D01*
X+10613920Y+2180125D02*
X+10705360Y+2180125D01*
X+10705360Y+2259500D02*
X+10613920Y+2259500D01*
X+10613920Y+2338875D01*
X+10629160Y+2354750D01*
X+10644400Y+2354750D01*
X+10659640Y+2338875D01*
X+10659640Y+2259500D01*
X+10659640Y+2338875D02*
X+10674880Y+2354750D01*
X+10705360Y+2354750D01*
X+10613920Y+2386500D02*
X+10705360Y+2386500D01*
X+10705360Y+2481750D01*
X+10644400Y+2545250D02*
X+10613920Y+2577000D01*
X+10705360Y+2577000D01*
X+10659640Y+2656375D02*
X+10659640Y+2735750D01*
X+10629160Y+2783375D02*
X+10613920Y+2799250D01*
X+10613920Y+2846875D01*
X+10629160Y+2862750D01*
X+10644400Y+2862750D01*
X+10659640Y+2846875D01*
X+10659640Y+2799250D01*
X+10674880Y+2783375D01*
X+10705360Y+2783375D01*
X+10705360Y+2862750D01*
X+9234000Y+7326000D02*
X+10504000Y+7326000D01*
X+10504000Y+7834000D01*
X+9234000Y+7834000D01*
X+9234000Y+7326000D01*
X+9518390Y+7139520D02*
X+9502515Y+7124280D01*
X+9454890Y+7124280D01*
X+9423140Y+7154760D01*
X+9423140Y+7185240D01*
X+9454890Y+7215720D01*
X+9502515Y+7215720D01*
X+9518390Y+7200480D01*
X+9550140Y+7185240D02*
X+9581890Y+7215720D01*
X+9613640Y+7215720D01*
X+9645390Y+7185240D01*
X+9645390Y+7154760D01*
X+9613640Y+7124280D01*
X+9581890Y+7124280D01*
X+9550140Y+7154760D01*
X+9550140Y+7185240D01*
X+9677140Y+7124280D02*
X+9677140Y+7215720D01*
X+9724765Y+7170000D01*
X+9772390Y+7215720D01*
X+9772390Y+7124280D01*
X+9931140Y+7124280D02*
X+9931140Y+7215720D01*
X+10010515Y+7215720D01*
X+10026390Y+7200480D01*
X+10026390Y+7185240D01*
X+10010515Y+7170000D01*
X+9931140Y+7170000D01*
X+10074015Y+7215720D02*
X+10137515Y+7215720D01*
X+10105765Y+7215720D02*
X+10105765Y+7124280D01*
X+10074015Y+7124280D02*
X+10137515Y+7124280D01*
X+10185140Y+7124280D02*
X+10185140Y+7215720D01*
X+10280390Y+7124280D01*
X+10280390Y+7215720D01*
X+5700000Y+7250000D02*
X+7500000Y+7250000D01*
X+7500000Y+7950000D01*
X+5700000Y+7950000D01*
X+5700000Y+7250000D01*
X+7524375Y+7702080D02*
X+7587875Y+7702080D01*
X+7556125Y+7702080D02*
X+7556125Y+7610640D01*
X+7524375Y+7610640D02*
X+7587875Y+7610640D01*
X+7635500Y+7610640D02*
X+7635500Y+7702080D01*
X+7730750Y+7610640D01*
X+7730750Y+7702080D01*
X+7762500Y+7610640D02*
X+7762500Y+7702080D01*
X+7841875Y+7702080D01*
X+7857750Y+7686840D01*
X+7857750Y+7671600D01*
X+7841875Y+7656360D01*
X+7762500Y+7656360D01*
X+7889500Y+7702080D02*
X+7889500Y+7625880D01*
X+7905375Y+7610640D01*
X+7968875Y+7610640D01*
X+7984750Y+7625880D01*
X+7984750Y+7702080D01*
X+8016500Y+7702080D02*
X+8111750Y+7702080D01*
X+8064125Y+7702080D02*
X+8064125Y+7610640D01*
X+8270500Y+7610640D02*
X+8270500Y+7702080D01*
X+8349875Y+7702080D01*
X+8365750Y+7686840D01*
X+8365750Y+7671600D01*
X+8349875Y+7656360D01*
X+8270500Y+7656360D01*
X+8413375Y+7702080D02*
X+8476875Y+7702080D01*
X+8445125Y+7702080D02*
X+8445125Y+7610640D01*
X+8413375Y+7610640D02*
X+8476875Y+7610640D01*
X+8524500Y+7610640D02*
X+8524500Y+7702080D01*
X+8619750Y+7610640D01*
X+8619750Y+7702080D01*
X+1980000Y+1690000D02*
X+11300000Y+1690000D01*
X+11300000Y+8020000D01*
X+1980000Y+8020000D01*
X+1980000Y+1690000D01*
X+3019520Y+3829500D02*
X+2928080Y+3829500D01*
X+2928080Y+3908875D01*
X+2943320Y+3924750D01*
X+2958560Y+3924750D01*
X+2973800Y+3908875D01*
X+2973800Y+3829500D01*
X+2973800Y+3908875D02*
X+2989040Y+3924750D01*
X+3019520Y+3924750D01*
X+2928080Y+3956500D02*
X+2973800Y+3956500D01*
X+3019520Y+4004125D01*
X+2973800Y+4051750D01*
X+2928080Y+4051750D01*
X+2958560Y+4115250D02*
X+2928080Y+4147000D01*
X+3019520Y+4147000D01*
X+2950000Y+7254459D02*
X+3850000Y+7254459D01*
X+3850000Y+7954459D01*
X+2950000Y+7954459D01*
X+2950000Y+7254459D01*
X+4060250Y+7633339D02*
X+4092000Y+7663819D01*
X+4092000Y+7572379D01*
X+4171375Y+7648579D02*
X+4187250Y+7663819D01*
X+4234875Y+7663819D01*
X+4250750Y+7648579D01*
X+4250750Y+7633339D01*
X+4234875Y+7618099D01*
X+4187250Y+7618099D01*
X+4171375Y+7602859D01*
X+4171375Y+7572379D01*
X+4250750Y+7572379D01*
X+4282500Y+7663819D02*
X+4282500Y+7618099D01*
X+4330125Y+7572379D01*
X+4377750Y+7618099D01*
X+4377750Y+7663819D01*
X+4409500Y+7557139D02*
X+4504750Y+7557139D01*
X+4552375Y+7663819D02*
X+4615875Y+7663819D01*
X+4584125Y+7663819D02*
X+4584125Y+7572379D01*
X+4552375Y+7572379D02*
X+4615875Y+7572379D01*
X+4663500Y+7572379D02*
X+4663500Y+7663819D01*
X+4758750Y+7572379D01*
X+4758750Y+7663819D01*
X+4790500Y+7572379D02*
X+4790500Y+7663819D01*
X+4869875Y+7663819D01*
X+4885750Y+7648579D01*
X+4885750Y+7633339D01*
X+4869875Y+7618099D01*
X+4790500Y+7618099D01*
X+4917500Y+7663819D02*
X+4917500Y+7587619D01*
X+4933375Y+7572379D01*
X+4996875Y+7572379D01*
X+5012750Y+7587619D01*
X+5012750Y+7663819D01*
X+5044500Y+7663819D02*
X+5139750Y+7663819D01*
X+5092125Y+7663819D02*
X+5092125Y+7572379D01*
M02*
