G04 PROTEUS RS274X GERBER FILE*
%FSLAX45Y45*%
%MOMM*%
G01*
%ADD29C,0.203200*%
%ADD48C,1.375660*%
%ADD49C,0.092560*%
%ADD50C,0.050000*%
%ADD51C,0.238330*%
%ADD52C,0.305000*%
%ADD53C,0.093000*%
%ADD54C,0.050800*%
%ADD55C,0.166370*%
%ADD56C,0.533400*%
%ADD57C,0.128330*%
%ADD58C,0.091440*%
%ADD59C,0.567580*%
%ADD60C,0.161290*%
%ADD61C,0.182030*%
%ADD62C,0.092030*%
%TD.AperFunction*%
D29*
X+2029840Y+1699840D02*
X+8908160Y+1699840D01*
X+8908160Y+7054160D01*
X+2029840Y+7054160D01*
X+2029840Y+1699840D01*
D48*
X+3267938Y+3964300D02*
X+3267938Y+4514566D01*
X+3543070Y+4789699D01*
X+3818203Y+4789699D01*
X+4093336Y+4514566D01*
X+4093336Y+3964300D01*
X+3267938Y+4239433D02*
X+4093336Y+4239433D01*
X+4368469Y+3964300D02*
X+4368469Y+4789699D01*
X+5056300Y+4789699D01*
X+5193867Y+4652132D01*
X+5193867Y+4514566D01*
X+5056300Y+4377000D01*
X+4368469Y+4377000D01*
X+5056300Y+4377000D02*
X+5193867Y+4239433D01*
X+5193867Y+3964300D01*
X+5469000Y+3964300D02*
X+5469000Y+4789699D01*
X+6019265Y+4789699D01*
X+6294398Y+4514566D01*
X+6294398Y+4239433D01*
X+6019265Y+3964300D01*
X+5469000Y+3964300D01*
X+6844663Y+4514566D02*
X+7119796Y+4789699D01*
X+7119796Y+3964300D01*
D29*
X+3624880Y+4738480D02*
X+4285280Y+4738480D01*
X+4285280Y+5571600D01*
X+3624880Y+5571600D01*
X+3624880Y+4738480D01*
D49*
X+3927310Y+4858824D02*
X+3982851Y+4858824D01*
X+3982851Y+4914364D01*
X+3982851Y+4932878D02*
X+3927310Y+4932878D01*
X+3955080Y+4960648D01*
X+3927310Y+4988418D01*
X+3982851Y+4988418D01*
X+3936567Y+5016188D02*
X+3927310Y+5025445D01*
X+3927310Y+5053215D01*
X+3936567Y+5062472D01*
X+3945824Y+5062472D01*
X+3955080Y+5053215D01*
X+3964337Y+5062472D01*
X+3973594Y+5062472D01*
X+3982851Y+5053215D01*
X+3982851Y+5025445D01*
X+3973594Y+5016188D01*
X+3955080Y+5034702D02*
X+3955080Y+5053215D01*
X+3945824Y+5099499D02*
X+3927310Y+5118013D01*
X+3982851Y+5118013D01*
X+3927310Y+5164296D02*
X+3927310Y+5210580D01*
X+3936567Y+5210580D01*
X+3982851Y+5164296D01*
X+3992108Y+5229094D02*
X+3992108Y+5284634D01*
X+3927310Y+5312404D02*
X+3927310Y+5358688D01*
X+3936567Y+5358688D01*
X+3982851Y+5312404D01*
X+3927310Y+5377202D02*
X+3955080Y+5377202D01*
X+3982851Y+5404972D01*
X+3955080Y+5432742D01*
X+3927310Y+5432742D01*
D29*
X+3624880Y+3308480D02*
X+4285280Y+3308480D01*
X+4285280Y+4141600D01*
X+3624880Y+4141600D01*
X+3624880Y+3308480D01*
D49*
X+3927310Y+3428824D02*
X+3982851Y+3428824D01*
X+3982851Y+3484364D01*
X+3982851Y+3502878D02*
X+3927310Y+3502878D01*
X+3955080Y+3530648D01*
X+3927310Y+3558418D01*
X+3982851Y+3558418D01*
X+3936567Y+3586188D02*
X+3927310Y+3595445D01*
X+3927310Y+3623215D01*
X+3936567Y+3632472D01*
X+3945824Y+3632472D01*
X+3955080Y+3623215D01*
X+3964337Y+3632472D01*
X+3973594Y+3632472D01*
X+3982851Y+3623215D01*
X+3982851Y+3595445D01*
X+3973594Y+3586188D01*
X+3955080Y+3604702D02*
X+3955080Y+3623215D01*
X+3945824Y+3669499D02*
X+3927310Y+3688013D01*
X+3982851Y+3688013D01*
X+3927310Y+3734296D02*
X+3927310Y+3780580D01*
X+3936567Y+3780580D01*
X+3982851Y+3734296D01*
X+3992108Y+3799094D02*
X+3992108Y+3854634D01*
X+3927310Y+3928688D02*
X+3927310Y+3882404D01*
X+3945824Y+3882404D01*
X+3945824Y+3919431D01*
X+3955080Y+3928688D01*
X+3973594Y+3928688D01*
X+3982851Y+3919431D01*
X+3982851Y+3891661D01*
X+3973594Y+3882404D01*
X+3927310Y+3947202D02*
X+3955080Y+3947202D01*
X+3982851Y+3974972D01*
X+3955080Y+4002742D01*
X+3927310Y+4002742D01*
D50*
X+4415000Y+4090000D02*
X+4415000Y+3380000D01*
X+4845000Y+3380000D01*
X+4845000Y+4090000D01*
X+4415000Y+4090000D01*
X+4680000Y+3735000D02*
X+4580000Y+3735000D01*
X+4630000Y+3685000D02*
X+4630000Y+3785000D01*
D51*
X+4701500Y+3544334D02*
X+4558500Y+3544334D01*
X+4558500Y+3639667D01*
X+4606167Y+3687333D01*
X+4653833Y+3687333D01*
X+4701500Y+3639667D01*
X+4701500Y+3544334D01*
X+4606167Y+3782666D02*
X+4558500Y+3830333D01*
X+4701500Y+3830333D01*
D50*
X+4675000Y+5520000D02*
X+4675000Y+4810000D01*
X+5105000Y+4810000D01*
X+5105000Y+5520000D01*
X+4675000Y+5520000D01*
X+4940000Y+5165000D02*
X+4840000Y+5165000D01*
X+4890000Y+5115000D02*
X+4890000Y+5215000D01*
D51*
X+4961500Y+4974334D02*
X+4818500Y+4974334D01*
X+4818500Y+5069667D01*
X+4866167Y+5117333D01*
X+4913833Y+5117333D01*
X+4961500Y+5069667D01*
X+4961500Y+4974334D01*
X+4842333Y+5188833D02*
X+4818500Y+5212666D01*
X+4818500Y+5284166D01*
X+4842333Y+5307999D01*
X+4866167Y+5307999D01*
X+4890000Y+5284166D01*
X+4890000Y+5212666D01*
X+4913833Y+5188833D01*
X+4961500Y+5188833D01*
X+4961500Y+5307999D01*
D50*
X+4125000Y+5845000D02*
X+5035000Y+5845000D01*
X+5035000Y+6355000D01*
X+4125000Y+6355000D01*
X+4125000Y+5845000D01*
X+4580000Y+6150000D02*
X+4580000Y+6050000D01*
X+4630000Y+6100000D02*
X+4530000Y+6100000D01*
D52*
X+4519000Y+6039000D02*
X+4488500Y+6008500D01*
X+4397000Y+6008500D01*
X+4336000Y+6069500D01*
X+4336000Y+6130500D01*
X+4397000Y+6191500D01*
X+4488500Y+6191500D01*
X+4519000Y+6161000D01*
X+4641000Y+6130500D02*
X+4702000Y+6191500D01*
X+4702000Y+6008500D01*
D50*
X+2655000Y+5845000D02*
X+3565000Y+5845000D01*
X+3565000Y+6355000D01*
X+2655000Y+6355000D01*
X+2655000Y+5845000D01*
X+3110000Y+6150000D02*
X+3110000Y+6050000D01*
X+3160000Y+6100000D02*
X+3060000Y+6100000D01*
D52*
X+3049000Y+6039000D02*
X+3018500Y+6008500D01*
X+2927000Y+6008500D01*
X+2866000Y+6069500D01*
X+2866000Y+6130500D01*
X+2927000Y+6191500D01*
X+3018500Y+6191500D01*
X+3049000Y+6161000D01*
X+3140500Y+6161000D02*
X+3171000Y+6191500D01*
X+3262500Y+6191500D01*
X+3293000Y+6161000D01*
X+3293000Y+6130500D01*
X+3262500Y+6100000D01*
X+3171000Y+6100000D01*
X+3140500Y+6069500D01*
X+3140500Y+6008500D01*
X+3293000Y+6008500D01*
D50*
X+4105000Y+2395000D02*
X+5015000Y+2395000D01*
X+5015000Y+2905000D01*
X+4105000Y+2905000D01*
X+4105000Y+2395000D01*
X+4560000Y+2700000D02*
X+4560000Y+2600000D01*
X+4610000Y+2650000D02*
X+4510000Y+2650000D01*
D52*
X+4499000Y+2589000D02*
X+4468500Y+2558500D01*
X+4377000Y+2558500D01*
X+4316000Y+2619500D01*
X+4316000Y+2680500D01*
X+4377000Y+2741500D01*
X+4468500Y+2741500D01*
X+4499000Y+2711000D01*
X+4590500Y+2711000D02*
X+4621000Y+2741500D01*
X+4712500Y+2741500D01*
X+4743000Y+2711000D01*
X+4743000Y+2680500D01*
X+4712500Y+2650000D01*
X+4743000Y+2619500D01*
X+4743000Y+2589000D01*
X+4712500Y+2558500D01*
X+4621000Y+2558500D01*
X+4590500Y+2589000D01*
X+4651500Y+2650000D02*
X+4712500Y+2650000D01*
D50*
X+2775000Y+2385000D02*
X+3685000Y+2385000D01*
X+3685000Y+2895000D01*
X+2775000Y+2895000D01*
X+2775000Y+2385000D01*
X+3230000Y+2690000D02*
X+3230000Y+2590000D01*
X+3280000Y+2640000D02*
X+3180000Y+2640000D01*
D52*
X+3169000Y+2579000D02*
X+3138500Y+2548500D01*
X+3047000Y+2548500D01*
X+2986000Y+2609500D01*
X+2986000Y+2670500D01*
X+3047000Y+2731500D01*
X+3138500Y+2731500D01*
X+3169000Y+2701000D01*
X+3413000Y+2609500D02*
X+3230000Y+2609500D01*
X+3352000Y+2731500D01*
X+3352000Y+2548500D01*
D50*
X+3195000Y+3215000D02*
X+3195000Y+3525000D01*
X+3045000Y+3525000D01*
X+3045000Y+3215000D01*
X+3195000Y+3215000D01*
X+3070000Y+3370000D02*
X+3170000Y+3370000D01*
X+3120000Y+3420000D02*
X+3120000Y+3320000D01*
D53*
X+3147900Y+3295600D02*
X+3092100Y+3295600D01*
X+3092100Y+3342100D01*
X+3101400Y+3351400D01*
X+3110700Y+3351400D01*
X+3120000Y+3342100D01*
X+3120000Y+3295600D01*
X+3120000Y+3342100D02*
X+3129300Y+3351400D01*
X+3147900Y+3351400D01*
X+3110700Y+3388600D02*
X+3092100Y+3407200D01*
X+3147900Y+3407200D01*
D50*
X+3215000Y+4575000D02*
X+3215000Y+4885000D01*
X+3065000Y+4885000D01*
X+3065000Y+4575000D01*
X+3215000Y+4575000D01*
X+3090000Y+4730000D02*
X+3190000Y+4730000D01*
X+3140000Y+4780000D02*
X+3140000Y+4680000D01*
D53*
X+3167900Y+4655600D02*
X+3112100Y+4655600D01*
X+3112100Y+4702100D01*
X+3121400Y+4711400D01*
X+3130700Y+4711400D01*
X+3140000Y+4702100D01*
X+3140000Y+4655600D01*
X+3140000Y+4702100D02*
X+3149300Y+4711400D01*
X+3167900Y+4711400D01*
X+3121400Y+4739300D02*
X+3112100Y+4748600D01*
X+3112100Y+4776500D01*
X+3121400Y+4785800D01*
X+3130700Y+4785800D01*
X+3140000Y+4776500D01*
X+3140000Y+4748600D01*
X+3149300Y+4739300D01*
X+3167900Y+4739300D01*
X+3167900Y+4785800D01*
D54*
X+2625200Y+4949800D02*
X+3234800Y+4949800D01*
X+3234800Y+5610200D01*
X+2625200Y+5610200D01*
X+2625200Y+4949800D01*
D55*
X+2979911Y+5080356D02*
X+2880089Y+5080356D01*
X+2880089Y+5163541D01*
X+2896726Y+5180178D01*
X+2913363Y+5180178D01*
X+2930000Y+5163541D01*
X+2930000Y+5080356D01*
X+2930000Y+5163541D02*
X+2946637Y+5180178D01*
X+2979911Y+5180178D01*
X+2880089Y+5213452D02*
X+2930000Y+5213452D01*
X+2979911Y+5263363D01*
X+2930000Y+5313274D01*
X+2880089Y+5313274D01*
X+2896726Y+5363185D02*
X+2880089Y+5379822D01*
X+2880089Y+5429733D01*
X+2896726Y+5446370D01*
X+2913363Y+5446370D01*
X+2930000Y+5429733D01*
X+2930000Y+5379822D01*
X+2946637Y+5363185D01*
X+2979911Y+5363185D01*
X+2979911Y+5446370D01*
D29*
X+7584500Y+4482840D02*
X+8473500Y+4482840D01*
X+8473500Y+6281160D01*
X+7584500Y+6281160D01*
X+7584500Y+4482840D01*
D56*
X+7868980Y+4955280D02*
X+8135680Y+4955280D01*
X+8189020Y+5008620D01*
X+8189020Y+5221980D01*
X+8135680Y+5275320D01*
X+7868980Y+5275320D01*
X+7922320Y+5435340D02*
X+7868980Y+5488680D01*
X+7868980Y+5648700D01*
X+7922320Y+5702040D01*
X+7975660Y+5702040D01*
X+8029000Y+5648700D01*
X+8082340Y+5702040D01*
X+8135680Y+5702040D01*
X+8189020Y+5648700D01*
X+8189020Y+5488680D01*
X+8135680Y+5435340D01*
X+8029000Y+5542020D02*
X+8029000Y+5648700D01*
D29*
X+6114500Y+4562840D02*
X+7003500Y+4562840D01*
X+7003500Y+6361160D01*
X+6114500Y+6361160D01*
X+6114500Y+4562840D01*
D56*
X+6398980Y+5035280D02*
X+6665680Y+5035280D01*
X+6719020Y+5088620D01*
X+6719020Y+5301980D01*
X+6665680Y+5355320D01*
X+6398980Y+5355320D01*
X+6612340Y+5782040D02*
X+6612340Y+5462000D01*
X+6398980Y+5675360D01*
X+6719020Y+5675360D01*
D50*
X+6805000Y+3985000D02*
X+6495000Y+3985000D01*
X+6495000Y+3835000D01*
X+6805000Y+3835000D01*
X+6805000Y+3985000D01*
X+6650000Y+3860000D02*
X+6650000Y+3960000D01*
X+6600000Y+3910000D02*
X+6700000Y+3910000D01*
D53*
X+6575600Y+3882100D02*
X+6575600Y+3937900D01*
X+6622100Y+3937900D01*
X+6631400Y+3928600D01*
X+6631400Y+3919300D01*
X+6622100Y+3910000D01*
X+6575600Y+3910000D01*
X+6622100Y+3910000D02*
X+6631400Y+3900700D01*
X+6631400Y+3882100D01*
X+6659300Y+3928600D02*
X+6668600Y+3937900D01*
X+6696500Y+3937900D01*
X+6705800Y+3928600D01*
X+6705800Y+3919300D01*
X+6696500Y+3910000D01*
X+6705800Y+3900700D01*
X+6705800Y+3891400D01*
X+6696500Y+3882100D01*
X+6668600Y+3882100D01*
X+6659300Y+3891400D01*
X+6677900Y+3910000D02*
X+6696500Y+3910000D01*
D50*
X+7355000Y+3975000D02*
X+7045000Y+3975000D01*
X+7045000Y+3825000D01*
X+7355000Y+3825000D01*
X+7355000Y+3975000D01*
X+7200000Y+3850000D02*
X+7200000Y+3950000D01*
X+7150000Y+3900000D02*
X+7250000Y+3900000D01*
D53*
X+7125600Y+3872100D02*
X+7125600Y+3927900D01*
X+7172100Y+3927900D01*
X+7181400Y+3918600D01*
X+7181400Y+3909300D01*
X+7172100Y+3900000D01*
X+7125600Y+3900000D01*
X+7172100Y+3900000D02*
X+7181400Y+3890700D01*
X+7181400Y+3872100D01*
X+7255800Y+3890700D02*
X+7200000Y+3890700D01*
X+7237200Y+3927900D01*
X+7237200Y+3872100D01*
D50*
X+6780000Y+3055000D02*
X+6780000Y+3435000D01*
X+6420000Y+3435000D01*
X+6420000Y+3055000D01*
X+6780000Y+3055000D01*
X+6550000Y+3245000D02*
X+6650000Y+3245000D01*
X+6600000Y+3295000D02*
X+6600000Y+3195000D01*
D57*
X+6587167Y+3142334D02*
X+6561500Y+3168000D01*
X+6561500Y+3193667D01*
X+6587167Y+3219333D01*
X+6612833Y+3219333D01*
X+6638500Y+3193667D01*
X+6638500Y+3168000D01*
X+6612833Y+3142334D01*
X+6587167Y+3142334D01*
X+6612833Y+3193667D02*
X+6638500Y+3219333D01*
X+6587167Y+3270666D02*
X+6561500Y+3296333D01*
X+6638500Y+3296333D01*
D50*
X+7570000Y+3015000D02*
X+7570000Y+3395000D01*
X+7210000Y+3395000D01*
X+7210000Y+3015000D01*
X+7570000Y+3015000D01*
X+7340000Y+3205000D02*
X+7440000Y+3205000D01*
X+7390000Y+3255000D02*
X+7390000Y+3155000D01*
D57*
X+7377167Y+3102334D02*
X+7351500Y+3128000D01*
X+7351500Y+3153667D01*
X+7377167Y+3179333D01*
X+7402833Y+3179333D01*
X+7428500Y+3153667D01*
X+7428500Y+3128000D01*
X+7402833Y+3102334D01*
X+7377167Y+3102334D01*
X+7402833Y+3153667D02*
X+7428500Y+3179333D01*
X+7364333Y+3217833D02*
X+7351500Y+3230666D01*
X+7351500Y+3269166D01*
X+7364333Y+3281999D01*
X+7377167Y+3281999D01*
X+7390000Y+3269166D01*
X+7390000Y+3230666D01*
X+7402833Y+3217833D01*
X+7428500Y+3217833D01*
X+7428500Y+3281999D01*
D29*
X+6482840Y+2212840D02*
X+6757160Y+2212840D01*
X+6757160Y+2487160D01*
X+6482840Y+2487160D01*
X+6482840Y+2212840D01*
D58*
X+6546848Y+2340856D02*
X+6546848Y+2331712D01*
X+6555992Y+2322568D01*
X+6592568Y+2322568D01*
X+6601712Y+2331712D01*
X+6601712Y+2377432D01*
X+6638288Y+2359144D02*
X+6656576Y+2377432D01*
X+6656576Y+2322568D01*
D50*
X+7975000Y+4280000D02*
X+7975000Y+3570000D01*
X+8405000Y+3570000D01*
X+8405000Y+4280000D01*
X+7975000Y+4280000D01*
X+8240000Y+3925000D02*
X+8140000Y+3925000D01*
X+8190000Y+3875000D02*
X+8190000Y+3975000D01*
D51*
X+8261500Y+3734334D02*
X+8118500Y+3734334D01*
X+8118500Y+3829667D01*
X+8166167Y+3877333D01*
X+8213833Y+3877333D01*
X+8261500Y+3829667D01*
X+8261500Y+3734334D01*
X+8142333Y+3948833D02*
X+8118500Y+3972666D01*
X+8118500Y+4044166D01*
X+8142333Y+4067999D01*
X+8166167Y+4067999D01*
X+8190000Y+4044166D01*
X+8213833Y+4067999D01*
X+8237667Y+4067999D01*
X+8261500Y+4044166D01*
X+8261500Y+3972666D01*
X+8237667Y+3948833D01*
X+8190000Y+3996499D02*
X+8190000Y+4044166D01*
D50*
X+7985000Y+3280000D02*
X+7985000Y+2570000D01*
X+8415000Y+2570000D01*
X+8415000Y+3280000D01*
X+7985000Y+3280000D01*
X+8250000Y+2925000D02*
X+8150000Y+2925000D01*
X+8200000Y+2875000D02*
X+8200000Y+2975000D01*
D51*
X+8271500Y+2734334D02*
X+8128500Y+2734334D01*
X+8128500Y+2829667D01*
X+8176167Y+2877333D01*
X+8223833Y+2877333D01*
X+8271500Y+2829667D01*
X+8271500Y+2734334D01*
X+8223833Y+3067999D02*
X+8223833Y+2925000D01*
X+8128500Y+3020333D01*
X+8271500Y+3020333D01*
D29*
X+8969840Y+4860840D02*
X+11240160Y+4860840D01*
X+11240160Y+6521160D01*
X+8969840Y+6521160D01*
X+8969840Y+4860840D01*
D59*
X+9423904Y+5520726D02*
X+9423904Y+5861274D01*
X+9707694Y+5861274D01*
X+9764452Y+5804516D01*
X+9764452Y+5747758D01*
X+9707694Y+5691000D01*
X+9423904Y+5691000D01*
X+9707694Y+5691000D02*
X+9764452Y+5634242D01*
X+9764452Y+5520726D01*
X+9877968Y+5861274D02*
X+9877968Y+5520726D01*
X+10218516Y+5520726D01*
X+10445548Y+5747758D02*
X+10559064Y+5861274D01*
X+10559064Y+5520726D01*
D29*
X+8969840Y+3120840D02*
X+11240160Y+3120840D01*
X+11240160Y+4781160D01*
X+8969840Y+4781160D01*
X+8969840Y+3120840D01*
D59*
X+9423904Y+3780726D02*
X+9423904Y+4121274D01*
X+9707694Y+4121274D01*
X+9764452Y+4064516D01*
X+9764452Y+4007758D01*
X+9707694Y+3951000D01*
X+9423904Y+3951000D01*
X+9707694Y+3951000D02*
X+9764452Y+3894242D01*
X+9764452Y+3780726D01*
X+9877968Y+4121274D02*
X+9877968Y+3780726D01*
X+10218516Y+3780726D01*
X+10388790Y+4064516D02*
X+10445548Y+4121274D01*
X+10615822Y+4121274D01*
X+10672580Y+4064516D01*
X+10672580Y+4007758D01*
X+10615822Y+3951000D01*
X+10445548Y+3951000D01*
X+10388790Y+3894242D01*
X+10388790Y+3780726D01*
X+10672580Y+3780726D01*
D29*
X+9185840Y+1785840D02*
X+10476160Y+1785840D01*
X+10476160Y+2314160D01*
X+9185840Y+2314160D01*
X+9185840Y+1785840D01*
D60*
X+9476162Y+2017742D02*
X+9460033Y+2001613D01*
X+9411646Y+2001613D01*
X+9379388Y+2033871D01*
X+9379388Y+2066129D01*
X+9411646Y+2098387D01*
X+9460033Y+2098387D01*
X+9476162Y+2082258D01*
X+9508420Y+2098387D02*
X+9605194Y+2098387D01*
X+9556807Y+2098387D02*
X+9556807Y+2001613D01*
X+9637452Y+2001613D02*
X+9637452Y+2098387D01*
X+9718097Y+2098387D01*
X+9734226Y+2082258D01*
X+9734226Y+2066129D01*
X+9718097Y+2050000D01*
X+9637452Y+2050000D01*
X+9718097Y+2050000D02*
X+9734226Y+2033871D01*
X+9734226Y+2001613D01*
X+9766484Y+2098387D02*
X+9766484Y+2001613D01*
X+9863258Y+2001613D01*
X+9927774Y+2066129D02*
X+9960032Y+2098387D01*
X+9960032Y+2001613D01*
X+10040677Y+2050000D02*
X+10121322Y+2050000D01*
X+10169709Y+2082258D02*
X+10185838Y+2098387D01*
X+10234225Y+2098387D01*
X+10250354Y+2082258D01*
X+10250354Y+2066129D01*
X+10234225Y+2050000D01*
X+10185838Y+2050000D01*
X+10169709Y+2033871D01*
X+10169709Y+2001613D01*
X+10250354Y+2001613D01*
D29*
X+9223840Y+7315840D02*
X+10514160Y+7315840D01*
X+10514160Y+7844160D01*
X+9223840Y+7844160D01*
X+9223840Y+7315840D01*
D60*
X+9514162Y+7547742D02*
X+9498033Y+7531613D01*
X+9449646Y+7531613D01*
X+9417388Y+7563871D01*
X+9417388Y+7596129D01*
X+9449646Y+7628387D01*
X+9498033Y+7628387D01*
X+9514162Y+7612258D01*
X+9546420Y+7596129D02*
X+9578678Y+7628387D01*
X+9610936Y+7628387D01*
X+9643194Y+7596129D01*
X+9643194Y+7563871D01*
X+9610936Y+7531613D01*
X+9578678Y+7531613D01*
X+9546420Y+7563871D01*
X+9546420Y+7596129D01*
X+9675452Y+7531613D02*
X+9675452Y+7628387D01*
X+9723839Y+7580000D01*
X+9772226Y+7628387D01*
X+9772226Y+7531613D01*
X+9933516Y+7531613D02*
X+9933516Y+7628387D01*
X+10014161Y+7628387D01*
X+10030290Y+7612258D01*
X+10030290Y+7596129D01*
X+10014161Y+7580000D01*
X+9933516Y+7580000D01*
X+10078677Y+7628387D02*
X+10143193Y+7628387D01*
X+10110935Y+7628387D02*
X+10110935Y+7531613D01*
X+10078677Y+7531613D02*
X+10143193Y+7531613D01*
X+10191580Y+7531613D02*
X+10191580Y+7628387D01*
X+10288354Y+7531613D01*
X+10288354Y+7628387D01*
D29*
X+5689840Y+7239840D02*
X+7510160Y+7239840D01*
X+7510160Y+7960160D01*
X+5689840Y+7960160D01*
X+5689840Y+7239840D01*
D61*
X+5962891Y+7654609D02*
X+6035703Y+7654609D01*
X+5999297Y+7654609D02*
X+5999297Y+7545390D01*
X+5962891Y+7545390D02*
X+6035703Y+7545390D01*
X+6090313Y+7545390D02*
X+6090313Y+7654609D01*
X+6199531Y+7545390D01*
X+6199531Y+7654609D01*
X+6235938Y+7545390D02*
X+6235938Y+7654609D01*
X+6326953Y+7654609D01*
X+6345156Y+7636406D01*
X+6345156Y+7618203D01*
X+6326953Y+7600000D01*
X+6235938Y+7600000D01*
X+6381563Y+7654609D02*
X+6381563Y+7563593D01*
X+6399766Y+7545390D01*
X+6472578Y+7545390D01*
X+6490781Y+7563593D01*
X+6490781Y+7654609D01*
X+6527188Y+7654609D02*
X+6636406Y+7654609D01*
X+6581797Y+7654609D02*
X+6581797Y+7545390D01*
X+6818438Y+7545390D02*
X+6818438Y+7654609D01*
X+6909453Y+7654609D01*
X+6927656Y+7636406D01*
X+6927656Y+7618203D01*
X+6909453Y+7600000D01*
X+6818438Y+7600000D01*
X+6982266Y+7654609D02*
X+7055078Y+7654609D01*
X+7018672Y+7654609D02*
X+7018672Y+7545390D01*
X+6982266Y+7545390D02*
X+7055078Y+7545390D01*
X+7109688Y+7545390D02*
X+7109688Y+7654609D01*
X+7218906Y+7545390D01*
X+7218906Y+7654609D01*
D29*
X+1980000Y+1690000D02*
X+11300000Y+1690000D01*
X+11300000Y+8020000D01*
X+1980000Y+8020000D01*
X+1980000Y+1690000D01*
D54*
X+2745200Y+3689800D02*
X+3354800Y+3689800D01*
X+3354800Y+4350200D01*
X+2745200Y+4350200D01*
X+2745200Y+3689800D01*
D55*
X+3099911Y+3820356D02*
X+3000089Y+3820356D01*
X+3000089Y+3903541D01*
X+3016726Y+3920178D01*
X+3033363Y+3920178D01*
X+3050000Y+3903541D01*
X+3050000Y+3820356D01*
X+3050000Y+3903541D02*
X+3066637Y+3920178D01*
X+3099911Y+3920178D01*
X+3000089Y+3953452D02*
X+3050000Y+3953452D01*
X+3099911Y+4003363D01*
X+3050000Y+4053274D01*
X+3000089Y+4053274D01*
X+3033363Y+4119822D02*
X+3000089Y+4153096D01*
X+3099911Y+4153096D01*
D29*
X+2939840Y+7244299D02*
X+3860160Y+7244299D01*
X+3860160Y+7964619D01*
X+2939840Y+7964619D01*
X+2939840Y+7244299D01*
D62*
X+3087094Y+7613662D02*
X+3105500Y+7632068D01*
X+3105500Y+7576849D01*
X+3151516Y+7622865D02*
X+3160719Y+7632068D01*
X+3188328Y+7632068D01*
X+3197531Y+7622865D01*
X+3197531Y+7613662D01*
X+3188328Y+7604459D01*
X+3160719Y+7604459D01*
X+3151516Y+7595255D01*
X+3151516Y+7576849D01*
X+3197531Y+7576849D01*
X+3215938Y+7632068D02*
X+3215938Y+7604459D01*
X+3243547Y+7576849D01*
X+3271156Y+7604459D01*
X+3271156Y+7632068D01*
X+3289563Y+7567646D02*
X+3344781Y+7567646D01*
X+3372391Y+7632068D02*
X+3409203Y+7632068D01*
X+3390797Y+7632068D02*
X+3390797Y+7576849D01*
X+3372391Y+7576849D02*
X+3409203Y+7576849D01*
X+3436813Y+7576849D02*
X+3436813Y+7632068D01*
X+3492031Y+7576849D01*
X+3492031Y+7632068D01*
X+3510438Y+7576849D02*
X+3510438Y+7632068D01*
X+3556453Y+7632068D01*
X+3565656Y+7622865D01*
X+3565656Y+7613662D01*
X+3556453Y+7604459D01*
X+3510438Y+7604459D01*
X+3584063Y+7632068D02*
X+3584063Y+7586052D01*
X+3593266Y+7576849D01*
X+3630078Y+7576849D01*
X+3639281Y+7586052D01*
X+3639281Y+7632068D01*
X+3657688Y+7632068D02*
X+3712906Y+7632068D01*
X+3685297Y+7632068D02*
X+3685297Y+7576849D01*
M02*
