G04 PROTEUS RS274X GERBER FILE*
%FSLAX45Y45*%
%MOMM*%
G01*
%ADD29C,0.203200*%
%ADD63C,0.127000*%
%ADD64C,0.063500*%
%TD.AperFunction*%
D29*
X+4532500Y+2772000D02*
X+4532500Y+2645000D01*
X+4469000Y+2708500D02*
X+4596000Y+2708500D01*
X+3770500Y+3788000D02*
X+3770500Y+3661000D01*
X+3707000Y+3724500D02*
X+3834000Y+3724500D01*
X+7961500Y+3470500D02*
X+7961500Y+3343500D01*
X+7898000Y+3407000D02*
X+8025000Y+3407000D01*
X+3897500Y+6010500D02*
X+3897500Y+5883500D01*
X+3834000Y+5947000D02*
X+3961000Y+5947000D01*
X+7961500Y+3978500D02*
X+7961500Y+3851500D01*
X+7898000Y+3915000D02*
X+8025000Y+3915000D01*
X+4913500Y+3788000D02*
X+4913500Y+3661000D01*
X+4850000Y+3724500D02*
X+4977000Y+3724500D01*
X+3262500Y+2962500D02*
X+3262500Y+2835500D01*
X+3199000Y+2899000D02*
X+3326000Y+2899000D01*
X+3389500Y+4486500D02*
X+3389500Y+4359500D01*
X+3326000Y+4423000D02*
X+3453000Y+4423000D01*
X+4151500Y+5248500D02*
X+4151500Y+5121500D01*
X+4088000Y+5185000D02*
X+4215000Y+5185000D01*
X+3199000Y+5248500D02*
X+3199000Y+5121500D01*
X+3135500Y+5185000D02*
X+3262500Y+5185000D01*
X+6945500Y+4550000D02*
X+6945500Y+4423000D01*
X+6882000Y+4486500D02*
X+7009000Y+4486500D01*
X+7072500Y+3216500D02*
X+7072500Y+3089500D01*
X+7009000Y+3153000D02*
X+7136000Y+3153000D01*
X+7072500Y+3661000D02*
X+7072500Y+3534000D01*
X+7009000Y+3597500D02*
X+7136000Y+3597500D01*
X+6310500Y+4169000D02*
X+6310500Y+4042000D01*
X+6247000Y+4105500D02*
X+6374000Y+4105500D01*
X+2945000Y+4550000D02*
X+2945000Y+4423000D01*
X+2881500Y+4486500D02*
X+3008500Y+4486500D01*
X+4659500Y+6455000D02*
X+4659500Y+6328000D01*
X+4596000Y+6391500D02*
X+4723000Y+6391500D01*
X+2945000Y+5820000D02*
X+2945000Y+5693000D01*
X+2881500Y+5756500D02*
X+3008500Y+5756500D01*
X+8453500Y+6790000D02*
X+8453283Y+6795247D01*
X+8451518Y+6805742D01*
X+8447826Y+6816237D01*
X+8441798Y+6826732D01*
X+8432576Y+6837112D01*
X+8422081Y+6844800D01*
X+8411586Y+6849718D01*
X+8401091Y+6852524D01*
X+8390596Y+6853497D01*
X+8390000Y+6853500D01*
X+8326500Y+6790000D02*
X+8326717Y+6795247D01*
X+8328482Y+6805742D01*
X+8332174Y+6816237D01*
X+8338202Y+6826732D01*
X+8347424Y+6837112D01*
X+8357919Y+6844800D01*
X+8368414Y+6849718D01*
X+8378909Y+6852524D01*
X+8389404Y+6853497D01*
X+8390000Y+6853500D01*
X+8326500Y+6790000D02*
X+8326717Y+6784753D01*
X+8328482Y+6774258D01*
X+8332174Y+6763763D01*
X+8338202Y+6753268D01*
X+8347424Y+6742888D01*
X+8357919Y+6735200D01*
X+8368414Y+6730282D01*
X+8378909Y+6727476D01*
X+8389404Y+6726503D01*
X+8390000Y+6726500D01*
X+8453500Y+6790000D02*
X+8453283Y+6784753D01*
X+8451518Y+6774258D01*
X+8447826Y+6763763D01*
X+8441798Y+6753268D01*
X+8432576Y+6742888D01*
X+8422081Y+6735200D01*
X+8411586Y+6730282D01*
X+8401091Y+6727476D01*
X+8390596Y+6726503D01*
X+8390000Y+6726500D01*
X+8345099Y+6834901D02*
X+8434901Y+6745099D01*
X+8345099Y+6745099D02*
X+8434901Y+6834901D01*
X+8199500Y+6790000D02*
X+8199283Y+6795247D01*
X+8197518Y+6805742D01*
X+8193826Y+6816237D01*
X+8187798Y+6826732D01*
X+8178576Y+6837112D01*
X+8168081Y+6844800D01*
X+8157586Y+6849718D01*
X+8147091Y+6852524D01*
X+8136596Y+6853497D01*
X+8136000Y+6853500D01*
X+8072500Y+6790000D02*
X+8072717Y+6795247D01*
X+8074482Y+6805742D01*
X+8078174Y+6816237D01*
X+8084202Y+6826732D01*
X+8093424Y+6837112D01*
X+8103919Y+6844800D01*
X+8114414Y+6849718D01*
X+8124909Y+6852524D01*
X+8135404Y+6853497D01*
X+8136000Y+6853500D01*
X+8072500Y+6790000D02*
X+8072717Y+6784753D01*
X+8074482Y+6774258D01*
X+8078174Y+6763763D01*
X+8084202Y+6753268D01*
X+8093424Y+6742888D01*
X+8103919Y+6735200D01*
X+8114414Y+6730282D01*
X+8124909Y+6727476D01*
X+8135404Y+6726503D01*
X+8136000Y+6726500D01*
X+8199500Y+6790000D02*
X+8199283Y+6784753D01*
X+8197518Y+6774258D01*
X+8193826Y+6763763D01*
X+8187798Y+6753268D01*
X+8178576Y+6742888D01*
X+8168081Y+6735200D01*
X+8157586Y+6730282D01*
X+8147091Y+6727476D01*
X+8136596Y+6726503D01*
X+8136000Y+6726500D01*
X+8091099Y+6834901D02*
X+8180901Y+6745099D01*
X+8091099Y+6745099D02*
X+8180901Y+6834901D01*
X+7945500Y+6790000D02*
X+7945283Y+6795247D01*
X+7943518Y+6805742D01*
X+7939826Y+6816237D01*
X+7933798Y+6826732D01*
X+7924576Y+6837112D01*
X+7914081Y+6844800D01*
X+7903586Y+6849718D01*
X+7893091Y+6852524D01*
X+7882596Y+6853497D01*
X+7882000Y+6853500D01*
X+7818500Y+6790000D02*
X+7818717Y+6795247D01*
X+7820482Y+6805742D01*
X+7824174Y+6816237D01*
X+7830202Y+6826732D01*
X+7839424Y+6837112D01*
X+7849919Y+6844800D01*
X+7860414Y+6849718D01*
X+7870909Y+6852524D01*
X+7881404Y+6853497D01*
X+7882000Y+6853500D01*
X+7818500Y+6790000D02*
X+7818717Y+6784753D01*
X+7820482Y+6774258D01*
X+7824174Y+6763763D01*
X+7830202Y+6753268D01*
X+7839424Y+6742888D01*
X+7849919Y+6735200D01*
X+7860414Y+6730282D01*
X+7870909Y+6727476D01*
X+7881404Y+6726503D01*
X+7882000Y+6726500D01*
X+7945500Y+6790000D02*
X+7945283Y+6784753D01*
X+7943518Y+6774258D01*
X+7939826Y+6763763D01*
X+7933798Y+6753268D01*
X+7924576Y+6742888D01*
X+7914081Y+6735200D01*
X+7903586Y+6730282D01*
X+7893091Y+6727476D01*
X+7882596Y+6726503D01*
X+7882000Y+6726500D01*
X+7837099Y+6834901D02*
X+7926901Y+6745099D01*
X+7837099Y+6745099D02*
X+7926901Y+6834901D01*
X+7691500Y+6790000D02*
X+7691283Y+6795247D01*
X+7689518Y+6805742D01*
X+7685826Y+6816237D01*
X+7679798Y+6826732D01*
X+7670576Y+6837112D01*
X+7660081Y+6844800D01*
X+7649586Y+6849718D01*
X+7639091Y+6852524D01*
X+7628596Y+6853497D01*
X+7628000Y+6853500D01*
X+7564500Y+6790000D02*
X+7564717Y+6795247D01*
X+7566482Y+6805742D01*
X+7570174Y+6816237D01*
X+7576202Y+6826732D01*
X+7585424Y+6837112D01*
X+7595919Y+6844800D01*
X+7606414Y+6849718D01*
X+7616909Y+6852524D01*
X+7627404Y+6853497D01*
X+7628000Y+6853500D01*
X+7564500Y+6790000D02*
X+7564717Y+6784753D01*
X+7566482Y+6774258D01*
X+7570174Y+6763763D01*
X+7576202Y+6753268D01*
X+7585424Y+6742888D01*
X+7595919Y+6735200D01*
X+7606414Y+6730282D01*
X+7616909Y+6727476D01*
X+7627404Y+6726503D01*
X+7628000Y+6726500D01*
X+7691500Y+6790000D02*
X+7691283Y+6784753D01*
X+7689518Y+6774258D01*
X+7685826Y+6763763D01*
X+7679798Y+6753268D01*
X+7670576Y+6742888D01*
X+7660081Y+6735200D01*
X+7649586Y+6730282D01*
X+7639091Y+6727476D01*
X+7628596Y+6726503D01*
X+7628000Y+6726500D01*
X+7583099Y+6834901D02*
X+7672901Y+6745099D01*
X+7583099Y+6745099D02*
X+7672901Y+6834901D01*
X+5659500Y+1964000D02*
X+5659283Y+1969247D01*
X+5657518Y+1979742D01*
X+5653826Y+1990237D01*
X+5647798Y+2000732D01*
X+5638576Y+2011112D01*
X+5628081Y+2018800D01*
X+5617586Y+2023718D01*
X+5607091Y+2026524D01*
X+5596596Y+2027497D01*
X+5596000Y+2027500D01*
X+5532500Y+1964000D02*
X+5532717Y+1969247D01*
X+5534482Y+1979742D01*
X+5538174Y+1990237D01*
X+5544202Y+2000732D01*
X+5553424Y+2011112D01*
X+5563919Y+2018800D01*
X+5574414Y+2023718D01*
X+5584909Y+2026524D01*
X+5595404Y+2027497D01*
X+5596000Y+2027500D01*
X+5532500Y+1964000D02*
X+5532717Y+1958753D01*
X+5534482Y+1948258D01*
X+5538174Y+1937763D01*
X+5544202Y+1927268D01*
X+5553424Y+1916888D01*
X+5563919Y+1909200D01*
X+5574414Y+1904282D01*
X+5584909Y+1901476D01*
X+5595404Y+1900503D01*
X+5596000Y+1900500D01*
X+5659500Y+1964000D02*
X+5659283Y+1958753D01*
X+5657518Y+1948258D01*
X+5653826Y+1937763D01*
X+5647798Y+1927268D01*
X+5638576Y+1916888D01*
X+5628081Y+1909200D01*
X+5617586Y+1904282D01*
X+5607091Y+1901476D01*
X+5596596Y+1900503D01*
X+5596000Y+1900500D01*
X+5551099Y+2008901D02*
X+5640901Y+1919099D01*
X+5551099Y+1919099D02*
X+5640901Y+2008901D01*
X+7437500Y+6790000D02*
X+7437283Y+6795247D01*
X+7435518Y+6805742D01*
X+7431826Y+6816237D01*
X+7425798Y+6826732D01*
X+7416576Y+6837112D01*
X+7406081Y+6844800D01*
X+7395586Y+6849718D01*
X+7385091Y+6852524D01*
X+7374596Y+6853497D01*
X+7374000Y+6853500D01*
X+7310500Y+6790000D02*
X+7310717Y+6795247D01*
X+7312482Y+6805742D01*
X+7316174Y+6816237D01*
X+7322202Y+6826732D01*
X+7331424Y+6837112D01*
X+7341919Y+6844800D01*
X+7352414Y+6849718D01*
X+7362909Y+6852524D01*
X+7373404Y+6853497D01*
X+7374000Y+6853500D01*
X+7310500Y+6790000D02*
X+7310717Y+6784753D01*
X+7312482Y+6774258D01*
X+7316174Y+6763763D01*
X+7322202Y+6753268D01*
X+7331424Y+6742888D01*
X+7341919Y+6735200D01*
X+7352414Y+6730282D01*
X+7362909Y+6727476D01*
X+7373404Y+6726503D01*
X+7374000Y+6726500D01*
X+7437500Y+6790000D02*
X+7437283Y+6784753D01*
X+7435518Y+6774258D01*
X+7431826Y+6763763D01*
X+7425798Y+6753268D01*
X+7416576Y+6742888D01*
X+7406081Y+6735200D01*
X+7395586Y+6730282D01*
X+7385091Y+6727476D01*
X+7374596Y+6726503D01*
X+7374000Y+6726500D01*
X+7329099Y+6834901D02*
X+7418901Y+6745099D01*
X+7329099Y+6745099D02*
X+7418901Y+6834901D01*
X+7183500Y+6790000D02*
X+7183283Y+6795247D01*
X+7181518Y+6805742D01*
X+7177826Y+6816237D01*
X+7171798Y+6826732D01*
X+7162576Y+6837112D01*
X+7152081Y+6844800D01*
X+7141586Y+6849718D01*
X+7131091Y+6852524D01*
X+7120596Y+6853497D01*
X+7120000Y+6853500D01*
X+7056500Y+6790000D02*
X+7056717Y+6795247D01*
X+7058482Y+6805742D01*
X+7062174Y+6816237D01*
X+7068202Y+6826732D01*
X+7077424Y+6837112D01*
X+7087919Y+6844800D01*
X+7098414Y+6849718D01*
X+7108909Y+6852524D01*
X+7119404Y+6853497D01*
X+7120000Y+6853500D01*
X+7056500Y+6790000D02*
X+7056717Y+6784753D01*
X+7058482Y+6774258D01*
X+7062174Y+6763763D01*
X+7068202Y+6753268D01*
X+7077424Y+6742888D01*
X+7087919Y+6735200D01*
X+7098414Y+6730282D01*
X+7108909Y+6727476D01*
X+7119404Y+6726503D01*
X+7120000Y+6726500D01*
X+7183500Y+6790000D02*
X+7183283Y+6784753D01*
X+7181518Y+6774258D01*
X+7177826Y+6763763D01*
X+7171798Y+6753268D01*
X+7162576Y+6742888D01*
X+7152081Y+6735200D01*
X+7141586Y+6730282D01*
X+7131091Y+6727476D01*
X+7120596Y+6726503D01*
X+7120000Y+6726500D01*
X+7075099Y+6834901D02*
X+7164901Y+6745099D01*
X+7075099Y+6745099D02*
X+7164901Y+6834901D01*
X+5913500Y+1964000D02*
X+5913283Y+1969247D01*
X+5911518Y+1979742D01*
X+5907826Y+1990237D01*
X+5901798Y+2000732D01*
X+5892576Y+2011112D01*
X+5882081Y+2018800D01*
X+5871586Y+2023718D01*
X+5861091Y+2026524D01*
X+5850596Y+2027497D01*
X+5850000Y+2027500D01*
X+5786500Y+1964000D02*
X+5786717Y+1969247D01*
X+5788482Y+1979742D01*
X+5792174Y+1990237D01*
X+5798202Y+2000732D01*
X+5807424Y+2011112D01*
X+5817919Y+2018800D01*
X+5828414Y+2023718D01*
X+5838909Y+2026524D01*
X+5849404Y+2027497D01*
X+5850000Y+2027500D01*
X+5786500Y+1964000D02*
X+5786717Y+1958753D01*
X+5788482Y+1948258D01*
X+5792174Y+1937763D01*
X+5798202Y+1927268D01*
X+5807424Y+1916888D01*
X+5817919Y+1909200D01*
X+5828414Y+1904282D01*
X+5838909Y+1901476D01*
X+5849404Y+1900503D01*
X+5850000Y+1900500D01*
X+5913500Y+1964000D02*
X+5913283Y+1958753D01*
X+5911518Y+1948258D01*
X+5907826Y+1937763D01*
X+5901798Y+1927268D01*
X+5892576Y+1916888D01*
X+5882081Y+1909200D01*
X+5871586Y+1904282D01*
X+5861091Y+1901476D01*
X+5850596Y+1900503D01*
X+5850000Y+1900500D01*
X+5805099Y+2008901D02*
X+5894901Y+1919099D01*
X+5805099Y+1919099D02*
X+5894901Y+2008901D01*
X+6929500Y+6790000D02*
X+6929283Y+6795247D01*
X+6927518Y+6805742D01*
X+6923826Y+6816237D01*
X+6917798Y+6826732D01*
X+6908576Y+6837112D01*
X+6898081Y+6844800D01*
X+6887586Y+6849718D01*
X+6877091Y+6852524D01*
X+6866596Y+6853497D01*
X+6866000Y+6853500D01*
X+6802500Y+6790000D02*
X+6802717Y+6795247D01*
X+6804482Y+6805742D01*
X+6808174Y+6816237D01*
X+6814202Y+6826732D01*
X+6823424Y+6837112D01*
X+6833919Y+6844800D01*
X+6844414Y+6849718D01*
X+6854909Y+6852524D01*
X+6865404Y+6853497D01*
X+6866000Y+6853500D01*
X+6802500Y+6790000D02*
X+6802717Y+6784753D01*
X+6804482Y+6774258D01*
X+6808174Y+6763763D01*
X+6814202Y+6753268D01*
X+6823424Y+6742888D01*
X+6833919Y+6735200D01*
X+6844414Y+6730282D01*
X+6854909Y+6727476D01*
X+6865404Y+6726503D01*
X+6866000Y+6726500D01*
X+6929500Y+6790000D02*
X+6929283Y+6784753D01*
X+6927518Y+6774258D01*
X+6923826Y+6763763D01*
X+6917798Y+6753268D01*
X+6908576Y+6742888D01*
X+6898081Y+6735200D01*
X+6887586Y+6730282D01*
X+6877091Y+6727476D01*
X+6866596Y+6726503D01*
X+6866000Y+6726500D01*
X+6821099Y+6834901D02*
X+6910901Y+6745099D01*
X+6821099Y+6745099D02*
X+6910901Y+6834901D01*
X+6675500Y+6790000D02*
X+6675283Y+6795247D01*
X+6673518Y+6805742D01*
X+6669826Y+6816237D01*
X+6663798Y+6826732D01*
X+6654576Y+6837112D01*
X+6644081Y+6844800D01*
X+6633586Y+6849718D01*
X+6623091Y+6852524D01*
X+6612596Y+6853497D01*
X+6612000Y+6853500D01*
X+6548500Y+6790000D02*
X+6548717Y+6795247D01*
X+6550482Y+6805742D01*
X+6554174Y+6816237D01*
X+6560202Y+6826732D01*
X+6569424Y+6837112D01*
X+6579919Y+6844800D01*
X+6590414Y+6849718D01*
X+6600909Y+6852524D01*
X+6611404Y+6853497D01*
X+6612000Y+6853500D01*
X+6548500Y+6790000D02*
X+6548717Y+6784753D01*
X+6550482Y+6774258D01*
X+6554174Y+6763763D01*
X+6560202Y+6753268D01*
X+6569424Y+6742888D01*
X+6579919Y+6735200D01*
X+6590414Y+6730282D01*
X+6600909Y+6727476D01*
X+6611404Y+6726503D01*
X+6612000Y+6726500D01*
X+6675500Y+6790000D02*
X+6675283Y+6784753D01*
X+6673518Y+6774258D01*
X+6669826Y+6763763D01*
X+6663798Y+6753268D01*
X+6654576Y+6742888D01*
X+6644081Y+6735200D01*
X+6633586Y+6730282D01*
X+6623091Y+6727476D01*
X+6612596Y+6726503D01*
X+6612000Y+6726500D01*
X+6567099Y+6834901D02*
X+6656901Y+6745099D01*
X+6567099Y+6745099D02*
X+6656901Y+6834901D01*
X+6294500Y+6790000D02*
X+6294283Y+6795247D01*
X+6292518Y+6805742D01*
X+6288826Y+6816237D01*
X+6282798Y+6826732D01*
X+6273576Y+6837112D01*
X+6263081Y+6844800D01*
X+6252586Y+6849718D01*
X+6242091Y+6852524D01*
X+6231596Y+6853497D01*
X+6231000Y+6853500D01*
X+6167500Y+6790000D02*
X+6167717Y+6795247D01*
X+6169482Y+6805742D01*
X+6173174Y+6816237D01*
X+6179202Y+6826732D01*
X+6188424Y+6837112D01*
X+6198919Y+6844800D01*
X+6209414Y+6849718D01*
X+6219909Y+6852524D01*
X+6230404Y+6853497D01*
X+6231000Y+6853500D01*
X+6167500Y+6790000D02*
X+6167717Y+6784753D01*
X+6169482Y+6774258D01*
X+6173174Y+6763763D01*
X+6179202Y+6753268D01*
X+6188424Y+6742888D01*
X+6198919Y+6735200D01*
X+6209414Y+6730282D01*
X+6219909Y+6727476D01*
X+6230404Y+6726503D01*
X+6231000Y+6726500D01*
X+6294500Y+6790000D02*
X+6294283Y+6784753D01*
X+6292518Y+6774258D01*
X+6288826Y+6763763D01*
X+6282798Y+6753268D01*
X+6273576Y+6742888D01*
X+6263081Y+6735200D01*
X+6252586Y+6730282D01*
X+6242091Y+6727476D01*
X+6231596Y+6726503D01*
X+6231000Y+6726500D01*
X+6186099Y+6834901D02*
X+6275901Y+6745099D01*
X+6186099Y+6745099D02*
X+6275901Y+6834901D01*
X+6040500Y+6790000D02*
X+6040283Y+6795247D01*
X+6038518Y+6805742D01*
X+6034826Y+6816237D01*
X+6028798Y+6826732D01*
X+6019576Y+6837112D01*
X+6009081Y+6844800D01*
X+5998586Y+6849718D01*
X+5988091Y+6852524D01*
X+5977596Y+6853497D01*
X+5977000Y+6853500D01*
X+5913500Y+6790000D02*
X+5913717Y+6795247D01*
X+5915482Y+6805742D01*
X+5919174Y+6816237D01*
X+5925202Y+6826732D01*
X+5934424Y+6837112D01*
X+5944919Y+6844800D01*
X+5955414Y+6849718D01*
X+5965909Y+6852524D01*
X+5976404Y+6853497D01*
X+5977000Y+6853500D01*
X+5913500Y+6790000D02*
X+5913717Y+6784753D01*
X+5915482Y+6774258D01*
X+5919174Y+6763763D01*
X+5925202Y+6753268D01*
X+5934424Y+6742888D01*
X+5944919Y+6735200D01*
X+5955414Y+6730282D01*
X+5965909Y+6727476D01*
X+5976404Y+6726503D01*
X+5977000Y+6726500D01*
X+6040500Y+6790000D02*
X+6040283Y+6784753D01*
X+6038518Y+6774258D01*
X+6034826Y+6763763D01*
X+6028798Y+6753268D01*
X+6019576Y+6742888D01*
X+6009081Y+6735200D01*
X+5998586Y+6730282D01*
X+5988091Y+6727476D01*
X+5977596Y+6726503D01*
X+5977000Y+6726500D01*
X+5932099Y+6834901D02*
X+6021901Y+6745099D01*
X+5932099Y+6745099D02*
X+6021901Y+6834901D01*
X+5786500Y+6790000D02*
X+5786283Y+6795247D01*
X+5784518Y+6805742D01*
X+5780826Y+6816237D01*
X+5774798Y+6826732D01*
X+5765576Y+6837112D01*
X+5755081Y+6844800D01*
X+5744586Y+6849718D01*
X+5734091Y+6852524D01*
X+5723596Y+6853497D01*
X+5723000Y+6853500D01*
X+5659500Y+6790000D02*
X+5659717Y+6795247D01*
X+5661482Y+6805742D01*
X+5665174Y+6816237D01*
X+5671202Y+6826732D01*
X+5680424Y+6837112D01*
X+5690919Y+6844800D01*
X+5701414Y+6849718D01*
X+5711909Y+6852524D01*
X+5722404Y+6853497D01*
X+5723000Y+6853500D01*
X+5659500Y+6790000D02*
X+5659717Y+6784753D01*
X+5661482Y+6774258D01*
X+5665174Y+6763763D01*
X+5671202Y+6753268D01*
X+5680424Y+6742888D01*
X+5690919Y+6735200D01*
X+5701414Y+6730282D01*
X+5711909Y+6727476D01*
X+5722404Y+6726503D01*
X+5723000Y+6726500D01*
X+5786500Y+6790000D02*
X+5786283Y+6784753D01*
X+5784518Y+6774258D01*
X+5780826Y+6763763D01*
X+5774798Y+6753268D01*
X+5765576Y+6742888D01*
X+5755081Y+6735200D01*
X+5744586Y+6730282D01*
X+5734091Y+6727476D01*
X+5723596Y+6726503D01*
X+5723000Y+6726500D01*
X+5678099Y+6834901D02*
X+5767901Y+6745099D01*
X+5678099Y+6745099D02*
X+5767901Y+6834901D01*
X+5532500Y+6790000D02*
X+5532283Y+6795247D01*
X+5530518Y+6805742D01*
X+5526826Y+6816237D01*
X+5520798Y+6826732D01*
X+5511576Y+6837112D01*
X+5501081Y+6844800D01*
X+5490586Y+6849718D01*
X+5480091Y+6852524D01*
X+5469596Y+6853497D01*
X+5469000Y+6853500D01*
X+5405500Y+6790000D02*
X+5405717Y+6795247D01*
X+5407482Y+6805742D01*
X+5411174Y+6816237D01*
X+5417202Y+6826732D01*
X+5426424Y+6837112D01*
X+5436919Y+6844800D01*
X+5447414Y+6849718D01*
X+5457909Y+6852524D01*
X+5468404Y+6853497D01*
X+5469000Y+6853500D01*
X+5405500Y+6790000D02*
X+5405717Y+6784753D01*
X+5407482Y+6774258D01*
X+5411174Y+6763763D01*
X+5417202Y+6753268D01*
X+5426424Y+6742888D01*
X+5436919Y+6735200D01*
X+5447414Y+6730282D01*
X+5457909Y+6727476D01*
X+5468404Y+6726503D01*
X+5469000Y+6726500D01*
X+5532500Y+6790000D02*
X+5532283Y+6784753D01*
X+5530518Y+6774258D01*
X+5526826Y+6763763D01*
X+5520798Y+6753268D01*
X+5511576Y+6742888D01*
X+5501081Y+6735200D01*
X+5490586Y+6730282D01*
X+5480091Y+6727476D01*
X+5469596Y+6726503D01*
X+5469000Y+6726500D01*
X+5424099Y+6834901D02*
X+5513901Y+6745099D01*
X+5424099Y+6745099D02*
X+5513901Y+6834901D01*
X+5278500Y+6790000D02*
X+5278283Y+6795247D01*
X+5276518Y+6805742D01*
X+5272826Y+6816237D01*
X+5266798Y+6826732D01*
X+5257576Y+6837112D01*
X+5247081Y+6844800D01*
X+5236586Y+6849718D01*
X+5226091Y+6852524D01*
X+5215596Y+6853497D01*
X+5215000Y+6853500D01*
X+5151500Y+6790000D02*
X+5151717Y+6795247D01*
X+5153482Y+6805742D01*
X+5157174Y+6816237D01*
X+5163202Y+6826732D01*
X+5172424Y+6837112D01*
X+5182919Y+6844800D01*
X+5193414Y+6849718D01*
X+5203909Y+6852524D01*
X+5214404Y+6853497D01*
X+5215000Y+6853500D01*
X+5151500Y+6790000D02*
X+5151717Y+6784753D01*
X+5153482Y+6774258D01*
X+5157174Y+6763763D01*
X+5163202Y+6753268D01*
X+5172424Y+6742888D01*
X+5182919Y+6735200D01*
X+5193414Y+6730282D01*
X+5203909Y+6727476D01*
X+5214404Y+6726503D01*
X+5215000Y+6726500D01*
X+5278500Y+6790000D02*
X+5278283Y+6784753D01*
X+5276518Y+6774258D01*
X+5272826Y+6763763D01*
X+5266798Y+6753268D01*
X+5257576Y+6742888D01*
X+5247081Y+6735200D01*
X+5236586Y+6730282D01*
X+5226091Y+6727476D01*
X+5215596Y+6726503D01*
X+5215000Y+6726500D01*
X+5170099Y+6834901D02*
X+5259901Y+6745099D01*
X+5170099Y+6745099D02*
X+5259901Y+6834901D01*
X+5024500Y+6790000D02*
X+5024283Y+6795247D01*
X+5022518Y+6805742D01*
X+5018826Y+6816237D01*
X+5012798Y+6826732D01*
X+5003576Y+6837112D01*
X+4993081Y+6844800D01*
X+4982586Y+6849718D01*
X+4972091Y+6852524D01*
X+4961596Y+6853497D01*
X+4961000Y+6853500D01*
X+4897500Y+6790000D02*
X+4897717Y+6795247D01*
X+4899482Y+6805742D01*
X+4903174Y+6816237D01*
X+4909202Y+6826732D01*
X+4918424Y+6837112D01*
X+4928919Y+6844800D01*
X+4939414Y+6849718D01*
X+4949909Y+6852524D01*
X+4960404Y+6853497D01*
X+4961000Y+6853500D01*
X+4897500Y+6790000D02*
X+4897717Y+6784753D01*
X+4899482Y+6774258D01*
X+4903174Y+6763763D01*
X+4909202Y+6753268D01*
X+4918424Y+6742888D01*
X+4928919Y+6735200D01*
X+4939414Y+6730282D01*
X+4949909Y+6727476D01*
X+4960404Y+6726503D01*
X+4961000Y+6726500D01*
X+5024500Y+6790000D02*
X+5024283Y+6784753D01*
X+5022518Y+6774258D01*
X+5018826Y+6763763D01*
X+5012798Y+6753268D01*
X+5003576Y+6742888D01*
X+4993081Y+6735200D01*
X+4982586Y+6730282D01*
X+4972091Y+6727476D01*
X+4961596Y+6726503D01*
X+4961000Y+6726500D01*
X+4916099Y+6834901D02*
X+5005901Y+6745099D01*
X+4916099Y+6745099D02*
X+5005901Y+6834901D01*
X+4897500Y+1964000D02*
X+4897283Y+1969247D01*
X+4895518Y+1979742D01*
X+4891826Y+1990237D01*
X+4885798Y+2000732D01*
X+4876576Y+2011112D01*
X+4866081Y+2018800D01*
X+4855586Y+2023718D01*
X+4845091Y+2026524D01*
X+4834596Y+2027497D01*
X+4834000Y+2027500D01*
X+4770500Y+1964000D02*
X+4770717Y+1969247D01*
X+4772482Y+1979742D01*
X+4776174Y+1990237D01*
X+4782202Y+2000732D01*
X+4791424Y+2011112D01*
X+4801919Y+2018800D01*
X+4812414Y+2023718D01*
X+4822909Y+2026524D01*
X+4833404Y+2027497D01*
X+4834000Y+2027500D01*
X+4770500Y+1964000D02*
X+4770717Y+1958753D01*
X+4772482Y+1948258D01*
X+4776174Y+1937763D01*
X+4782202Y+1927268D01*
X+4791424Y+1916888D01*
X+4801919Y+1909200D01*
X+4812414Y+1904282D01*
X+4822909Y+1901476D01*
X+4833404Y+1900503D01*
X+4834000Y+1900500D01*
X+4897500Y+1964000D02*
X+4897283Y+1958753D01*
X+4895518Y+1948258D01*
X+4891826Y+1937763D01*
X+4885798Y+1927268D01*
X+4876576Y+1916888D01*
X+4866081Y+1909200D01*
X+4855586Y+1904282D01*
X+4845091Y+1901476D01*
X+4834596Y+1900503D01*
X+4834000Y+1900500D01*
X+4789099Y+2008901D02*
X+4878901Y+1919099D01*
X+4789099Y+1919099D02*
X+4878901Y+2008901D01*
X+7183500Y+1964000D02*
X+7183283Y+1969247D01*
X+7181518Y+1979742D01*
X+7177826Y+1990237D01*
X+7171798Y+2000732D01*
X+7162576Y+2011112D01*
X+7152081Y+2018800D01*
X+7141586Y+2023718D01*
X+7131091Y+2026524D01*
X+7120596Y+2027497D01*
X+7120000Y+2027500D01*
X+7056500Y+1964000D02*
X+7056717Y+1969247D01*
X+7058482Y+1979742D01*
X+7062174Y+1990237D01*
X+7068202Y+2000732D01*
X+7077424Y+2011112D01*
X+7087919Y+2018800D01*
X+7098414Y+2023718D01*
X+7108909Y+2026524D01*
X+7119404Y+2027497D01*
X+7120000Y+2027500D01*
X+7056500Y+1964000D02*
X+7056717Y+1958753D01*
X+7058482Y+1948258D01*
X+7062174Y+1937763D01*
X+7068202Y+1927268D01*
X+7077424Y+1916888D01*
X+7087919Y+1909200D01*
X+7098414Y+1904282D01*
X+7108909Y+1901476D01*
X+7119404Y+1900503D01*
X+7120000Y+1900500D01*
X+7183500Y+1964000D02*
X+7183283Y+1958753D01*
X+7181518Y+1948258D01*
X+7177826Y+1937763D01*
X+7171798Y+1927268D01*
X+7162576Y+1916888D01*
X+7152081Y+1909200D01*
X+7141586Y+1904282D01*
X+7131091Y+1901476D01*
X+7120596Y+1900503D01*
X+7120000Y+1900500D01*
X+7075099Y+2008901D02*
X+7164901Y+1919099D01*
X+7075099Y+1919099D02*
X+7164901Y+2008901D01*
X+7437500Y+1964000D02*
X+7437283Y+1969247D01*
X+7435518Y+1979742D01*
X+7431826Y+1990237D01*
X+7425798Y+2000732D01*
X+7416576Y+2011112D01*
X+7406081Y+2018800D01*
X+7395586Y+2023718D01*
X+7385091Y+2026524D01*
X+7374596Y+2027497D01*
X+7374000Y+2027500D01*
X+7310500Y+1964000D02*
X+7310717Y+1969247D01*
X+7312482Y+1979742D01*
X+7316174Y+1990237D01*
X+7322202Y+2000732D01*
X+7331424Y+2011112D01*
X+7341919Y+2018800D01*
X+7352414Y+2023718D01*
X+7362909Y+2026524D01*
X+7373404Y+2027497D01*
X+7374000Y+2027500D01*
X+7310500Y+1964000D02*
X+7310717Y+1958753D01*
X+7312482Y+1948258D01*
X+7316174Y+1937763D01*
X+7322202Y+1927268D01*
X+7331424Y+1916888D01*
X+7341919Y+1909200D01*
X+7352414Y+1904282D01*
X+7362909Y+1901476D01*
X+7373404Y+1900503D01*
X+7374000Y+1900500D01*
X+7437500Y+1964000D02*
X+7437283Y+1958753D01*
X+7435518Y+1948258D01*
X+7431826Y+1937763D01*
X+7425798Y+1927268D01*
X+7416576Y+1916888D01*
X+7406081Y+1909200D01*
X+7395586Y+1904282D01*
X+7385091Y+1901476D01*
X+7374596Y+1900503D01*
X+7374000Y+1900500D01*
X+7329099Y+2008901D02*
X+7418901Y+1919099D01*
X+7329099Y+1919099D02*
X+7418901Y+2008901D01*
X+7691500Y+1964000D02*
X+7691283Y+1969247D01*
X+7689518Y+1979742D01*
X+7685826Y+1990237D01*
X+7679798Y+2000732D01*
X+7670576Y+2011112D01*
X+7660081Y+2018800D01*
X+7649586Y+2023718D01*
X+7639091Y+2026524D01*
X+7628596Y+2027497D01*
X+7628000Y+2027500D01*
X+7564500Y+1964000D02*
X+7564717Y+1969247D01*
X+7566482Y+1979742D01*
X+7570174Y+1990237D01*
X+7576202Y+2000732D01*
X+7585424Y+2011112D01*
X+7595919Y+2018800D01*
X+7606414Y+2023718D01*
X+7616909Y+2026524D01*
X+7627404Y+2027497D01*
X+7628000Y+2027500D01*
X+7564500Y+1964000D02*
X+7564717Y+1958753D01*
X+7566482Y+1948258D01*
X+7570174Y+1937763D01*
X+7576202Y+1927268D01*
X+7585424Y+1916888D01*
X+7595919Y+1909200D01*
X+7606414Y+1904282D01*
X+7616909Y+1901476D01*
X+7627404Y+1900503D01*
X+7628000Y+1900500D01*
X+7691500Y+1964000D02*
X+7691283Y+1958753D01*
X+7689518Y+1948258D01*
X+7685826Y+1937763D01*
X+7679798Y+1927268D01*
X+7670576Y+1916888D01*
X+7660081Y+1909200D01*
X+7649586Y+1904282D01*
X+7639091Y+1901476D01*
X+7628596Y+1900503D01*
X+7628000Y+1900500D01*
X+7583099Y+2008901D02*
X+7672901Y+1919099D01*
X+7583099Y+1919099D02*
X+7672901Y+2008901D01*
X+7945500Y+1964000D02*
X+7945283Y+1969247D01*
X+7943518Y+1979742D01*
X+7939826Y+1990237D01*
X+7933798Y+2000732D01*
X+7924576Y+2011112D01*
X+7914081Y+2018800D01*
X+7903586Y+2023718D01*
X+7893091Y+2026524D01*
X+7882596Y+2027497D01*
X+7882000Y+2027500D01*
X+7818500Y+1964000D02*
X+7818717Y+1969247D01*
X+7820482Y+1979742D01*
X+7824174Y+1990237D01*
X+7830202Y+2000732D01*
X+7839424Y+2011112D01*
X+7849919Y+2018800D01*
X+7860414Y+2023718D01*
X+7870909Y+2026524D01*
X+7881404Y+2027497D01*
X+7882000Y+2027500D01*
X+7818500Y+1964000D02*
X+7818717Y+1958753D01*
X+7820482Y+1948258D01*
X+7824174Y+1937763D01*
X+7830202Y+1927268D01*
X+7839424Y+1916888D01*
X+7849919Y+1909200D01*
X+7860414Y+1904282D01*
X+7870909Y+1901476D01*
X+7881404Y+1900503D01*
X+7882000Y+1900500D01*
X+7945500Y+1964000D02*
X+7945283Y+1958753D01*
X+7943518Y+1948258D01*
X+7939826Y+1937763D01*
X+7933798Y+1927268D01*
X+7924576Y+1916888D01*
X+7914081Y+1909200D01*
X+7903586Y+1904282D01*
X+7893091Y+1901476D01*
X+7882596Y+1900503D01*
X+7882000Y+1900500D01*
X+7837099Y+2008901D02*
X+7926901Y+1919099D01*
X+7837099Y+1919099D02*
X+7926901Y+2008901D01*
X+8199500Y+1964000D02*
X+8199283Y+1969247D01*
X+8197518Y+1979742D01*
X+8193826Y+1990237D01*
X+8187798Y+2000732D01*
X+8178576Y+2011112D01*
X+8168081Y+2018800D01*
X+8157586Y+2023718D01*
X+8147091Y+2026524D01*
X+8136596Y+2027497D01*
X+8136000Y+2027500D01*
X+8072500Y+1964000D02*
X+8072717Y+1969247D01*
X+8074482Y+1979742D01*
X+8078174Y+1990237D01*
X+8084202Y+2000732D01*
X+8093424Y+2011112D01*
X+8103919Y+2018800D01*
X+8114414Y+2023718D01*
X+8124909Y+2026524D01*
X+8135404Y+2027497D01*
X+8136000Y+2027500D01*
X+8072500Y+1964000D02*
X+8072717Y+1958753D01*
X+8074482Y+1948258D01*
X+8078174Y+1937763D01*
X+8084202Y+1927268D01*
X+8093424Y+1916888D01*
X+8103919Y+1909200D01*
X+8114414Y+1904282D01*
X+8124909Y+1901476D01*
X+8135404Y+1900503D01*
X+8136000Y+1900500D01*
X+8199500Y+1964000D02*
X+8199283Y+1958753D01*
X+8197518Y+1948258D01*
X+8193826Y+1937763D01*
X+8187798Y+1927268D01*
X+8178576Y+1916888D01*
X+8168081Y+1909200D01*
X+8157586Y+1904282D01*
X+8147091Y+1901476D01*
X+8136596Y+1900503D01*
X+8136000Y+1900500D01*
X+8091099Y+2008901D02*
X+8180901Y+1919099D01*
X+8091099Y+1919099D02*
X+8180901Y+2008901D01*
X+8453500Y+1964000D02*
X+8453283Y+1969247D01*
X+8451518Y+1979742D01*
X+8447826Y+1990237D01*
X+8441798Y+2000732D01*
X+8432576Y+2011112D01*
X+8422081Y+2018800D01*
X+8411586Y+2023718D01*
X+8401091Y+2026524D01*
X+8390596Y+2027497D01*
X+8390000Y+2027500D01*
X+8326500Y+1964000D02*
X+8326717Y+1969247D01*
X+8328482Y+1979742D01*
X+8332174Y+1990237D01*
X+8338202Y+2000732D01*
X+8347424Y+2011112D01*
X+8357919Y+2018800D01*
X+8368414Y+2023718D01*
X+8378909Y+2026524D01*
X+8389404Y+2027497D01*
X+8390000Y+2027500D01*
X+8326500Y+1964000D02*
X+8326717Y+1958753D01*
X+8328482Y+1948258D01*
X+8332174Y+1937763D01*
X+8338202Y+1927268D01*
X+8347424Y+1916888D01*
X+8357919Y+1909200D01*
X+8368414Y+1904282D01*
X+8378909Y+1901476D01*
X+8389404Y+1900503D01*
X+8390000Y+1900500D01*
X+8453500Y+1964000D02*
X+8453283Y+1958753D01*
X+8451518Y+1948258D01*
X+8447826Y+1937763D01*
X+8441798Y+1927268D01*
X+8432576Y+1916888D01*
X+8422081Y+1909200D01*
X+8411586Y+1904282D01*
X+8401091Y+1901476D01*
X+8390596Y+1900503D01*
X+8390000Y+1900500D01*
X+8345099Y+2008901D02*
X+8434901Y+1919099D01*
X+8345099Y+1919099D02*
X+8434901Y+2008901D01*
X+4516500Y+6790000D02*
X+4516283Y+6795247D01*
X+4514518Y+6805742D01*
X+4510826Y+6816237D01*
X+4504798Y+6826732D01*
X+4495576Y+6837112D01*
X+4485081Y+6844800D01*
X+4474586Y+6849718D01*
X+4464091Y+6852524D01*
X+4453596Y+6853497D01*
X+4453000Y+6853500D01*
X+4389500Y+6790000D02*
X+4389717Y+6795247D01*
X+4391482Y+6805742D01*
X+4395174Y+6816237D01*
X+4401202Y+6826732D01*
X+4410424Y+6837112D01*
X+4420919Y+6844800D01*
X+4431414Y+6849718D01*
X+4441909Y+6852524D01*
X+4452404Y+6853497D01*
X+4453000Y+6853500D01*
X+4389500Y+6790000D02*
X+4389717Y+6784753D01*
X+4391482Y+6774258D01*
X+4395174Y+6763763D01*
X+4401202Y+6753268D01*
X+4410424Y+6742888D01*
X+4420919Y+6735200D01*
X+4431414Y+6730282D01*
X+4441909Y+6727476D01*
X+4452404Y+6726503D01*
X+4453000Y+6726500D01*
X+4516500Y+6790000D02*
X+4516283Y+6784753D01*
X+4514518Y+6774258D01*
X+4510826Y+6763763D01*
X+4504798Y+6753268D01*
X+4495576Y+6742888D01*
X+4485081Y+6735200D01*
X+4474586Y+6730282D01*
X+4464091Y+6727476D01*
X+4453596Y+6726503D01*
X+4453000Y+6726500D01*
X+4408099Y+6834901D02*
X+4497901Y+6745099D01*
X+4408099Y+6745099D02*
X+4497901Y+6834901D01*
X+6167500Y+1964000D02*
X+6167283Y+1969247D01*
X+6165518Y+1979742D01*
X+6161826Y+1990237D01*
X+6155798Y+2000732D01*
X+6146576Y+2011112D01*
X+6136081Y+2018800D01*
X+6125586Y+2023718D01*
X+6115091Y+2026524D01*
X+6104596Y+2027497D01*
X+6104000Y+2027500D01*
X+6040500Y+1964000D02*
X+6040717Y+1969247D01*
X+6042482Y+1979742D01*
X+6046174Y+1990237D01*
X+6052202Y+2000732D01*
X+6061424Y+2011112D01*
X+6071919Y+2018800D01*
X+6082414Y+2023718D01*
X+6092909Y+2026524D01*
X+6103404Y+2027497D01*
X+6104000Y+2027500D01*
X+6040500Y+1964000D02*
X+6040717Y+1958753D01*
X+6042482Y+1948258D01*
X+6046174Y+1937763D01*
X+6052202Y+1927268D01*
X+6061424Y+1916888D01*
X+6071919Y+1909200D01*
X+6082414Y+1904282D01*
X+6092909Y+1901476D01*
X+6103404Y+1900503D01*
X+6104000Y+1900500D01*
X+6167500Y+1964000D02*
X+6167283Y+1958753D01*
X+6165518Y+1948258D01*
X+6161826Y+1937763D01*
X+6155798Y+1927268D01*
X+6146576Y+1916888D01*
X+6136081Y+1909200D01*
X+6125586Y+1904282D01*
X+6115091Y+1901476D01*
X+6104596Y+1900503D01*
X+6104000Y+1900500D01*
X+6059099Y+2008901D02*
X+6148901Y+1919099D01*
X+6059099Y+1919099D02*
X+6148901Y+2008901D01*
X+6421500Y+1964000D02*
X+6421283Y+1969247D01*
X+6419518Y+1979742D01*
X+6415826Y+1990237D01*
X+6409798Y+2000732D01*
X+6400576Y+2011112D01*
X+6390081Y+2018800D01*
X+6379586Y+2023718D01*
X+6369091Y+2026524D01*
X+6358596Y+2027497D01*
X+6358000Y+2027500D01*
X+6294500Y+1964000D02*
X+6294717Y+1969247D01*
X+6296482Y+1979742D01*
X+6300174Y+1990237D01*
X+6306202Y+2000732D01*
X+6315424Y+2011112D01*
X+6325919Y+2018800D01*
X+6336414Y+2023718D01*
X+6346909Y+2026524D01*
X+6357404Y+2027497D01*
X+6358000Y+2027500D01*
X+6294500Y+1964000D02*
X+6294717Y+1958753D01*
X+6296482Y+1948258D01*
X+6300174Y+1937763D01*
X+6306202Y+1927268D01*
X+6315424Y+1916888D01*
X+6325919Y+1909200D01*
X+6336414Y+1904282D01*
X+6346909Y+1901476D01*
X+6357404Y+1900503D01*
X+6358000Y+1900500D01*
X+6421500Y+1964000D02*
X+6421283Y+1958753D01*
X+6419518Y+1948258D01*
X+6415826Y+1937763D01*
X+6409798Y+1927268D01*
X+6400576Y+1916888D01*
X+6390081Y+1909200D01*
X+6379586Y+1904282D01*
X+6369091Y+1901476D01*
X+6358596Y+1900503D01*
X+6358000Y+1900500D01*
X+6313099Y+2008901D02*
X+6402901Y+1919099D01*
X+6313099Y+1919099D02*
X+6402901Y+2008901D01*
X+4770500Y+6790000D02*
X+4770283Y+6795247D01*
X+4768518Y+6805742D01*
X+4764826Y+6816237D01*
X+4758798Y+6826732D01*
X+4749576Y+6837112D01*
X+4739081Y+6844800D01*
X+4728586Y+6849718D01*
X+4718091Y+6852524D01*
X+4707596Y+6853497D01*
X+4707000Y+6853500D01*
X+4643500Y+6790000D02*
X+4643717Y+6795247D01*
X+4645482Y+6805742D01*
X+4649174Y+6816237D01*
X+4655202Y+6826732D01*
X+4664424Y+6837112D01*
X+4674919Y+6844800D01*
X+4685414Y+6849718D01*
X+4695909Y+6852524D01*
X+4706404Y+6853497D01*
X+4707000Y+6853500D01*
X+4643500Y+6790000D02*
X+4643717Y+6784753D01*
X+4645482Y+6774258D01*
X+4649174Y+6763763D01*
X+4655202Y+6753268D01*
X+4664424Y+6742888D01*
X+4674919Y+6735200D01*
X+4685414Y+6730282D01*
X+4695909Y+6727476D01*
X+4706404Y+6726503D01*
X+4707000Y+6726500D01*
X+4770500Y+6790000D02*
X+4770283Y+6784753D01*
X+4768518Y+6774258D01*
X+4764826Y+6763763D01*
X+4758798Y+6753268D01*
X+4749576Y+6742888D01*
X+4739081Y+6735200D01*
X+4728586Y+6730282D01*
X+4718091Y+6727476D01*
X+4707596Y+6726503D01*
X+4707000Y+6726500D01*
X+4662099Y+6834901D02*
X+4751901Y+6745099D01*
X+4662099Y+6745099D02*
X+4751901Y+6834901D01*
X+5151500Y+1964000D02*
X+5151283Y+1969247D01*
X+5149518Y+1979742D01*
X+5145826Y+1990237D01*
X+5139798Y+2000732D01*
X+5130576Y+2011112D01*
X+5120081Y+2018800D01*
X+5109586Y+2023718D01*
X+5099091Y+2026524D01*
X+5088596Y+2027497D01*
X+5088000Y+2027500D01*
X+5024500Y+1964000D02*
X+5024717Y+1969247D01*
X+5026482Y+1979742D01*
X+5030174Y+1990237D01*
X+5036202Y+2000732D01*
X+5045424Y+2011112D01*
X+5055919Y+2018800D01*
X+5066414Y+2023718D01*
X+5076909Y+2026524D01*
X+5087404Y+2027497D01*
X+5088000Y+2027500D01*
X+5024500Y+1964000D02*
X+5024717Y+1958753D01*
X+5026482Y+1948258D01*
X+5030174Y+1937763D01*
X+5036202Y+1927268D01*
X+5045424Y+1916888D01*
X+5055919Y+1909200D01*
X+5066414Y+1904282D01*
X+5076909Y+1901476D01*
X+5087404Y+1900503D01*
X+5088000Y+1900500D01*
X+5151500Y+1964000D02*
X+5151283Y+1958753D01*
X+5149518Y+1948258D01*
X+5145826Y+1937763D01*
X+5139798Y+1927268D01*
X+5130576Y+1916888D01*
X+5120081Y+1909200D01*
X+5109586Y+1904282D01*
X+5099091Y+1901476D01*
X+5088596Y+1900503D01*
X+5088000Y+1900500D01*
X+5043099Y+2008901D02*
X+5132901Y+1919099D01*
X+5043099Y+1919099D02*
X+5132901Y+2008901D01*
X+5405500Y+1964000D02*
X+5405283Y+1969247D01*
X+5403518Y+1979742D01*
X+5399826Y+1990237D01*
X+5393798Y+2000732D01*
X+5384576Y+2011112D01*
X+5374081Y+2018800D01*
X+5363586Y+2023718D01*
X+5353091Y+2026524D01*
X+5342596Y+2027497D01*
X+5342000Y+2027500D01*
X+5278500Y+1964000D02*
X+5278717Y+1969247D01*
X+5280482Y+1979742D01*
X+5284174Y+1990237D01*
X+5290202Y+2000732D01*
X+5299424Y+2011112D01*
X+5309919Y+2018800D01*
X+5320414Y+2023718D01*
X+5330909Y+2026524D01*
X+5341404Y+2027497D01*
X+5342000Y+2027500D01*
X+5278500Y+1964000D02*
X+5278717Y+1958753D01*
X+5280482Y+1948258D01*
X+5284174Y+1937763D01*
X+5290202Y+1927268D01*
X+5299424Y+1916888D01*
X+5309919Y+1909200D01*
X+5320414Y+1904282D01*
X+5330909Y+1901476D01*
X+5341404Y+1900503D01*
X+5342000Y+1900500D01*
X+5405500Y+1964000D02*
X+5405283Y+1958753D01*
X+5403518Y+1948258D01*
X+5399826Y+1937763D01*
X+5393798Y+1927268D01*
X+5384576Y+1916888D01*
X+5374081Y+1909200D01*
X+5363586Y+1904282D01*
X+5353091Y+1901476D01*
X+5342596Y+1900503D01*
X+5342000Y+1900500D01*
X+5297099Y+2008901D02*
X+5386901Y+1919099D01*
X+5297099Y+1919099D02*
X+5386901Y+2008901D01*
X+4008500Y+6790000D02*
X+4008283Y+6795247D01*
X+4006518Y+6805742D01*
X+4002826Y+6816237D01*
X+3996798Y+6826732D01*
X+3987576Y+6837112D01*
X+3977081Y+6844800D01*
X+3966586Y+6849718D01*
X+3956091Y+6852524D01*
X+3945596Y+6853497D01*
X+3945000Y+6853500D01*
X+3881500Y+6790000D02*
X+3881717Y+6795247D01*
X+3883482Y+6805742D01*
X+3887174Y+6816237D01*
X+3893202Y+6826732D01*
X+3902424Y+6837112D01*
X+3912919Y+6844800D01*
X+3923414Y+6849718D01*
X+3933909Y+6852524D01*
X+3944404Y+6853497D01*
X+3945000Y+6853500D01*
X+3881500Y+6790000D02*
X+3881717Y+6784753D01*
X+3883482Y+6774258D01*
X+3887174Y+6763763D01*
X+3893202Y+6753268D01*
X+3902424Y+6742888D01*
X+3912919Y+6735200D01*
X+3923414Y+6730282D01*
X+3933909Y+6727476D01*
X+3944404Y+6726503D01*
X+3945000Y+6726500D01*
X+4008500Y+6790000D02*
X+4008283Y+6784753D01*
X+4006518Y+6774258D01*
X+4002826Y+6763763D01*
X+3996798Y+6753268D01*
X+3987576Y+6742888D01*
X+3977081Y+6735200D01*
X+3966586Y+6730282D01*
X+3956091Y+6727476D01*
X+3945596Y+6726503D01*
X+3945000Y+6726500D01*
X+3900099Y+6834901D02*
X+3989901Y+6745099D01*
X+3900099Y+6745099D02*
X+3989901Y+6834901D01*
X+4262500Y+6790000D02*
X+4262283Y+6795247D01*
X+4260518Y+6805742D01*
X+4256826Y+6816237D01*
X+4250798Y+6826732D01*
X+4241576Y+6837112D01*
X+4231081Y+6844800D01*
X+4220586Y+6849718D01*
X+4210091Y+6852524D01*
X+4199596Y+6853497D01*
X+4199000Y+6853500D01*
X+4135500Y+6790000D02*
X+4135717Y+6795247D01*
X+4137482Y+6805742D01*
X+4141174Y+6816237D01*
X+4147202Y+6826732D01*
X+4156424Y+6837112D01*
X+4166919Y+6844800D01*
X+4177414Y+6849718D01*
X+4187909Y+6852524D01*
X+4198404Y+6853497D01*
X+4199000Y+6853500D01*
X+4135500Y+6790000D02*
X+4135717Y+6784753D01*
X+4137482Y+6774258D01*
X+4141174Y+6763763D01*
X+4147202Y+6753268D01*
X+4156424Y+6742888D01*
X+4166919Y+6735200D01*
X+4177414Y+6730282D01*
X+4187909Y+6727476D01*
X+4198404Y+6726503D01*
X+4199000Y+6726500D01*
X+4262500Y+6790000D02*
X+4262283Y+6784753D01*
X+4260518Y+6774258D01*
X+4256826Y+6763763D01*
X+4250798Y+6753268D01*
X+4241576Y+6742888D01*
X+4231081Y+6735200D01*
X+4220586Y+6730282D01*
X+4210091Y+6727476D01*
X+4199596Y+6726503D01*
X+4199000Y+6726500D01*
X+4154099Y+6834901D02*
X+4243901Y+6745099D01*
X+4154099Y+6745099D02*
X+4243901Y+6834901D01*
X+6675500Y+1964000D02*
X+6675283Y+1969247D01*
X+6673518Y+1979742D01*
X+6669826Y+1990237D01*
X+6663798Y+2000732D01*
X+6654576Y+2011112D01*
X+6644081Y+2018800D01*
X+6633586Y+2023718D01*
X+6623091Y+2026524D01*
X+6612596Y+2027497D01*
X+6612000Y+2027500D01*
X+6548500Y+1964000D02*
X+6548717Y+1969247D01*
X+6550482Y+1979742D01*
X+6554174Y+1990237D01*
X+6560202Y+2000732D01*
X+6569424Y+2011112D01*
X+6579919Y+2018800D01*
X+6590414Y+2023718D01*
X+6600909Y+2026524D01*
X+6611404Y+2027497D01*
X+6612000Y+2027500D01*
X+6548500Y+1964000D02*
X+6548717Y+1958753D01*
X+6550482Y+1948258D01*
X+6554174Y+1937763D01*
X+6560202Y+1927268D01*
X+6569424Y+1916888D01*
X+6579919Y+1909200D01*
X+6590414Y+1904282D01*
X+6600909Y+1901476D01*
X+6611404Y+1900503D01*
X+6612000Y+1900500D01*
X+6675500Y+1964000D02*
X+6675283Y+1958753D01*
X+6673518Y+1948258D01*
X+6669826Y+1937763D01*
X+6663798Y+1927268D01*
X+6654576Y+1916888D01*
X+6644081Y+1909200D01*
X+6633586Y+1904282D01*
X+6623091Y+1901476D01*
X+6612596Y+1900503D01*
X+6612000Y+1900500D01*
X+6567099Y+2008901D02*
X+6656901Y+1919099D01*
X+6567099Y+1919099D02*
X+6656901Y+2008901D01*
X+7648000Y+6207500D02*
X+7648000Y+6080500D01*
X+7584500Y+6144000D02*
X+7711500Y+6144000D01*
X+7648000Y+5953500D02*
X+7648000Y+5826500D01*
X+7584500Y+5890000D02*
X+7711500Y+5890000D01*
X+7648000Y+5699500D02*
X+7648000Y+5572500D01*
X+7584500Y+5636000D02*
X+7711500Y+5636000D01*
X+7648000Y+5445500D02*
X+7648000Y+5318500D01*
X+7584500Y+5382000D02*
X+7711500Y+5382000D01*
X+7648000Y+5191500D02*
X+7648000Y+5064500D01*
X+7584500Y+5128000D02*
X+7711500Y+5128000D01*
X+7648000Y+4937500D02*
X+7648000Y+4810500D01*
X+7584500Y+4874000D02*
X+7711500Y+4874000D01*
X+7648000Y+4683500D02*
X+7648000Y+4556500D01*
X+7584500Y+4620000D02*
X+7711500Y+4620000D01*
X+8410000Y+4683500D02*
X+8410000Y+4556500D01*
X+8346500Y+4620000D02*
X+8473500Y+4620000D01*
X+8410000Y+4937500D02*
X+8410000Y+4810500D01*
X+8346500Y+4874000D02*
X+8473500Y+4874000D01*
X+8410000Y+5191500D02*
X+8410000Y+5064500D01*
X+8346500Y+5128000D02*
X+8473500Y+5128000D01*
X+8410000Y+5445500D02*
X+8410000Y+5318500D01*
X+8346500Y+5382000D02*
X+8473500Y+5382000D01*
X+8410000Y+5699500D02*
X+8410000Y+5572500D01*
X+8346500Y+5636000D02*
X+8473500Y+5636000D01*
X+8410000Y+5953500D02*
X+8410000Y+5826500D01*
X+8346500Y+5890000D02*
X+8473500Y+5890000D01*
X+8410000Y+6207500D02*
X+8410000Y+6080500D01*
X+8346500Y+6144000D02*
X+8473500Y+6144000D01*
X+6940000Y+4763500D02*
X+6940000Y+4636500D01*
X+6876500Y+4700000D02*
X+7003500Y+4700000D01*
X+6940000Y+5017500D02*
X+6940000Y+4890500D01*
X+6876500Y+4954000D02*
X+7003500Y+4954000D01*
X+6940000Y+5271500D02*
X+6940000Y+5144500D01*
X+6876500Y+5208000D02*
X+7003500Y+5208000D01*
X+6940000Y+5525500D02*
X+6940000Y+5398500D01*
X+6876500Y+5462000D02*
X+7003500Y+5462000D01*
X+6940000Y+5779500D02*
X+6940000Y+5652500D01*
X+6876500Y+5716000D02*
X+7003500Y+5716000D01*
X+6940000Y+6033500D02*
X+6940000Y+5906500D01*
X+6876500Y+5970000D02*
X+7003500Y+5970000D01*
X+6940000Y+6287500D02*
X+6940000Y+6160500D01*
X+6876500Y+6224000D02*
X+7003500Y+6224000D01*
X+6178000Y+6287500D02*
X+6178000Y+6160500D01*
X+6114500Y+6224000D02*
X+6241500Y+6224000D01*
X+6178000Y+6033500D02*
X+6178000Y+5906500D01*
X+6114500Y+5970000D02*
X+6241500Y+5970000D01*
X+6178000Y+5779500D02*
X+6178000Y+5652500D01*
X+6114500Y+5716000D02*
X+6241500Y+5716000D01*
X+6178000Y+5525500D02*
X+6178000Y+5398500D01*
X+6114500Y+5462000D02*
X+6241500Y+5462000D01*
X+6178000Y+5271500D02*
X+6178000Y+5144500D01*
X+6114500Y+5208000D02*
X+6241500Y+5208000D01*
X+6178000Y+5017500D02*
X+6178000Y+4890500D01*
X+6114500Y+4954000D02*
X+6241500Y+4954000D01*
X+6178000Y+4763500D02*
X+6178000Y+4636500D01*
X+6114500Y+4700000D02*
X+6241500Y+4700000D01*
X+6575099Y+2394901D02*
X+6664901Y+2305099D01*
X+6575099Y+2305099D02*
X+6664901Y+2394901D01*
X+9493500Y+6280000D02*
X+9493283Y+6285247D01*
X+9491518Y+6295742D01*
X+9487826Y+6306237D01*
X+9481798Y+6316732D01*
X+9472576Y+6327112D01*
X+9462081Y+6334800D01*
X+9451586Y+6339718D01*
X+9441091Y+6342524D01*
X+9430596Y+6343497D01*
X+9430000Y+6343500D01*
X+9366500Y+6280000D02*
X+9366717Y+6285247D01*
X+9368482Y+6295742D01*
X+9372174Y+6306237D01*
X+9378202Y+6316732D01*
X+9387424Y+6327112D01*
X+9397919Y+6334800D01*
X+9408414Y+6339718D01*
X+9418909Y+6342524D01*
X+9429404Y+6343497D01*
X+9430000Y+6343500D01*
X+9366500Y+6280000D02*
X+9366717Y+6274753D01*
X+9368482Y+6264258D01*
X+9372174Y+6253763D01*
X+9378202Y+6243268D01*
X+9387424Y+6232888D01*
X+9397919Y+6225200D01*
X+9408414Y+6220282D01*
X+9418909Y+6217476D01*
X+9429404Y+6216503D01*
X+9430000Y+6216500D01*
X+9493500Y+6280000D02*
X+9493283Y+6274753D01*
X+9491518Y+6264258D01*
X+9487826Y+6253763D01*
X+9481798Y+6243268D01*
X+9472576Y+6232888D01*
X+9462081Y+6225200D01*
X+9451586Y+6220282D01*
X+9441091Y+6217476D01*
X+9430596Y+6216503D01*
X+9430000Y+6216500D01*
X+9430000Y+6343500D02*
X+9430000Y+6216500D01*
X+9366500Y+6280000D02*
X+9493500Y+6280000D01*
X+9493500Y+5080000D02*
X+9493283Y+5085247D01*
X+9491518Y+5095742D01*
X+9487826Y+5106237D01*
X+9481798Y+5116732D01*
X+9472576Y+5127112D01*
X+9462081Y+5134800D01*
X+9451586Y+5139718D01*
X+9441091Y+5142524D01*
X+9430596Y+5143497D01*
X+9430000Y+5143500D01*
X+9366500Y+5080000D02*
X+9366717Y+5085247D01*
X+9368482Y+5095742D01*
X+9372174Y+5106237D01*
X+9378202Y+5116732D01*
X+9387424Y+5127112D01*
X+9397919Y+5134800D01*
X+9408414Y+5139718D01*
X+9418909Y+5142524D01*
X+9429404Y+5143497D01*
X+9430000Y+5143500D01*
X+9366500Y+5080000D02*
X+9366717Y+5074753D01*
X+9368482Y+5064258D01*
X+9372174Y+5053763D01*
X+9378202Y+5043268D01*
X+9387424Y+5032888D01*
X+9397919Y+5025200D01*
X+9408414Y+5020282D01*
X+9418909Y+5017476D01*
X+9429404Y+5016503D01*
X+9430000Y+5016500D01*
X+9493500Y+5080000D02*
X+9493283Y+5074753D01*
X+9491518Y+5064258D01*
X+9487826Y+5053763D01*
X+9481798Y+5043268D01*
X+9472576Y+5032888D01*
X+9462081Y+5025200D01*
X+9451586Y+5020282D01*
X+9441091Y+5017476D01*
X+9430596Y+5016503D01*
X+9430000Y+5016500D01*
X+9430000Y+5143500D02*
X+9430000Y+5016500D01*
X+9366500Y+5080000D02*
X+9493500Y+5080000D01*
X+9293500Y+5680000D02*
X+9293283Y+5685247D01*
X+9291518Y+5695742D01*
X+9287826Y+5706237D01*
X+9281798Y+5716732D01*
X+9272576Y+5727112D01*
X+9262081Y+5734800D01*
X+9251586Y+5739718D01*
X+9241091Y+5742524D01*
X+9230596Y+5743497D01*
X+9230000Y+5743500D01*
X+9166500Y+5680000D02*
X+9166717Y+5685247D01*
X+9168482Y+5695742D01*
X+9172174Y+5706237D01*
X+9178202Y+5716732D01*
X+9187424Y+5727112D01*
X+9197919Y+5734800D01*
X+9208414Y+5739718D01*
X+9218909Y+5742524D01*
X+9229404Y+5743497D01*
X+9230000Y+5743500D01*
X+9166500Y+5680000D02*
X+9166717Y+5674753D01*
X+9168482Y+5664258D01*
X+9172174Y+5653763D01*
X+9178202Y+5643268D01*
X+9187424Y+5632888D01*
X+9197919Y+5625200D01*
X+9208414Y+5620282D01*
X+9218909Y+5617476D01*
X+9229404Y+5616503D01*
X+9230000Y+5616500D01*
X+9293500Y+5680000D02*
X+9293283Y+5674753D01*
X+9291518Y+5664258D01*
X+9287826Y+5653763D01*
X+9281798Y+5643268D01*
X+9272576Y+5632888D01*
X+9262081Y+5625200D01*
X+9251586Y+5620282D01*
X+9241091Y+5617476D01*
X+9230596Y+5616503D01*
X+9230000Y+5616500D01*
X+9230000Y+5743500D02*
X+9230000Y+5616500D01*
X+9166500Y+5680000D02*
X+9293500Y+5680000D01*
X+10713500Y+6280000D02*
X+10713283Y+6285247D01*
X+10711518Y+6295742D01*
X+10707826Y+6306237D01*
X+10701798Y+6316732D01*
X+10692576Y+6327112D01*
X+10682081Y+6334800D01*
X+10671586Y+6339718D01*
X+10661091Y+6342524D01*
X+10650596Y+6343497D01*
X+10650000Y+6343500D01*
X+10586500Y+6280000D02*
X+10586717Y+6285247D01*
X+10588482Y+6295742D01*
X+10592174Y+6306237D01*
X+10598202Y+6316732D01*
X+10607424Y+6327112D01*
X+10617919Y+6334800D01*
X+10628414Y+6339718D01*
X+10638909Y+6342524D01*
X+10649404Y+6343497D01*
X+10650000Y+6343500D01*
X+10586500Y+6280000D02*
X+10586717Y+6274753D01*
X+10588482Y+6264258D01*
X+10592174Y+6253763D01*
X+10598202Y+6243268D01*
X+10607424Y+6232888D01*
X+10617919Y+6225200D01*
X+10628414Y+6220282D01*
X+10638909Y+6217476D01*
X+10649404Y+6216503D01*
X+10650000Y+6216500D01*
X+10713500Y+6280000D02*
X+10713283Y+6274753D01*
X+10711518Y+6264258D01*
X+10707826Y+6253763D01*
X+10701798Y+6243268D01*
X+10692576Y+6232888D01*
X+10682081Y+6225200D01*
X+10671586Y+6220282D01*
X+10661091Y+6217476D01*
X+10650596Y+6216503D01*
X+10650000Y+6216500D01*
X+10650000Y+6343500D02*
X+10650000Y+6216500D01*
X+10586500Y+6280000D02*
X+10713500Y+6280000D01*
X+10713500Y+5080000D02*
X+10713283Y+5085247D01*
X+10711518Y+5095742D01*
X+10707826Y+5106237D01*
X+10701798Y+5116732D01*
X+10692576Y+5127112D01*
X+10682081Y+5134800D01*
X+10671586Y+5139718D01*
X+10661091Y+5142524D01*
X+10650596Y+5143497D01*
X+10650000Y+5143500D01*
X+10586500Y+5080000D02*
X+10586717Y+5085247D01*
X+10588482Y+5095742D01*
X+10592174Y+5106237D01*
X+10598202Y+5116732D01*
X+10607424Y+5127112D01*
X+10617919Y+5134800D01*
X+10628414Y+5139718D01*
X+10638909Y+5142524D01*
X+10649404Y+5143497D01*
X+10650000Y+5143500D01*
X+10586500Y+5080000D02*
X+10586717Y+5074753D01*
X+10588482Y+5064258D01*
X+10592174Y+5053763D01*
X+10598202Y+5043268D01*
X+10607424Y+5032888D01*
X+10617919Y+5025200D01*
X+10628414Y+5020282D01*
X+10638909Y+5017476D01*
X+10649404Y+5016503D01*
X+10650000Y+5016500D01*
X+10713500Y+5080000D02*
X+10713283Y+5074753D01*
X+10711518Y+5064258D01*
X+10707826Y+5053763D01*
X+10701798Y+5043268D01*
X+10692576Y+5032888D01*
X+10682081Y+5025200D01*
X+10671586Y+5020282D01*
X+10661091Y+5017476D01*
X+10650596Y+5016503D01*
X+10650000Y+5016500D01*
X+10650000Y+5143500D02*
X+10650000Y+5016500D01*
X+10586500Y+5080000D02*
X+10713500Y+5080000D01*
X+9493500Y+4540000D02*
X+9493283Y+4545247D01*
X+9491518Y+4555742D01*
X+9487826Y+4566237D01*
X+9481798Y+4576732D01*
X+9472576Y+4587112D01*
X+9462081Y+4594800D01*
X+9451586Y+4599718D01*
X+9441091Y+4602524D01*
X+9430596Y+4603497D01*
X+9430000Y+4603500D01*
X+9366500Y+4540000D02*
X+9366717Y+4545247D01*
X+9368482Y+4555742D01*
X+9372174Y+4566237D01*
X+9378202Y+4576732D01*
X+9387424Y+4587112D01*
X+9397919Y+4594800D01*
X+9408414Y+4599718D01*
X+9418909Y+4602524D01*
X+9429404Y+4603497D01*
X+9430000Y+4603500D01*
X+9366500Y+4540000D02*
X+9366717Y+4534753D01*
X+9368482Y+4524258D01*
X+9372174Y+4513763D01*
X+9378202Y+4503268D01*
X+9387424Y+4492888D01*
X+9397919Y+4485200D01*
X+9408414Y+4480282D01*
X+9418909Y+4477476D01*
X+9429404Y+4476503D01*
X+9430000Y+4476500D01*
X+9493500Y+4540000D02*
X+9493283Y+4534753D01*
X+9491518Y+4524258D01*
X+9487826Y+4513763D01*
X+9481798Y+4503268D01*
X+9472576Y+4492888D01*
X+9462081Y+4485200D01*
X+9451586Y+4480282D01*
X+9441091Y+4477476D01*
X+9430596Y+4476503D01*
X+9430000Y+4476500D01*
X+9430000Y+4603500D02*
X+9430000Y+4476500D01*
X+9366500Y+4540000D02*
X+9493500Y+4540000D01*
X+9493500Y+3340000D02*
X+9493283Y+3345247D01*
X+9491518Y+3355742D01*
X+9487826Y+3366237D01*
X+9481798Y+3376732D01*
X+9472576Y+3387112D01*
X+9462081Y+3394800D01*
X+9451586Y+3399718D01*
X+9441091Y+3402524D01*
X+9430596Y+3403497D01*
X+9430000Y+3403500D01*
X+9366500Y+3340000D02*
X+9366717Y+3345247D01*
X+9368482Y+3355742D01*
X+9372174Y+3366237D01*
X+9378202Y+3376732D01*
X+9387424Y+3387112D01*
X+9397919Y+3394800D01*
X+9408414Y+3399718D01*
X+9418909Y+3402524D01*
X+9429404Y+3403497D01*
X+9430000Y+3403500D01*
X+9366500Y+3340000D02*
X+9366717Y+3334753D01*
X+9368482Y+3324258D01*
X+9372174Y+3313763D01*
X+9378202Y+3303268D01*
X+9387424Y+3292888D01*
X+9397919Y+3285200D01*
X+9408414Y+3280282D01*
X+9418909Y+3277476D01*
X+9429404Y+3276503D01*
X+9430000Y+3276500D01*
X+9493500Y+3340000D02*
X+9493283Y+3334753D01*
X+9491518Y+3324258D01*
X+9487826Y+3313763D01*
X+9481798Y+3303268D01*
X+9472576Y+3292888D01*
X+9462081Y+3285200D01*
X+9451586Y+3280282D01*
X+9441091Y+3277476D01*
X+9430596Y+3276503D01*
X+9430000Y+3276500D01*
X+9430000Y+3403500D02*
X+9430000Y+3276500D01*
X+9366500Y+3340000D02*
X+9493500Y+3340000D01*
X+9293500Y+3940000D02*
X+9293283Y+3945247D01*
X+9291518Y+3955742D01*
X+9287826Y+3966237D01*
X+9281798Y+3976732D01*
X+9272576Y+3987112D01*
X+9262081Y+3994800D01*
X+9251586Y+3999718D01*
X+9241091Y+4002524D01*
X+9230596Y+4003497D01*
X+9230000Y+4003500D01*
X+9166500Y+3940000D02*
X+9166717Y+3945247D01*
X+9168482Y+3955742D01*
X+9172174Y+3966237D01*
X+9178202Y+3976732D01*
X+9187424Y+3987112D01*
X+9197919Y+3994800D01*
X+9208414Y+3999718D01*
X+9218909Y+4002524D01*
X+9229404Y+4003497D01*
X+9230000Y+4003500D01*
X+9166500Y+3940000D02*
X+9166717Y+3934753D01*
X+9168482Y+3924258D01*
X+9172174Y+3913763D01*
X+9178202Y+3903268D01*
X+9187424Y+3892888D01*
X+9197919Y+3885200D01*
X+9208414Y+3880282D01*
X+9218909Y+3877476D01*
X+9229404Y+3876503D01*
X+9230000Y+3876500D01*
X+9293500Y+3940000D02*
X+9293283Y+3934753D01*
X+9291518Y+3924258D01*
X+9287826Y+3913763D01*
X+9281798Y+3903268D01*
X+9272576Y+3892888D01*
X+9262081Y+3885200D01*
X+9251586Y+3880282D01*
X+9241091Y+3877476D01*
X+9230596Y+3876503D01*
X+9230000Y+3876500D01*
X+9230000Y+4003500D02*
X+9230000Y+3876500D01*
X+9166500Y+3940000D02*
X+9293500Y+3940000D01*
X+10713500Y+4540000D02*
X+10713283Y+4545247D01*
X+10711518Y+4555742D01*
X+10707826Y+4566237D01*
X+10701798Y+4576732D01*
X+10692576Y+4587112D01*
X+10682081Y+4594800D01*
X+10671586Y+4599718D01*
X+10661091Y+4602524D01*
X+10650596Y+4603497D01*
X+10650000Y+4603500D01*
X+10586500Y+4540000D02*
X+10586717Y+4545247D01*
X+10588482Y+4555742D01*
X+10592174Y+4566237D01*
X+10598202Y+4576732D01*
X+10607424Y+4587112D01*
X+10617919Y+4594800D01*
X+10628414Y+4599718D01*
X+10638909Y+4602524D01*
X+10649404Y+4603497D01*
X+10650000Y+4603500D01*
X+10586500Y+4540000D02*
X+10586717Y+4534753D01*
X+10588482Y+4524258D01*
X+10592174Y+4513763D01*
X+10598202Y+4503268D01*
X+10607424Y+4492888D01*
X+10617919Y+4485200D01*
X+10628414Y+4480282D01*
X+10638909Y+4477476D01*
X+10649404Y+4476503D01*
X+10650000Y+4476500D01*
X+10713500Y+4540000D02*
X+10713283Y+4534753D01*
X+10711518Y+4524258D01*
X+10707826Y+4513763D01*
X+10701798Y+4503268D01*
X+10692576Y+4492888D01*
X+10682081Y+4485200D01*
X+10671586Y+4480282D01*
X+10661091Y+4477476D01*
X+10650596Y+4476503D01*
X+10650000Y+4476500D01*
X+10650000Y+4603500D02*
X+10650000Y+4476500D01*
X+10586500Y+4540000D02*
X+10713500Y+4540000D01*
X+10713500Y+3340000D02*
X+10713283Y+3345247D01*
X+10711518Y+3355742D01*
X+10707826Y+3366237D01*
X+10701798Y+3376732D01*
X+10692576Y+3387112D01*
X+10682081Y+3394800D01*
X+10671586Y+3399718D01*
X+10661091Y+3402524D01*
X+10650596Y+3403497D01*
X+10650000Y+3403500D01*
X+10586500Y+3340000D02*
X+10586717Y+3345247D01*
X+10588482Y+3355742D01*
X+10592174Y+3366237D01*
X+10598202Y+3376732D01*
X+10607424Y+3387112D01*
X+10617919Y+3394800D01*
X+10628414Y+3399718D01*
X+10638909Y+3402524D01*
X+10649404Y+3403497D01*
X+10650000Y+3403500D01*
X+10586500Y+3340000D02*
X+10586717Y+3334753D01*
X+10588482Y+3324258D01*
X+10592174Y+3313763D01*
X+10598202Y+3303268D01*
X+10607424Y+3292888D01*
X+10617919Y+3285200D01*
X+10628414Y+3280282D01*
X+10638909Y+3277476D01*
X+10649404Y+3276503D01*
X+10650000Y+3276500D01*
X+10713500Y+3340000D02*
X+10713283Y+3334753D01*
X+10711518Y+3324258D01*
X+10707826Y+3313763D01*
X+10701798Y+3303268D01*
X+10692576Y+3292888D01*
X+10682081Y+3285200D01*
X+10671586Y+3280282D01*
X+10661091Y+3277476D01*
X+10650596Y+3276503D01*
X+10650000Y+3276500D01*
X+10650000Y+3403500D02*
X+10650000Y+3276500D01*
X+10586500Y+3340000D02*
X+10713500Y+3340000D01*
X+10212000Y+2113500D02*
X+10212000Y+1986500D01*
X+10148500Y+2050000D02*
X+10275500Y+2050000D01*
X+10167099Y+2094901D02*
X+10256901Y+2005099D01*
X+10167099Y+2005099D02*
X+10256901Y+2094901D01*
X+9450000Y+2113500D02*
X+9450000Y+1986500D01*
X+9386500Y+2050000D02*
X+9513500Y+2050000D01*
X+9405099Y+2094901D02*
X+9494901Y+2005099D01*
X+9405099Y+2005099D02*
X+9494901Y+2094901D01*
X+10250000Y+7643500D02*
X+10250000Y+7516500D01*
X+10186500Y+7580000D02*
X+10313500Y+7580000D01*
X+10205099Y+7624901D02*
X+10294901Y+7535099D01*
X+10205099Y+7535099D02*
X+10294901Y+7624901D01*
X+9488000Y+7643500D02*
X+9488000Y+7516500D01*
X+9424500Y+7580000D02*
X+9551500Y+7580000D01*
X+9443099Y+7624901D02*
X+9532901Y+7535099D01*
X+9443099Y+7535099D02*
X+9532901Y+7624901D01*
X+5900000Y+7663500D02*
X+5900000Y+7536500D01*
X+5836500Y+7600000D02*
X+5963500Y+7600000D01*
X+5855099Y+7644901D02*
X+5944901Y+7555099D01*
X+5855099Y+7555099D02*
X+5944901Y+7644901D01*
X+6250000Y+7663500D02*
X+6250000Y+7536500D01*
X+6186500Y+7600000D02*
X+6313500Y+7600000D01*
X+6205099Y+7644901D02*
X+6294901Y+7555099D01*
X+6205099Y+7555099D02*
X+6294901Y+7644901D01*
X+6600000Y+7663500D02*
X+6600000Y+7536500D01*
X+6536500Y+7600000D02*
X+6663500Y+7600000D01*
X+6555099Y+7644901D02*
X+6644901Y+7555099D01*
X+6555099Y+7555099D02*
X+6644901Y+7644901D01*
X+6950000Y+7663500D02*
X+6950000Y+7536500D01*
X+6886500Y+7600000D02*
X+7013500Y+7600000D01*
X+6905099Y+7644901D02*
X+6994901Y+7555099D01*
X+6905099Y+7555099D02*
X+6994901Y+7644901D01*
X+7300000Y+7663500D02*
X+7300000Y+7536500D01*
X+7236500Y+7600000D02*
X+7363500Y+7600000D01*
X+7255099Y+7644901D02*
X+7344901Y+7555099D01*
X+7255099Y+7555099D02*
X+7344901Y+7644901D01*
X+11053500Y+1980000D02*
X+11053283Y+1985247D01*
X+11051518Y+1995742D01*
X+11047826Y+2006237D01*
X+11041798Y+2016732D01*
X+11032576Y+2027112D01*
X+11022081Y+2034800D01*
X+11011586Y+2039718D01*
X+11001091Y+2042524D01*
X+10990596Y+2043497D01*
X+10990000Y+2043500D01*
X+10926500Y+1980000D02*
X+10926717Y+1985247D01*
X+10928482Y+1995742D01*
X+10932174Y+2006237D01*
X+10938202Y+2016732D01*
X+10947424Y+2027112D01*
X+10957919Y+2034800D01*
X+10968414Y+2039718D01*
X+10978909Y+2042524D01*
X+10989404Y+2043497D01*
X+10990000Y+2043500D01*
X+10926500Y+1980000D02*
X+10926717Y+1974753D01*
X+10928482Y+1964258D01*
X+10932174Y+1953763D01*
X+10938202Y+1943268D01*
X+10947424Y+1932888D01*
X+10957919Y+1925200D01*
X+10968414Y+1920282D01*
X+10978909Y+1917476D01*
X+10989404Y+1916503D01*
X+10990000Y+1916500D01*
X+11053500Y+1980000D02*
X+11053283Y+1974753D01*
X+11051518Y+1964258D01*
X+11047826Y+1953763D01*
X+11041798Y+1943268D01*
X+11032576Y+1932888D01*
X+11022081Y+1925200D01*
X+11011586Y+1920282D01*
X+11001091Y+1917476D01*
X+10990596Y+1916503D01*
X+10990000Y+1916500D01*
X+10990000Y+2043500D02*
X+10990000Y+1916500D01*
X+10926500Y+1980000D02*
X+11053500Y+1980000D01*
X+11053283Y+1985247D01*
X+11051518Y+1995742D01*
X+11047826Y+2006237D01*
X+11041798Y+2016732D01*
X+11032576Y+2027112D01*
X+11022081Y+2034800D01*
X+11011586Y+2039718D01*
X+11001091Y+2042524D01*
X+10990596Y+2043497D01*
X+10990000Y+2043500D01*
X+10926500Y+1980000D02*
X+10926717Y+1985247D01*
X+10928482Y+1995742D01*
X+10932174Y+2006237D01*
X+10938202Y+2016732D01*
X+10947424Y+2027112D01*
X+10957919Y+2034800D01*
X+10968414Y+2039718D01*
X+10978909Y+2042524D01*
X+10989404Y+2043497D01*
X+10990000Y+2043500D01*
X+10926500Y+1980000D02*
X+10926717Y+1974753D01*
X+10928482Y+1964258D01*
X+10932174Y+1953763D01*
X+10938202Y+1943268D01*
X+10947424Y+1932888D01*
X+10957919Y+1925200D01*
X+10968414Y+1920282D01*
X+10978909Y+1917476D01*
X+10989404Y+1916503D01*
X+10990000Y+1916500D01*
X+11053500Y+1980000D02*
X+11053283Y+1974753D01*
X+11051518Y+1964258D01*
X+11047826Y+1953763D01*
X+11041798Y+1943268D01*
X+11032576Y+1932888D01*
X+11022081Y+1925200D01*
X+11011586Y+1920282D01*
X+11001091Y+1917476D01*
X+10990596Y+1916503D01*
X+10990000Y+1916500D01*
X+10945099Y+2024901D02*
X+11034901Y+1935099D01*
X+10945099Y+1935099D02*
X+11034901Y+2024901D01*
X+11043500Y+7750000D02*
X+11043283Y+7755247D01*
X+11041518Y+7765742D01*
X+11037826Y+7776237D01*
X+11031798Y+7786732D01*
X+11022576Y+7797112D01*
X+11012081Y+7804800D01*
X+11001586Y+7809718D01*
X+10991091Y+7812524D01*
X+10980596Y+7813497D01*
X+10980000Y+7813500D01*
X+10916500Y+7750000D02*
X+10916717Y+7755247D01*
X+10918482Y+7765742D01*
X+10922174Y+7776237D01*
X+10928202Y+7786732D01*
X+10937424Y+7797112D01*
X+10947919Y+7804800D01*
X+10958414Y+7809718D01*
X+10968909Y+7812524D01*
X+10979404Y+7813497D01*
X+10980000Y+7813500D01*
X+10916500Y+7750000D02*
X+10916717Y+7744753D01*
X+10918482Y+7734258D01*
X+10922174Y+7723763D01*
X+10928202Y+7713268D01*
X+10937424Y+7702888D01*
X+10947919Y+7695200D01*
X+10958414Y+7690282D01*
X+10968909Y+7687476D01*
X+10979404Y+7686503D01*
X+10980000Y+7686500D01*
X+11043500Y+7750000D02*
X+11043283Y+7744753D01*
X+11041518Y+7734258D01*
X+11037826Y+7723763D01*
X+11031798Y+7713268D01*
X+11022576Y+7702888D01*
X+11012081Y+7695200D01*
X+11001586Y+7690282D01*
X+10991091Y+7687476D01*
X+10980596Y+7686503D01*
X+10980000Y+7686500D01*
X+10980000Y+7813500D02*
X+10980000Y+7686500D01*
X+10916500Y+7750000D02*
X+11043500Y+7750000D01*
X+11043283Y+7755247D01*
X+11041518Y+7765742D01*
X+11037826Y+7776237D01*
X+11031798Y+7786732D01*
X+11022576Y+7797112D01*
X+11012081Y+7804800D01*
X+11001586Y+7809718D01*
X+10991091Y+7812524D01*
X+10980596Y+7813497D01*
X+10980000Y+7813500D01*
X+10916500Y+7750000D02*
X+10916717Y+7755247D01*
X+10918482Y+7765742D01*
X+10922174Y+7776237D01*
X+10928202Y+7786732D01*
X+10937424Y+7797112D01*
X+10947919Y+7804800D01*
X+10958414Y+7809718D01*
X+10968909Y+7812524D01*
X+10979404Y+7813497D01*
X+10980000Y+7813500D01*
X+10916500Y+7750000D02*
X+10916717Y+7744753D01*
X+10918482Y+7734258D01*
X+10922174Y+7723763D01*
X+10928202Y+7713268D01*
X+10937424Y+7702888D01*
X+10947919Y+7695200D01*
X+10958414Y+7690282D01*
X+10968909Y+7687476D01*
X+10979404Y+7686503D01*
X+10980000Y+7686500D01*
X+11043500Y+7750000D02*
X+11043283Y+7744753D01*
X+11041518Y+7734258D01*
X+11037826Y+7723763D01*
X+11031798Y+7713268D01*
X+11022576Y+7702888D01*
X+11012081Y+7695200D01*
X+11001586Y+7690282D01*
X+10991091Y+7687476D01*
X+10980596Y+7686503D01*
X+10980000Y+7686500D01*
X+10935099Y+7794901D02*
X+11024901Y+7705099D01*
X+10935099Y+7705099D02*
X+11024901Y+7794901D01*
X+2383500Y+7710000D02*
X+2383283Y+7715247D01*
X+2381518Y+7725742D01*
X+2377826Y+7736237D01*
X+2371798Y+7746732D01*
X+2362576Y+7757112D01*
X+2352081Y+7764800D01*
X+2341586Y+7769718D01*
X+2331091Y+7772524D01*
X+2320596Y+7773497D01*
X+2320000Y+7773500D01*
X+2256500Y+7710000D02*
X+2256717Y+7715247D01*
X+2258482Y+7725742D01*
X+2262174Y+7736237D01*
X+2268202Y+7746732D01*
X+2277424Y+7757112D01*
X+2287919Y+7764800D01*
X+2298414Y+7769718D01*
X+2308909Y+7772524D01*
X+2319404Y+7773497D01*
X+2320000Y+7773500D01*
X+2256500Y+7710000D02*
X+2256717Y+7704753D01*
X+2258482Y+7694258D01*
X+2262174Y+7683763D01*
X+2268202Y+7673268D01*
X+2277424Y+7662888D01*
X+2287919Y+7655200D01*
X+2298414Y+7650282D01*
X+2308909Y+7647476D01*
X+2319404Y+7646503D01*
X+2320000Y+7646500D01*
X+2383500Y+7710000D02*
X+2383283Y+7704753D01*
X+2381518Y+7694258D01*
X+2377826Y+7683763D01*
X+2371798Y+7673268D01*
X+2362576Y+7662888D01*
X+2352081Y+7655200D01*
X+2341586Y+7650282D01*
X+2331091Y+7647476D01*
X+2320596Y+7646503D01*
X+2320000Y+7646500D01*
X+2320000Y+7773500D02*
X+2320000Y+7646500D01*
X+2256500Y+7710000D02*
X+2383500Y+7710000D01*
X+2383283Y+7715247D01*
X+2381518Y+7725742D01*
X+2377826Y+7736237D01*
X+2371798Y+7746732D01*
X+2362576Y+7757112D01*
X+2352081Y+7764800D01*
X+2341586Y+7769718D01*
X+2331091Y+7772524D01*
X+2320596Y+7773497D01*
X+2320000Y+7773500D01*
X+2256500Y+7710000D02*
X+2256717Y+7715247D01*
X+2258482Y+7725742D01*
X+2262174Y+7736237D01*
X+2268202Y+7746732D01*
X+2277424Y+7757112D01*
X+2287919Y+7764800D01*
X+2298414Y+7769718D01*
X+2308909Y+7772524D01*
X+2319404Y+7773497D01*
X+2320000Y+7773500D01*
X+2256500Y+7710000D02*
X+2256717Y+7704753D01*
X+2258482Y+7694258D01*
X+2262174Y+7683763D01*
X+2268202Y+7673268D01*
X+2277424Y+7662888D01*
X+2287919Y+7655200D01*
X+2298414Y+7650282D01*
X+2308909Y+7647476D01*
X+2319404Y+7646503D01*
X+2320000Y+7646500D01*
X+2383500Y+7710000D02*
X+2383283Y+7704753D01*
X+2381518Y+7694258D01*
X+2377826Y+7683763D01*
X+2371798Y+7673268D01*
X+2362576Y+7662888D01*
X+2352081Y+7655200D01*
X+2341586Y+7650282D01*
X+2331091Y+7647476D01*
X+2320596Y+7646503D01*
X+2320000Y+7646500D01*
X+2275099Y+7754901D02*
X+2364901Y+7665099D01*
X+2275099Y+7665099D02*
X+2364901Y+7754901D01*
X+2453500Y+2070000D02*
X+2453283Y+2075247D01*
X+2451518Y+2085742D01*
X+2447826Y+2096237D01*
X+2441798Y+2106732D01*
X+2432576Y+2117112D01*
X+2422081Y+2124800D01*
X+2411586Y+2129718D01*
X+2401091Y+2132524D01*
X+2390596Y+2133497D01*
X+2390000Y+2133500D01*
X+2326500Y+2070000D02*
X+2326717Y+2075247D01*
X+2328482Y+2085742D01*
X+2332174Y+2096237D01*
X+2338202Y+2106732D01*
X+2347424Y+2117112D01*
X+2357919Y+2124800D01*
X+2368414Y+2129718D01*
X+2378909Y+2132524D01*
X+2389404Y+2133497D01*
X+2390000Y+2133500D01*
X+2326500Y+2070000D02*
X+2326717Y+2064753D01*
X+2328482Y+2054258D01*
X+2332174Y+2043763D01*
X+2338202Y+2033268D01*
X+2347424Y+2022888D01*
X+2357919Y+2015200D01*
X+2368414Y+2010282D01*
X+2378909Y+2007476D01*
X+2389404Y+2006503D01*
X+2390000Y+2006500D01*
X+2453500Y+2070000D02*
X+2453283Y+2064753D01*
X+2451518Y+2054258D01*
X+2447826Y+2043763D01*
X+2441798Y+2033268D01*
X+2432576Y+2022888D01*
X+2422081Y+2015200D01*
X+2411586Y+2010282D01*
X+2401091Y+2007476D01*
X+2390596Y+2006503D01*
X+2390000Y+2006500D01*
X+2390000Y+2133500D02*
X+2390000Y+2006500D01*
X+2326500Y+2070000D02*
X+2453500Y+2070000D01*
X+2453283Y+2075247D01*
X+2451518Y+2085742D01*
X+2447826Y+2096237D01*
X+2441798Y+2106732D01*
X+2432576Y+2117112D01*
X+2422081Y+2124800D01*
X+2411586Y+2129718D01*
X+2401091Y+2132524D01*
X+2390596Y+2133497D01*
X+2390000Y+2133500D01*
X+2326500Y+2070000D02*
X+2326717Y+2075247D01*
X+2328482Y+2085742D01*
X+2332174Y+2096237D01*
X+2338202Y+2106732D01*
X+2347424Y+2117112D01*
X+2357919Y+2124800D01*
X+2368414Y+2129718D01*
X+2378909Y+2132524D01*
X+2389404Y+2133497D01*
X+2390000Y+2133500D01*
X+2326500Y+2070000D02*
X+2326717Y+2064753D01*
X+2328482Y+2054258D01*
X+2332174Y+2043763D01*
X+2338202Y+2033268D01*
X+2347424Y+2022888D01*
X+2357919Y+2015200D01*
X+2368414Y+2010282D01*
X+2378909Y+2007476D01*
X+2389404Y+2006503D01*
X+2390000Y+2006500D01*
X+2453500Y+2070000D02*
X+2453283Y+2064753D01*
X+2451518Y+2054258D01*
X+2447826Y+2043763D01*
X+2441798Y+2033268D01*
X+2432576Y+2022888D01*
X+2422081Y+2015200D01*
X+2411586Y+2010282D01*
X+2401091Y+2007476D01*
X+2390596Y+2006503D01*
X+2390000Y+2006500D01*
X+2345099Y+2114901D02*
X+2434901Y+2025099D01*
X+2345099Y+2025099D02*
X+2434901Y+2114901D01*
X+3550000Y+7667959D02*
X+3550000Y+7540959D01*
X+3486500Y+7604459D02*
X+3613500Y+7604459D01*
X+3505099Y+7649360D02*
X+3594901Y+7559558D01*
X+3505099Y+7559558D02*
X+3594901Y+7649360D01*
X+3200000Y+7667959D02*
X+3200000Y+7540959D01*
X+3136500Y+7604459D02*
X+3263500Y+7604459D01*
X+3155099Y+7649360D02*
X+3244901Y+7559558D01*
X+3155099Y+7559558D02*
X+3244901Y+7649360D01*
X+1980000Y+1690000D02*
X+11300000Y+1690000D01*
X+11300000Y+8020000D01*
X+1980000Y+8020000D01*
X+1980000Y+1690000D01*
D63*
X+1911900Y-369300D02*
X+4556040Y-369300D01*
X+4556040Y+1357900D01*
X+1911900Y+1357900D01*
X+1911900Y-369300D01*
D64*
X+2379262Y+1357900D02*
X+2379262Y-369300D01*
X+3192062Y+1357900D02*
X+3192062Y-369300D01*
X+4025182Y+1357900D02*
X+4025182Y-369300D01*
X+1911900Y+1084850D02*
X+4556040Y+1084850D01*
X+1911900Y+843550D02*
X+4556040Y+843550D01*
X+1911900Y+602250D02*
X+4556040Y+602250D01*
X+1911900Y+360950D02*
X+4556040Y+360950D01*
X+1911900Y+119650D02*
X+4556040Y+119650D01*
X+1911900Y-121650D02*
X+4556040Y-121650D01*
D63*
X+1969050Y+1194070D02*
X+1984290Y+1178830D01*
X+2045250Y+1178830D01*
X+2060490Y+1194070D01*
X+2060490Y+1209310D01*
X+2045250Y+1224550D01*
X+1984290Y+1224550D01*
X+1969050Y+1239790D01*
X+1969050Y+1255030D01*
X+1984290Y+1270270D01*
X+2045250Y+1270270D01*
X+2060490Y+1255030D01*
X+2182410Y+1270270D02*
X+2090970Y+1178830D01*
X+2090970Y+1270270D02*
X+2136690Y+1224550D01*
X+2212890Y+1178830D02*
X+2212890Y+1270270D01*
X+2258610Y+1224550D01*
X+2304330Y+1270270D01*
X+2304330Y+1178830D01*
X+2436410Y+1194070D02*
X+2451650Y+1178830D01*
X+2512610Y+1178830D01*
X+2527850Y+1194070D01*
X+2527850Y+1209310D01*
X+2512610Y+1224550D01*
X+2451650Y+1224550D01*
X+2436410Y+1239790D01*
X+2436410Y+1255030D01*
X+2451650Y+1270270D01*
X+2512610Y+1270270D01*
X+2527850Y+1255030D01*
X+2573570Y+1270270D02*
X+2634530Y+1270270D01*
X+2604050Y+1270270D02*
X+2604050Y+1178830D01*
X+2573570Y+1178830D02*
X+2634530Y+1178830D01*
X+2680250Y+1270270D02*
X+2771690Y+1270270D01*
X+2680250Y+1178830D01*
X+2771690Y+1178830D01*
X+2893610Y+1178830D02*
X+2802170Y+1178830D01*
X+2802170Y+1270270D01*
X+2893610Y+1270270D01*
X+2802170Y+1224550D02*
X+2863130Y+1224550D01*
X+3249210Y+1178830D02*
X+3249210Y+1270270D01*
X+3325410Y+1270270D01*
X+3340650Y+1255030D01*
X+3340650Y+1239790D01*
X+3325410Y+1224550D01*
X+3249210Y+1224550D01*
X+3371130Y+1270270D02*
X+3371130Y+1178830D01*
X+3462570Y+1178830D01*
X+3493050Y+1178830D02*
X+3493050Y+1239790D01*
X+3523530Y+1270270D01*
X+3554010Y+1270270D01*
X+3584490Y+1239790D01*
X+3584490Y+1178830D01*
X+3493050Y+1209310D02*
X+3584490Y+1209310D01*
X+3614970Y+1270270D02*
X+3706410Y+1270270D01*
X+3660690Y+1270270D02*
X+3660690Y+1178830D01*
X+3828330Y+1178830D02*
X+3736890Y+1178830D01*
X+3736890Y+1270270D01*
X+3828330Y+1270270D01*
X+3736890Y+1224550D02*
X+3797850Y+1224550D01*
X+3858810Y+1178830D02*
X+3858810Y+1270270D01*
X+3919770Y+1270270D01*
X+3950250Y+1239790D01*
X+3950250Y+1209310D01*
X+3919770Y+1178830D01*
X+3858810Y+1178830D01*
X+4082330Y+1239790D02*
X+4112810Y+1270270D01*
X+4143290Y+1270270D01*
X+4173770Y+1239790D01*
X+4173770Y+1209310D01*
X+4143290Y+1178830D01*
X+4112810Y+1178830D01*
X+4082330Y+1209310D01*
X+4082330Y+1239790D01*
X+4143290Y+1209310D02*
X+4173770Y+1178830D01*
X+4204250Y+1270270D02*
X+4295690Y+1270270D01*
X+4249970Y+1270270D02*
X+4249970Y+1178830D01*
X+4417610Y+1270270D02*
X+4326170Y+1178830D01*
X+4326170Y+1270270D02*
X+4371890Y+1224550D01*
D29*
X+2158280Y+1034050D02*
X+2158280Y+907050D01*
X+2094780Y+970550D02*
X+2221780Y+970550D01*
D63*
X+2455460Y+945150D02*
X+2455460Y+995950D01*
X+2468160Y+1008650D01*
X+2518960Y+1008650D01*
X+2531660Y+995950D01*
X+2531660Y+945150D01*
X+2518960Y+932450D01*
X+2468160Y+932450D01*
X+2455460Y+945150D01*
X+2455460Y+932450D02*
X+2531660Y+1008650D01*
X+2595160Y+945150D02*
X+2607860Y+945150D01*
X+2607860Y+932450D01*
X+2595160Y+932450D01*
X+2595160Y+945150D01*
X+2671360Y+1008650D02*
X+2734860Y+1008650D01*
X+2734860Y+995950D01*
X+2671360Y+932450D01*
X+2836460Y+995950D02*
X+2823760Y+1008650D01*
X+2785660Y+1008650D01*
X+2772960Y+995950D01*
X+2772960Y+945150D01*
X+2785660Y+932450D01*
X+2823760Y+932450D01*
X+2836460Y+945150D01*
X+2836460Y+957850D01*
X+2823760Y+970550D01*
X+2772960Y+970550D01*
X+2874560Y+995950D02*
X+2887260Y+1008650D01*
X+2925360Y+1008650D01*
X+2938060Y+995950D01*
X+2938060Y+983250D01*
X+2925360Y+970550D01*
X+2887260Y+970550D01*
X+2874560Y+957850D01*
X+2874560Y+932450D01*
X+2938060Y+932450D01*
X+2963460Y+932450D02*
X+2963460Y+983250D01*
X+2963460Y+970550D02*
X+2976160Y+983250D01*
X+3001560Y+957850D01*
X+3026960Y+983250D01*
X+3039660Y+970550D01*
X+3039660Y+932450D01*
X+3065060Y+932450D02*
X+3065060Y+983250D01*
X+3065060Y+970550D02*
X+3077760Y+983250D01*
X+3103160Y+957850D01*
X+3128560Y+983250D01*
X+3141260Y+970550D01*
X+3141260Y+932450D01*
X+3357160Y+1008650D02*
X+3280960Y+932450D01*
X+3280960Y+1008650D02*
X+3319060Y+970550D01*
X+3458760Y+932450D02*
X+3382560Y+932450D01*
X+3382560Y+1008650D01*
X+3458760Y+1008650D01*
X+3382560Y+970550D02*
X+3433360Y+970550D01*
X+3484160Y+945150D02*
X+3496860Y+932450D01*
X+3547660Y+932450D01*
X+3560360Y+945150D01*
X+3560360Y+957850D01*
X+3547660Y+970550D01*
X+3496860Y+970550D01*
X+3484160Y+983250D01*
X+3484160Y+995950D01*
X+3496860Y+1008650D01*
X+3547660Y+1008650D01*
X+3560360Y+995950D01*
X+4202980Y+957850D02*
X+4126780Y+957850D01*
X+4177580Y+1008650D01*
X+4177580Y+932450D01*
X+4304580Y+1008650D02*
X+4241080Y+1008650D01*
X+4241080Y+983250D01*
X+4291880Y+983250D01*
X+4304580Y+970550D01*
X+4304580Y+945150D01*
X+4291880Y+932450D01*
X+4253780Y+932450D01*
X+4241080Y+945150D01*
D29*
X+2113379Y+774151D02*
X+2203181Y+684349D01*
X+2113379Y+684349D02*
X+2203181Y+774151D01*
D63*
X+2480860Y+741950D02*
X+2506260Y+767350D01*
X+2506260Y+691150D01*
X+2595160Y+703850D02*
X+2607860Y+703850D01*
X+2607860Y+691150D01*
X+2595160Y+691150D01*
X+2595160Y+703850D01*
X+2658660Y+703850D02*
X+2658660Y+754650D01*
X+2671360Y+767350D01*
X+2722160Y+767350D01*
X+2734860Y+754650D01*
X+2734860Y+703850D01*
X+2722160Y+691150D01*
X+2671360Y+691150D01*
X+2658660Y+703850D01*
X+2658660Y+691150D02*
X+2734860Y+767350D01*
X+2785660Y+741950D02*
X+2811060Y+767350D01*
X+2811060Y+691150D01*
X+2938060Y+754650D02*
X+2925360Y+767350D01*
X+2887260Y+767350D01*
X+2874560Y+754650D01*
X+2874560Y+703850D01*
X+2887260Y+691150D01*
X+2925360Y+691150D01*
X+2938060Y+703850D01*
X+2938060Y+716550D01*
X+2925360Y+729250D01*
X+2874560Y+729250D01*
X+2963460Y+691150D02*
X+2963460Y+741950D01*
X+2963460Y+729250D02*
X+2976160Y+741950D01*
X+3001560Y+716550D01*
X+3026960Y+741950D01*
X+3039660Y+729250D01*
X+3039660Y+691150D01*
X+3065060Y+691150D02*
X+3065060Y+741950D01*
X+3065060Y+729250D02*
X+3077760Y+741950D01*
X+3103160Y+716550D01*
X+3128560Y+741950D01*
X+3141260Y+729250D01*
X+3141260Y+691150D01*
X+3357160Y+767350D02*
X+3280960Y+691150D01*
X+3280960Y+767350D02*
X+3319060Y+729250D01*
X+3458760Y+691150D02*
X+3382560Y+691150D01*
X+3382560Y+767350D01*
X+3458760Y+767350D01*
X+3382560Y+729250D02*
X+3433360Y+729250D01*
X+3484160Y+703850D02*
X+3496860Y+691150D01*
X+3547660Y+691150D01*
X+3560360Y+703850D01*
X+3560360Y+716550D01*
X+3547660Y+729250D01*
X+3496860Y+729250D01*
X+3484160Y+741950D01*
X+3484160Y+754650D01*
X+3496860Y+767350D01*
X+3547660Y+767350D01*
X+3560360Y+754650D01*
X+4152180Y+741950D02*
X+4177580Y+767350D01*
X+4177580Y+691150D01*
D29*
X+2158280Y+551450D02*
X+2158280Y+424450D01*
X+2094780Y+487950D02*
X+2221780Y+487950D01*
X+2113379Y+532851D02*
X+2203181Y+443049D01*
X+2113379Y+443049D02*
X+2203181Y+532851D01*
D63*
X+2480860Y+500650D02*
X+2506260Y+526050D01*
X+2506260Y+449850D01*
X+2595160Y+462550D02*
X+2607860Y+462550D01*
X+2607860Y+449850D01*
X+2595160Y+449850D01*
X+2595160Y+462550D01*
X+2671360Y+513350D02*
X+2684060Y+526050D01*
X+2722160Y+526050D01*
X+2734860Y+513350D01*
X+2734860Y+500650D01*
X+2722160Y+487950D01*
X+2684060Y+487950D01*
X+2671360Y+475250D01*
X+2671360Y+449850D01*
X+2734860Y+449850D01*
X+2772960Y+526050D02*
X+2836460Y+526050D01*
X+2836460Y+513350D01*
X+2772960Y+449850D01*
X+2861860Y+449850D02*
X+2861860Y+500650D01*
X+2861860Y+487950D02*
X+2874560Y+500650D01*
X+2899960Y+475250D01*
X+2925360Y+500650D01*
X+2938060Y+487950D01*
X+2938060Y+449850D01*
X+2963460Y+449850D02*
X+2963460Y+500650D01*
X+2963460Y+487950D02*
X+2976160Y+500650D01*
X+3001560Y+475250D01*
X+3026960Y+500650D01*
X+3039660Y+487950D01*
X+3039660Y+449850D01*
X+3357160Y+526050D02*
X+3280960Y+449850D01*
X+3280960Y+526050D02*
X+3319060Y+487950D01*
X+3458760Y+449850D02*
X+3382560Y+449850D01*
X+3382560Y+526050D01*
X+3458760Y+526050D01*
X+3382560Y+487950D02*
X+3433360Y+487950D01*
X+3484160Y+462550D02*
X+3496860Y+449850D01*
X+3547660Y+449850D01*
X+3560360Y+462550D01*
X+3560360Y+475250D01*
X+3547660Y+487950D01*
X+3496860Y+487950D01*
X+3484160Y+500650D01*
X+3484160Y+513350D01*
X+3496860Y+526050D01*
X+3547660Y+526050D01*
X+3560360Y+513350D01*
X+4152180Y+500650D02*
X+4177580Y+526050D01*
X+4177580Y+449850D01*
X+4253780Y+500650D02*
X+4279180Y+526050D01*
X+4279180Y+449850D01*
D29*
X+2221780Y+246650D02*
X+2221563Y+251897D01*
X+2219798Y+262392D01*
X+2216106Y+272887D01*
X+2210078Y+283382D01*
X+2200856Y+293762D01*
X+2190361Y+301450D01*
X+2179866Y+306368D01*
X+2169371Y+309174D01*
X+2158876Y+310147D01*
X+2158280Y+310150D01*
X+2094780Y+246650D02*
X+2094997Y+251897D01*
X+2096762Y+262392D01*
X+2100454Y+272887D01*
X+2106482Y+283382D01*
X+2115704Y+293762D01*
X+2126199Y+301450D01*
X+2136694Y+306368D01*
X+2147189Y+309174D01*
X+2157684Y+310147D01*
X+2158280Y+310150D01*
X+2094780Y+246650D02*
X+2094997Y+241403D01*
X+2096762Y+230908D01*
X+2100454Y+220413D01*
X+2106482Y+209918D01*
X+2115704Y+199538D01*
X+2126199Y+191850D01*
X+2136694Y+186932D01*
X+2147189Y+184126D01*
X+2157684Y+183153D01*
X+2158280Y+183150D01*
X+2221780Y+246650D02*
X+2221563Y+241403D01*
X+2219798Y+230908D01*
X+2216106Y+220413D01*
X+2210078Y+209918D01*
X+2200856Y+199538D01*
X+2190361Y+191850D01*
X+2179866Y+186932D01*
X+2169371Y+184126D01*
X+2158876Y+183153D01*
X+2158280Y+183150D01*
X+2158280Y+310150D02*
X+2158280Y+183150D01*
X+2094780Y+246650D02*
X+2221780Y+246650D01*
D63*
X+2480860Y+259350D02*
X+2506260Y+284750D01*
X+2506260Y+208550D01*
X+2595160Y+221250D02*
X+2607860Y+221250D01*
X+2607860Y+208550D01*
X+2595160Y+208550D01*
X+2595160Y+221250D01*
X+2734860Y+284750D02*
X+2671360Y+284750D01*
X+2671360Y+259350D01*
X+2722160Y+259350D01*
X+2734860Y+246650D01*
X+2734860Y+221250D01*
X+2722160Y+208550D01*
X+2684060Y+208550D01*
X+2671360Y+221250D01*
X+2772960Y+272050D02*
X+2785660Y+284750D01*
X+2823760Y+284750D01*
X+2836460Y+272050D01*
X+2836460Y+259350D01*
X+2823760Y+246650D01*
X+2785660Y+246650D01*
X+2772960Y+233950D01*
X+2772960Y+208550D01*
X+2836460Y+208550D01*
X+2938060Y+233950D02*
X+2861860Y+233950D01*
X+2912660Y+284750D01*
X+2912660Y+208550D01*
X+2963460Y+208550D02*
X+2963460Y+259350D01*
X+2963460Y+246650D02*
X+2976160Y+259350D01*
X+3001560Y+233950D01*
X+3026960Y+259350D01*
X+3039660Y+246650D01*
X+3039660Y+208550D01*
X+3065060Y+208550D02*
X+3065060Y+259350D01*
X+3065060Y+246650D02*
X+3077760Y+259350D01*
X+3103160Y+233950D01*
X+3128560Y+259350D01*
X+3141260Y+246650D01*
X+3141260Y+208550D01*
X+3357160Y+284750D02*
X+3280960Y+208550D01*
X+3280960Y+284750D02*
X+3319060Y+246650D01*
X+3458760Y+208550D02*
X+3382560Y+208550D01*
X+3382560Y+284750D01*
X+3458760Y+284750D01*
X+3382560Y+246650D02*
X+3433360Y+246650D01*
X+3484160Y+221250D02*
X+3496860Y+208550D01*
X+3547660Y+208550D01*
X+3560360Y+221250D01*
X+3560360Y+233950D01*
X+3547660Y+246650D01*
X+3496860Y+246650D01*
X+3484160Y+259350D01*
X+3484160Y+272050D01*
X+3496860Y+284750D01*
X+3547660Y+284750D01*
X+3560360Y+272050D01*
X+4152180Y+259350D02*
X+4177580Y+284750D01*
X+4177580Y+208550D01*
X+4228380Y+221250D02*
X+4228380Y+272050D01*
X+4241080Y+284750D01*
X+4291880Y+284750D01*
X+4304580Y+272050D01*
X+4304580Y+221250D01*
X+4291880Y+208550D01*
X+4241080Y+208550D01*
X+4228380Y+221250D01*
X+4228380Y+208550D02*
X+4304580Y+284750D01*
D29*
X+2221780Y+5350D02*
X+2221563Y+10597D01*
X+2219798Y+21092D01*
X+2216106Y+31587D01*
X+2210078Y+42082D01*
X+2200856Y+52462D01*
X+2190361Y+60150D01*
X+2179866Y+65068D01*
X+2169371Y+67874D01*
X+2158876Y+68847D01*
X+2158280Y+68850D01*
X+2094780Y+5350D02*
X+2094997Y+10597D01*
X+2096762Y+21092D01*
X+2100454Y+31587D01*
X+2106482Y+42082D01*
X+2115704Y+52462D01*
X+2126199Y+60150D01*
X+2136694Y+65068D01*
X+2147189Y+67874D01*
X+2157684Y+68847D01*
X+2158280Y+68850D01*
X+2094780Y+5350D02*
X+2094997Y+103D01*
X+2096762Y-10392D01*
X+2100454Y-20887D01*
X+2106482Y-31382D01*
X+2115704Y-41762D01*
X+2126199Y-49450D01*
X+2136694Y-54368D01*
X+2147189Y-57174D01*
X+2157684Y-58147D01*
X+2158280Y-58150D01*
X+2221780Y+5350D02*
X+2221563Y+103D01*
X+2219798Y-10392D01*
X+2216106Y-20887D01*
X+2210078Y-31382D01*
X+2200856Y-41762D01*
X+2190361Y-49450D01*
X+2179866Y-54368D01*
X+2169371Y-57174D01*
X+2158876Y-58147D01*
X+2158280Y-58150D01*
X+2113379Y+50251D02*
X+2203181Y-39551D01*
X+2113379Y-39551D02*
X+2203181Y+50251D01*
D63*
X+2480860Y+18050D02*
X+2506260Y+43450D01*
X+2506260Y-32750D01*
X+2557060Y-32750D02*
X+2557060Y+18050D01*
X+2557060Y+5350D02*
X+2569760Y+18050D01*
X+2595160Y-7350D01*
X+2620560Y+18050D01*
X+2633260Y+5350D01*
X+2633260Y-32750D01*
X+2658660Y-32750D02*
X+2658660Y+18050D01*
X+2658660Y+5350D02*
X+2671360Y+18050D01*
X+2696760Y-7350D01*
X+2722160Y+18050D01*
X+2734860Y+5350D01*
X+2734860Y-32750D01*
X+3357160Y+43450D02*
X+3280960Y-32750D01*
X+3280960Y+43450D02*
X+3319060Y+5350D01*
X+3458760Y-32750D02*
X+3382560Y-32750D01*
X+3382560Y+43450D01*
X+3458760Y+43450D01*
X+3382560Y+5350D02*
X+3433360Y+5350D01*
X+3484160Y-20050D02*
X+3496860Y-32750D01*
X+3547660Y-32750D01*
X+3560360Y-20050D01*
X+3560360Y-7350D01*
X+3547660Y+5350D01*
X+3496860Y+5350D01*
X+3484160Y+18050D01*
X+3484160Y+30750D01*
X+3496860Y+43450D01*
X+3547660Y+43450D01*
X+3560360Y+30750D01*
X+4139480Y+30750D02*
X+4152180Y+43450D01*
X+4190280Y+43450D01*
X+4202980Y+30750D01*
X+4202980Y+18050D01*
X+4190280Y+5350D01*
X+4202980Y-7350D01*
X+4202980Y-20050D01*
X+4190280Y-32750D01*
X+4152180Y-32750D01*
X+4139480Y-20050D01*
X+4164880Y+5350D02*
X+4190280Y+5350D01*
X+4241080Y+30750D02*
X+4253780Y+43450D01*
X+4291880Y+43450D01*
X+4304580Y+30750D01*
X+4304580Y+18050D01*
X+4291880Y+5350D01*
X+4253780Y+5350D01*
X+4241080Y-7350D01*
X+4241080Y-32750D01*
X+4304580Y-32750D01*
D29*
X+2221780Y-235950D02*
X+2221563Y-230703D01*
X+2219798Y-220208D01*
X+2216106Y-209713D01*
X+2210078Y-199218D01*
X+2200856Y-188838D01*
X+2190361Y-181150D01*
X+2179866Y-176232D01*
X+2169371Y-173426D01*
X+2158876Y-172453D01*
X+2158280Y-172450D01*
X+2094780Y-235950D02*
X+2094997Y-230703D01*
X+2096762Y-220208D01*
X+2100454Y-209713D01*
X+2106482Y-199218D01*
X+2115704Y-188838D01*
X+2126199Y-181150D01*
X+2136694Y-176232D01*
X+2147189Y-173426D01*
X+2157684Y-172453D01*
X+2158280Y-172450D01*
X+2094780Y-235950D02*
X+2094997Y-241197D01*
X+2096762Y-251692D01*
X+2100454Y-262187D01*
X+2106482Y-272682D01*
X+2115704Y-283062D01*
X+2126199Y-290750D01*
X+2136694Y-295668D01*
X+2147189Y-298474D01*
X+2157684Y-299447D01*
X+2158280Y-299450D01*
X+2221780Y-235950D02*
X+2221563Y-241197D01*
X+2219798Y-251692D01*
X+2216106Y-262187D01*
X+2210078Y-272682D01*
X+2200856Y-283062D01*
X+2190361Y-290750D01*
X+2179866Y-295668D01*
X+2169371Y-298474D01*
X+2158876Y-299447D01*
X+2158280Y-299450D01*
X+2158280Y-172450D02*
X+2158280Y-299450D01*
X+2094780Y-235950D02*
X+2221780Y-235950D01*
X+2221563Y-230703D01*
X+2219798Y-220208D01*
X+2216106Y-209713D01*
X+2210078Y-199218D01*
X+2200856Y-188838D01*
X+2190361Y-181150D01*
X+2179866Y-176232D01*
X+2169371Y-173426D01*
X+2158876Y-172453D01*
X+2158280Y-172450D01*
X+2094780Y-235950D02*
X+2094997Y-230703D01*
X+2096762Y-220208D01*
X+2100454Y-209713D01*
X+2106482Y-199218D01*
X+2115704Y-188838D01*
X+2126199Y-181150D01*
X+2136694Y-176232D01*
X+2147189Y-173426D01*
X+2157684Y-172453D01*
X+2158280Y-172450D01*
X+2094780Y-235950D02*
X+2094997Y-241197D01*
X+2096762Y-251692D01*
X+2100454Y-262187D01*
X+2106482Y-272682D01*
X+2115704Y-283062D01*
X+2126199Y-290750D01*
X+2136694Y-295668D01*
X+2147189Y-298474D01*
X+2157684Y-299447D01*
X+2158280Y-299450D01*
X+2221780Y-235950D02*
X+2221563Y-241197D01*
X+2219798Y-251692D01*
X+2216106Y-262187D01*
X+2210078Y-272682D01*
X+2200856Y-283062D01*
X+2190361Y-290750D01*
X+2179866Y-295668D01*
X+2169371Y-298474D01*
X+2158876Y-299447D01*
X+2158280Y-299450D01*
X+2113379Y-191049D02*
X+2203181Y-280851D01*
X+2113379Y-280851D02*
X+2203181Y-191049D01*
D63*
X+2468160Y-210550D02*
X+2480860Y-197850D01*
X+2518960Y-197850D01*
X+2531660Y-210550D01*
X+2531660Y-223250D01*
X+2518960Y-235950D01*
X+2531660Y-248650D01*
X+2531660Y-261350D01*
X+2518960Y-274050D01*
X+2480860Y-274050D01*
X+2468160Y-261350D01*
X+2493560Y-235950D02*
X+2518960Y-235950D01*
X+2595160Y-261350D02*
X+2607860Y-261350D01*
X+2607860Y-274050D01*
X+2595160Y-274050D01*
X+2595160Y-261350D01*
X+2734860Y-197850D02*
X+2671360Y-197850D01*
X+2671360Y-223250D01*
X+2722160Y-223250D01*
X+2734860Y-235950D01*
X+2734860Y-261350D01*
X+2722160Y-274050D01*
X+2684060Y-274050D01*
X+2671360Y-261350D01*
X+2760260Y-274050D02*
X+2760260Y-223250D01*
X+2760260Y-235950D02*
X+2772960Y-223250D01*
X+2798360Y-248650D01*
X+2823760Y-223250D01*
X+2836460Y-235950D01*
X+2836460Y-274050D01*
X+2861860Y-274050D02*
X+2861860Y-223250D01*
X+2861860Y-235950D02*
X+2874560Y-223250D01*
X+2899960Y-248650D01*
X+2925360Y-223250D01*
X+2938060Y-235950D01*
X+2938060Y-274050D01*
X+3357160Y-197850D02*
X+3280960Y-274050D01*
X+3280960Y-197850D02*
X+3319060Y-235950D01*
X+3458760Y-274050D02*
X+3382560Y-274050D01*
X+3382560Y-197850D01*
X+3458760Y-197850D01*
X+3382560Y-235950D02*
X+3433360Y-235950D01*
X+3484160Y-261350D02*
X+3496860Y-274050D01*
X+3547660Y-274050D01*
X+3560360Y-261350D01*
X+3560360Y-248650D01*
X+3547660Y-235950D01*
X+3496860Y-235950D01*
X+3484160Y-223250D01*
X+3484160Y-210550D01*
X+3496860Y-197850D01*
X+3547660Y-197850D01*
X+3560360Y-210550D01*
X+4202980Y-248650D02*
X+4126780Y-248650D01*
X+4177580Y-197850D01*
X+4177580Y-274050D01*
M02*
